M48
;Layer_Color=9474304
;FILE_FORMAT=4:4
METRIC,LZ
;TYPE=PLATED
T1F00S00C0.2000
T2F00S00C0.8128
T3F00S00C0.8700
T4F00S00C1.0000
T5F00S00C1.0668
T6F00S00C1.0900
T7F00S00C1.1000
T8F00S00C1.3000
T9F00S00C2.0000
;TYPE=NON_PLATED
%
T01
X004655Y0037
X0046575Y003785
X0050175Y00376
X0050925Y00375
X0051Y0035175
X005945Y0034375
X006015Y0036275
X00571Y0042675
X0055675Y004455
X0054175
X0053175
X0052175
X0051875Y00436
X00451522Y00438522
Y00446772
X00451272Y00454272
X0045125Y0046275
X00414Y0045175
Y0049525
X004895Y00491
Y00501
X0048975Y0051125
X00496Y00506
X0049625Y00496
X00504Y00523
X0050525Y0055075
X0049825Y005555
X0052175Y005615
X0052675Y0056775
X00517Y0058675
X0051175Y0059325
X0053175Y00607
X005515Y0060775
X00562Y0060025
X0057775Y0060075
X00586Y0053875
X00587Y005305
X0058075Y005235
X0057425Y00527
X0056825Y0053775
X0053675Y0053275
X00584Y005095
X00581Y00501
X00588Y00486
X0062625Y005215
X0063625Y0052675
X006735Y005185
X0070075Y0051325
X0071075
X0072075
X0073075
X0074775Y00531
X0068575Y0048925
X0067Y0046975
X0067025Y0045975
Y0044975
X00672Y004185
X0072075Y004065
X0074075Y0040625
X0075075Y00406
X004635Y00536
Y00544
X00423Y005845
X0042275Y0059575
X00363Y0039775
T02
X00415726Y006195
X00435726
X00485726
X00505726
T03
X0038855Y003817
X0040125
X0041395
T04
X0033567Y00282
Y00327
X007433Y00234
X007687
X007583Y00626
X007837
X00335Y006357
Y006103
Y005849
Y006611
T05
X006045Y002715
X006805
T06
X0064485Y005827
X0067025
X0069565
Y006335
X0064485
T07
X0045Y002075
Y002325
X005
Y002075
X00475
T08
X0036067Y002695
Y003395
T09
X0041Y00311
X00728
Y00554
X0041
M30
