M48
;Layer_Color=9474304
;FILE_FORMAT=4:4
METRIC,LZ
;TYPE=PLATED
T1F00S00C0.2000
;TYPE=NON_PLATED
%
T01
X0044825Y002965
X00459Y002865
X004705Y002965
X005295Y003275
X0053425Y0033325
X00526Y0033625
X0052225Y0035
X005135Y003445
X00547Y0034125
X0056Y0033025
X0056125Y0035975
X0057175Y0037
X0058225Y0036
X00533Y0036325
X0052225Y0037625
X00502Y0039625
X00471Y003965
X0075275Y003835
X0076125Y0037525
X0077125Y003835
X0078225Y0037575
X0076975Y00307
X0076175Y00298
X0076975Y0028875
Y0027075
X0076075Y00279
X00752Y00443
X0074325Y0043425
X007305Y0043025
X007315Y00443
X0072Y0043375
X0073125Y004775
X00752Y0047775
X007815Y0047
X0078125Y0045
X0067Y0044
X006695Y0047775
X006125Y0046725
X006045Y0045825
X0060425Y0048975
X006055Y00505
X0062525Y00503
X0061875Y0057175
X0053875Y0056225
X004755Y0050725
X004795Y0046025
X0047025Y00446
X0045875Y00436
X004545Y0042525
Y004165
X00458Y004055
X004815Y0040575
X004905
X00513Y00406
X00526Y0040875
X0051775Y004175
X005265Y00436
X005025Y004455
X00491Y00436
X004825Y0043625
X004765Y0042525
X0047675Y00417
X0039975Y005205
X0038925Y005305
X003775Y0052025
Y0055025
X0036425Y00561
X0035025Y0055025
X0037975Y00457
M30
