M48
;Layer_Color=9474304
;FILE_FORMAT=4:4
METRIC,LZ
T11F00S00C5.0800
%
G90
G05
T11
G00X00833048Y00156107
M15
G01X00837895Y00157607
G01X00842347Y0016004
G01X00846227Y0016331
G01X00849379Y00167285
G01X00851678Y00171808
G01X00853033Y00176697
G01X008534Y00181
G01X008534Y00684
G01X00852893Y00689048
G01X00851393Y00693895
G01X0084896Y00698347
G01X0084569Y00702227
G01X00841715Y00705379
G01X00837192Y00707678
G01X00832303Y00709033
G01X00828Y007094
G01X0031Y007094
G01X00304952Y00708893
G01X00300105Y00707393
G01X00295653Y0070496
G01X00291773Y0070169
G01X00288621Y00697715
G01X00286322Y00693192
G01X00284967Y00688303
G01X002846Y00684
G01X002846Y00181
G01X00285107Y00175952
G01X00286607Y00171105
G01X0028904Y00166653
G01X0029231Y00162773
G01X00296285Y00159621
G01X00300808Y00157322
G01X00305697Y00155967
G01X0031Y001556
G01X00828Y001556
G01X00833048Y00156107
M16
M17
M30
