M48
;Layer_Color=9474304
;FILE_FORMAT=4:4
METRIC,LZ
;TYPE=PLATED
T1F00S00C0.2000
;TYPE=NON_PLATED
%
T01
X0044825Y0034
X0044875Y003555
X0045875Y00366
X0046925Y0034
X0053375Y0031325
X0056125Y0031775
Y0029975
X007865Y00298
X0078675Y00279
X007785Y0027075
X00791Y0039225
X0075275Y003925
X007605Y0053075
X00771Y0052075
X00625Y005115
X00614Y0050575
X0061025Y005715
X00548Y0056225
X00552Y004345
X00546Y00403
X005365
X0056125Y004035
X00571Y004135
X0048975Y00445
X0048025Y004515
M30
