G04*
G04 #@! TF.GenerationSoftware,Altium Limited,Altium Designer,20.2.8 (258)*
G04*
G04 Layer_Color=65535*
%FSLAX44Y44*%
%MOMM*%
G71*
G04*
G04 #@! TF.SameCoordinates,AB2164AD-3A94-489E-A7C9-C1E693429951*
G04*
G04*
G04 #@! TF.FilePolarity,Positive*
G04*
G01*
G75*
%ADD125C,0.0099*%
%ADD126C,0.0249*%
%ADD127C,0.0000*%
%ADD128C,0.1999*%
%ADD129C,0.1001*%
%ADD130C,0.0500*%
D125*
X416400Y462000D02*
Y467001D01*
X411600D02*
X416400D01*
X411600Y462000D02*
Y467001D01*
Y462000D02*
X416400D01*
X401402D02*
Y467001D01*
X392601D02*
X401402D01*
X392601Y462000D02*
Y467001D01*
Y462000D02*
X401402D01*
X416400Y480001D02*
Y485002D01*
X411600D02*
X416400D01*
X411600Y480001D02*
Y485002D01*
Y480001D02*
X416400D01*
X397401D02*
Y485002D01*
X392601D02*
X397401D01*
X392601Y480001D02*
Y485002D01*
Y480001D02*
X397401D01*
X568050Y355551D02*
Y358449D01*
Y355551D02*
X575950D01*
Y358449D01*
X568050D02*
X575950D01*
X568101Y355599D02*
Y358401D01*
Y355599D02*
X575899D01*
Y358401D01*
X568101D02*
X575899D01*
X471601Y520349D02*
X479399D01*
X471601D02*
Y523151D01*
X479399D01*
Y520349D02*
Y523151D01*
X471550Y520301D02*
X479450D01*
X471550D02*
Y523199D01*
X479450D01*
Y520301D02*
Y523199D01*
D126*
X332772Y450611D02*
G03*
X331771Y451609I-1000J-1D01*
G01*
X331761Y441609D02*
G03*
X332762Y442610I0J1001D01*
G01*
X331740Y488909D02*
G03*
X332741Y489910I0J1001D01*
G01*
X328261Y489889D02*
G03*
X329261Y488891I1000J1D01*
G01*
X328251Y442610D02*
G03*
X329251Y441609I1001J0D01*
G01*
X332741Y497921D02*
G03*
X331740Y498919I-1000J-1D01*
G01*
X340981Y507751D02*
G03*
X339251Y508749I-1730J-1000D01*
G01*
D02*
G03*
X337509Y507751I-11J-2000D01*
G01*
X315761Y505371D02*
G03*
X317750Y504748I1992J2877D01*
G01*
X343752Y513290D02*
G03*
X343460Y514050I-1241J-41D01*
G01*
Y514050D02*
G03*
X342782Y514245I-681J-1086D01*
G01*
Y514250D02*
G03*
X342751Y514250I-15J-1313D01*
G01*
X335751Y514250D02*
G03*
X335731Y514250I-10J-1311D01*
G01*
D02*
G03*
X335048Y514055I-0J-1291D01*
G01*
X335050Y514050D02*
G03*
X334761Y513290I950J-797D01*
G01*
X340991Y507751D02*
G03*
X339251Y508756I-1739J-1000D01*
G01*
X333742Y490651D02*
G03*
X332749Y489770I1J-1001D01*
G01*
X341250Y490651D02*
G03*
X342251Y491650I1J1000D01*
G01*
Y496150D02*
G03*
X341250Y497151I-1001J0D01*
G01*
X332751Y498020D02*
G03*
X333742Y497151I990J130D01*
G01*
X329251Y498901D02*
G03*
X328251Y497901I0J-1001D01*
G01*
X357750Y499150D02*
G03*
X356752Y498149I1J-1000D01*
G01*
X360181Y498469D02*
G03*
X359231Y499153I-950J-320D01*
G01*
X362462Y491469D02*
G03*
X361956Y492836I-2101J-0D01*
G01*
X362452Y491370D02*
G03*
X362454Y491469I-2070J103D01*
G01*
X361550Y464830D02*
G03*
X362952Y464256I1401J1423D01*
G01*
Y476250D02*
G03*
X361547Y475676I-2J-2000D01*
G01*
X361550Y475670D02*
G03*
X360958Y474250I1401J-1417D01*
G01*
X360951Y466250D02*
G03*
X361547Y464825I2001J1D01*
G01*
X356752Y442351D02*
G03*
X357750Y441350I1000J-1D01*
G01*
X359231D02*
G03*
X360178Y442031I-0J1000D01*
G01*
X361951Y447669D02*
G03*
X362454Y449031I-1592J1362D01*
G01*
X333742Y443349D02*
G03*
X332749Y442470I-1J-1000D01*
G01*
X341250Y443349D02*
G03*
X342251Y444350I0J1001D01*
G01*
Y448851D02*
G03*
X341250Y449849I-1000J-1D01*
G01*
X332751Y450720D02*
G03*
X333742Y449851I990J130D01*
G01*
X329251Y451599D02*
G03*
X328251Y450601I-1J-1000D01*
G01*
X317750Y435749D02*
G03*
X315761Y435129I-1J-3498D01*
G01*
X337522Y432749D02*
G03*
X339251Y431751I1730J1000D01*
G01*
D02*
G03*
X340994Y432749I11J2000D01*
G01*
X334750Y427210D02*
G03*
X335050Y426438I1252J42D01*
G01*
Y426440D02*
G03*
X335731Y426247I680J1101D01*
G01*
Y426250D02*
G03*
X335751Y426250I10J1311D01*
G01*
X342751Y426250D02*
G03*
X342782Y426250I15J1311D01*
G01*
D02*
G03*
X343460Y426443I-1J1290D01*
G01*
Y426440D02*
G03*
X343760Y427210I-948J812D01*
G01*
X579999Y386250D02*
Y406250D01*
Y386250D02*
X592501D01*
Y406250D01*
X579999D02*
X592501D01*
X574251Y453498D02*
Y523501D01*
X504249Y453498D02*
X574251D01*
X504249D02*
Y523501D01*
X574251D01*
X640751Y497499D02*
X660751D01*
Y527501D01*
X640751D02*
X660751D01*
X640751Y497499D02*
Y527501D01*
X313402Y507009D02*
X315761Y505371D01*
X311751Y508149D02*
X313402Y507009D01*
X311751Y508149D02*
X313460Y510621D01*
X315111Y509480D01*
X317471Y507840D01*
X343752Y507751D02*
Y513290D01*
X335751Y514250D02*
X342751D01*
X334750Y507751D02*
Y513290D01*
X326851Y490651D02*
Y497151D01*
X327732Y490651D02*
X328251D01*
Y489899D02*
Y490651D01*
X329251Y488901D02*
X331751D01*
X333742Y490651D02*
X341250D01*
X342251Y491650D02*
Y496150D01*
X333742Y497151D02*
X341250D01*
X329251Y498901D02*
X331751D01*
X328251Y497151D02*
Y497901D01*
X327732Y497151D02*
X328251D01*
X326851D02*
X327732D01*
X324560D02*
X326851D01*
X324560Y490651D02*
Y497151D01*
Y490651D02*
X326851D01*
X327732D01*
Y497151D01*
X363452Y486150D02*
Y487880D01*
X367750D01*
X363452Y484250D02*
X366980D01*
X367252Y475251D01*
Y465249D02*
Y475251D01*
X366980Y456250D02*
X367252Y465249D01*
X363452Y456250D02*
X366980D01*
X363452Y452620D02*
Y454350D01*
Y452620D02*
X367750D01*
Y432749D02*
Y452620D01*
X317750Y432749D02*
X367750D01*
X317750D02*
Y439849D01*
X314982D02*
X317750D01*
X313491D02*
X314982D01*
X313221Y439869D02*
X313491Y439849D01*
X312952Y439950D02*
X313221Y439869D01*
X312701Y440070D02*
X312952Y439950D01*
X312472Y440230D02*
X312701Y440070D01*
X312261Y440441D02*
X312472Y440230D01*
X312081Y440669D02*
X312261Y440441D01*
X311941Y440941D02*
X312081Y440669D01*
X311842Y441231D02*
X311941Y440941D01*
X311771Y441540D02*
X311842Y441231D01*
X311751Y441850D02*
X311771Y441540D01*
X311751Y441850D02*
Y498650D01*
X311771Y498960D01*
X311842Y499269D01*
X311941Y499559D01*
X312081Y499831D01*
X312261Y500060D01*
X312472Y500270D01*
X312701Y500430D01*
X312952Y500550D01*
X313221Y500621D01*
X313491Y500651D01*
X314982D01*
X317750D01*
Y504748D01*
Y507751D01*
X334750D01*
X340981D01*
X340991D01*
X343752D01*
X367750D01*
Y487880D02*
Y507751D01*
Y487199D02*
Y487880D01*
X362452D02*
X363452D01*
Y487199D02*
X367750D01*
X360951Y486150D02*
X362452D01*
X356752Y484250D02*
X363452D01*
X356752D02*
Y498149D01*
X357750Y499150D02*
X359231D01*
X360181Y498469D02*
X360412Y497799D01*
X361260Y495251D01*
X361951Y493151D01*
Y492831D02*
Y493151D01*
X362452Y487880D02*
Y491370D01*
Y486150D02*
Y487880D01*
Y486150D02*
X363452D01*
Y484250D02*
Y486150D01*
Y484499D02*
X367750D01*
Y482000D02*
Y484499D01*
X360951Y484250D02*
Y486150D01*
X367052Y482000D02*
X367750D01*
X367171Y478000D02*
X367750D01*
Y475500D02*
Y478000D01*
X363452Y464250D02*
Y476250D01*
X367252Y475500D02*
X367750D01*
Y469000D02*
Y471500D01*
X367252D02*
X367750D01*
X367252Y469000D02*
X367750D01*
X367252Y465000D02*
X367750D01*
Y462500D02*
Y465000D01*
X362952Y464250D02*
X363452D01*
X366671D01*
X366691Y464271D01*
X366711Y464350D01*
X366721Y464469D01*
X366742Y464629D01*
X366752Y464840D01*
X366762Y465071D01*
X366772Y465340D01*
X366782Y465630D01*
Y474870D01*
X366772Y475160D02*
X366782Y474870D01*
X366762Y475429D02*
X366772Y475160D01*
X366752Y475660D02*
X366762Y475429D01*
X366742Y475871D02*
X366752Y475660D01*
X366721Y476031D02*
X366742Y475871D01*
X366711Y476150D02*
X366721Y476031D01*
X366691Y476219D02*
X366711Y476150D01*
X366671Y476250D02*
X366691Y476219D01*
X363452Y476250D02*
X366671D01*
X362952D02*
X363452D01*
X360951Y466250D02*
Y474250D01*
X367171Y462500D02*
X367750D01*
X367052Y458500D02*
X367750D01*
Y456001D02*
Y458500D01*
X360951Y456250D02*
X363452D01*
Y454350D02*
Y456250D01*
Y456001D02*
X367750D01*
X360951Y454350D02*
Y456250D01*
X356752D02*
X360951D01*
X356752Y442351D02*
Y456250D01*
X357750Y441350D02*
X359231D01*
X360181Y442031D02*
X360412Y442701D01*
X361260Y445249D01*
X361951Y447349D01*
Y447669D01*
X362452Y449130D02*
Y454350D01*
X360951D02*
X362452D01*
X363452D01*
Y453301D02*
X367750D01*
X362452Y452620D02*
X363452D01*
X367750D02*
Y453301D01*
X328251Y449849D02*
Y450601D01*
X327732Y449849D02*
X328251D01*
X326851D02*
X327732D01*
X324560D02*
X326851D01*
X324560Y443349D02*
Y449849D01*
Y443349D02*
X326851D01*
X327732D01*
X328251D01*
Y442610D02*
Y443349D01*
Y442600D02*
Y442610D01*
X329251Y441599D02*
X331751D01*
X333742Y443349D02*
X341250D01*
X342251Y444350D02*
Y448851D01*
X333742Y449849D02*
X341250D01*
X329251Y451599D02*
X331751D01*
X326851Y443349D02*
Y449849D01*
X327732Y443349D02*
Y449849D01*
X314702Y500621D02*
X314982Y500651D01*
X314440Y500550D02*
X314702Y500621D01*
X314192Y500430D02*
X314440Y500550D01*
X313950Y500270D02*
X314192Y500430D01*
X313752Y500060D02*
X313950Y500270D01*
X313572Y499831D02*
X313752Y500060D01*
X313432Y499559D02*
X313572Y499831D01*
X313320Y499269D02*
X313432Y499559D01*
X313262Y498960D02*
X313320Y499269D01*
X313242Y498650D02*
X313262Y498960D01*
X313242Y441850D02*
Y498650D01*
Y441850D02*
X313262Y441540D01*
X313320Y441231D01*
X313432Y440941D01*
X313572Y440669D01*
X313752Y440441D01*
X313950Y440230D01*
X314192Y440070D01*
X314440Y439950D01*
X314702Y439869D01*
X314982Y439849D01*
X315111Y431020D02*
X317471Y432661D01*
X313460Y429879D02*
X315111Y431020D01*
X311751Y432351D02*
X313460Y429879D01*
X311751Y432351D02*
X313402Y433491D01*
X315761Y435129D01*
X334750Y427210D02*
Y432749D01*
X335751Y426250D02*
X342751D01*
X343752Y427210D02*
Y432749D01*
X419002Y467001D02*
Y480001D01*
X390000D02*
X419002D01*
X390000Y467001D02*
Y480001D01*
Y467001D02*
X419002D01*
X567999Y343999D02*
Y360001D01*
Y343999D02*
X576001D01*
Y360001D01*
X567999D02*
X576001D01*
X568200Y355701D02*
Y358299D01*
Y355701D02*
X575800D01*
Y358299D01*
X568200D02*
X575800D01*
X568330Y355830D02*
Y358180D01*
Y355830D02*
X575681D01*
Y358180D01*
X568330D02*
X575681D01*
X471819Y520570D02*
X479170D01*
X471819D02*
Y522920D01*
X479170D01*
Y520570D02*
Y522920D01*
X471700Y520451D02*
X479300D01*
X471700D02*
Y523049D01*
X479300D01*
Y520451D02*
Y523049D01*
X471499Y518749D02*
X479501D01*
X471499D02*
Y534751D01*
X479501D01*
Y518749D02*
Y534751D01*
X553251Y310000D02*
Y330000D01*
X540749Y310000D02*
X553251D01*
X540749D02*
Y330000D01*
X553251D01*
X502000Y356749D02*
Y369251D01*
Y356749D02*
X522000D01*
Y369251D01*
X502000D02*
X522000D01*
X370251Y530000D02*
Y550000D01*
X357749Y530000D02*
X370251D01*
X357749D02*
Y550000D01*
X370251D01*
X536859Y503750D02*
Y511750D01*
Y503750D02*
X552859D01*
Y511750D01*
X536859D02*
X552859D01*
D127*
X616499Y523999D02*
Y554001D01*
X591501D02*
X616499D01*
X591501Y523999D02*
Y554001D01*
Y523999D02*
X616499D01*
D128*
X569201Y356699D02*
Y357301D01*
Y356699D02*
X574799D01*
Y357301D01*
X569201D02*
X574799D01*
X472701Y521449D02*
X478299D01*
X472701D02*
Y522051D01*
X478299D01*
Y521449D02*
Y522051D01*
D129*
X568700Y356201D02*
Y357799D01*
Y356201D02*
X575299D01*
Y357799D01*
X568700D02*
X575299D01*
X472201Y520951D02*
X478799D01*
X472201D02*
Y522549D01*
X478799D01*
Y520951D02*
Y522549D01*
D130*
X568449Y355950D02*
Y358050D01*
Y355950D02*
X575551D01*
Y358050D01*
X568449D02*
X575551D01*
X471949Y520700D02*
X479051D01*
X471949D02*
Y522800D01*
X479051D01*
Y520700D02*
Y522800D01*
M02*
