G04*
G04 #@! TF.GenerationSoftware,Altium Limited,Altium Designer,20.2.8 (258)*
G04*
G04 Layer_Color=16711935*
%FSLAX44Y44*%
%MOMM*%
G71*
G04*
G04 #@! TF.SameCoordinates,AB2164AD-3A94-489E-A7C9-C1E693429951*
G04*
G04*
G04 #@! TF.FilePolarity,Positive*
G04*
G01*
G75*
%ADD10C,0.1270*%
%ADD11C,0.2000*%
%ADD13C,0.1524*%
%ADD14C,0.3000*%
%ADD127C,0.0000*%
%ADD131C,0.1000*%
%ADD132C,0.0254*%
G36*
X462049Y300460D02*
Y297459D01*
X456049D01*
Y300460D01*
X462049D01*
D02*
G37*
G36*
X462049Y308588D02*
Y305589D01*
X456049D01*
Y308588D01*
X462049D01*
D02*
G37*
G36*
X455701Y327912D02*
Y330911D01*
X461701D01*
Y327912D01*
X455701D01*
D02*
G37*
G36*
X462460Y351951D02*
X459459D01*
Y357951D01*
X462460D01*
Y351951D01*
D02*
G37*
G36*
X470588Y351951D02*
X467589D01*
Y357951D01*
X470588D01*
Y351951D01*
D02*
G37*
G36*
X461701Y336040D02*
X455701D01*
Y339041D01*
X461701D01*
Y336040D01*
D02*
G37*
G36*
X488799Y361210D02*
Y358209D01*
X482799D01*
Y361210D01*
X488799D01*
D02*
G37*
G36*
X488799Y369338D02*
Y366339D01*
X482799D01*
Y369338D01*
X488799D01*
D02*
G37*
G36*
X385951Y508412D02*
Y511411D01*
X391951D01*
Y508412D01*
X385951D01*
D02*
G37*
G36*
X385951Y516540D02*
Y519541D01*
X391951D01*
Y516540D01*
X385951D01*
D02*
G37*
G36*
X492299Y526460D02*
Y523459D01*
X486299D01*
Y526460D01*
X492299D01*
D02*
G37*
G36*
X492299Y534588D02*
Y531589D01*
X486299D01*
Y534588D01*
X492299D01*
D02*
G37*
G36*
X563951Y422540D02*
X557951D01*
Y425541D01*
X563951D01*
Y422540D01*
D02*
G37*
G36*
X545951D02*
X539951D01*
Y425541D01*
X545951D01*
Y422540D01*
D02*
G37*
G36*
X563951Y414412D02*
X557951D01*
Y417411D01*
X563951D01*
Y414412D01*
D02*
G37*
G36*
X545951D02*
X539951D01*
Y417411D01*
X545951D01*
Y414412D01*
D02*
G37*
G36*
X575049Y319589D02*
X569049D01*
Y322588D01*
X575049D01*
Y319589D01*
D02*
G37*
G36*
X575049Y311459D02*
X569049D01*
Y314460D01*
X575049D01*
Y311459D01*
D02*
G37*
G36*
X665951Y550290D02*
X659951D01*
Y553291D01*
X665951D01*
Y550290D01*
D02*
G37*
G36*
X650701D02*
X644701D01*
Y553291D01*
X650701D01*
Y550290D01*
D02*
G37*
G36*
X665951Y542162D02*
X659951D01*
Y545161D01*
X665951D01*
Y542162D01*
D02*
G37*
G36*
X650701D02*
X644701D01*
Y545161D01*
X650701D01*
Y542162D01*
D02*
G37*
G36*
X751460Y517951D02*
X748459D01*
Y523951D01*
X751460D01*
Y517951D01*
D02*
G37*
G36*
X759588Y517951D02*
X756589D01*
Y523951D01*
X759588D01*
Y517951D01*
D02*
G37*
D10*
X779460Y251754D02*
G03*
X779460Y216246I-23560J-17753D01*
G01*
X422690Y369070D02*
G03*
X379810Y369070I-21440J15577D01*
G01*
X779500Y216300D02*
Y251700D01*
X533450Y439550D02*
X544050D01*
X533450Y433950D02*
X544050D01*
X533450D02*
Y439550D01*
X544050Y433950D02*
Y439550D01*
X551050Y549950D02*
Y555550D01*
X540450Y549950D02*
Y555550D01*
Y549950D02*
X551050D01*
X540450Y555550D02*
X551050D01*
X604200Y511200D02*
X614800D01*
X604200Y516800D02*
X614800D01*
Y511200D02*
Y516800D01*
X604200Y511200D02*
Y516800D01*
X609200Y565550D02*
X619800D01*
X609200Y559950D02*
X619800D01*
X609200D02*
Y565550D01*
X619800Y559950D02*
Y565550D01*
X255670Y287000D02*
X311170D01*
X255670Y322000D02*
X311170D01*
X255670Y287000D02*
Y322000D01*
X311170Y341500D02*
X375670D01*
X311170Y322000D02*
Y341500D01*
Y287000D02*
Y322000D01*
Y267500D02*
Y287000D01*
Y267500D02*
X375670D01*
Y341500D01*
X505000Y132500D02*
X510000D01*
X440000D02*
X445000D01*
X460000Y42500D02*
X505000D01*
Y132500D01*
X460000Y42500D02*
Y112500D01*
X445000D02*
X460000D01*
X445000D02*
Y132500D01*
X510000D02*
Y182500D01*
X440000Y132500D02*
Y182500D01*
X412500D02*
X440000D01*
X510000D01*
X537500D01*
Y266500D01*
X412500D02*
X537500D01*
X412500Y182500D02*
Y266500D01*
X758700Y317700D02*
Y348300D01*
X789300D01*
Y317700D02*
Y348300D01*
X758700Y317700D02*
X789300D01*
X486700Y450700D02*
X492300D01*
X486700Y461300D02*
X492300D01*
X486700Y450700D02*
Y461300D01*
X492300Y450700D02*
Y461300D01*
X594700Y483800D02*
X605300D01*
X594700Y478200D02*
X605300D01*
X594700D02*
Y483800D01*
X605300Y478200D02*
Y483800D01*
X594700Y469800D02*
X605300D01*
X594700Y464200D02*
X605300D01*
X594700D02*
Y469800D01*
X605300Y464200D02*
Y469800D01*
X768700Y276200D02*
X779300D01*
X768700Y281800D02*
X779300D01*
Y276200D02*
Y281800D01*
X768700Y276200D02*
Y281800D01*
X800900Y324000D02*
Y342000D01*
X811100Y324000D02*
Y342000D01*
X800900Y324000D02*
X811100D01*
X800900Y342000D02*
X811100D01*
X788000Y370600D02*
X806000D01*
X788000Y360400D02*
X806000D01*
X788000D02*
Y370600D01*
X806000Y360400D02*
Y370600D01*
X768700Y295200D02*
X779300D01*
X768700Y300800D02*
X779300D01*
Y295200D02*
Y300800D01*
X768700Y295200D02*
Y300800D01*
X629600Y573000D02*
X710900D01*
X619450Y683000D02*
X642250D01*
X698250D01*
X721050D01*
X710900Y573000D02*
Y660500D01*
X698250Y683000D02*
Y714000D01*
X642250D02*
X698250D01*
X642250Y683000D02*
Y714000D01*
X721050Y660500D02*
Y683000D01*
X710900Y660500D02*
X721050D01*
X629600Y573000D02*
Y660500D01*
X619450D02*
Y683000D01*
Y660500D02*
X629600D01*
X630950Y502450D02*
X636550D01*
X630950Y513050D02*
X636550D01*
X630950Y502450D02*
Y513050D01*
X636550Y502450D02*
Y513050D01*
X758200Y393300D02*
X763800D01*
X758200Y382700D02*
X763800D01*
Y393300D01*
X758200Y382700D02*
Y393300D01*
X779200Y382700D02*
X784800D01*
X779200Y393300D02*
X784800D01*
X779200Y382700D02*
Y393300D01*
X784800Y382700D02*
Y393300D01*
X523200Y416700D02*
X528800D01*
X523200Y427300D02*
X528800D01*
X523200Y416700D02*
Y427300D01*
X528800Y416700D02*
Y427300D01*
X379810Y369070D02*
X422690D01*
D11*
X721832Y233800D02*
G03*
X721832Y233800I-1432J0D01*
G01*
X336500Y259500D02*
G03*
X336500Y259500I-1000J0D01*
G01*
X386420Y232500D02*
G03*
X386420Y232500I-1000J0D01*
G01*
X763000Y354000D02*
G03*
X763000Y354000I-1000J0D01*
G01*
X696750Y569500D02*
G03*
X696750Y569500I-1000J0D01*
G01*
D13*
X569760Y314550D02*
Y319450D01*
X574240Y314550D02*
Y319450D01*
X563240Y417550D02*
Y422450D01*
X558760Y417550D02*
Y422450D01*
X462550Y352760D02*
X467450D01*
X462550Y357240D02*
X467450D01*
X456510Y331050D02*
Y335950D01*
X460990Y331050D02*
Y335950D01*
X461240Y300550D02*
Y305450D01*
X456760Y300550D02*
Y305450D01*
X487990Y361300D02*
Y366200D01*
X483510Y361300D02*
Y366200D01*
X751550Y518760D02*
X756450D01*
X751550Y523240D02*
X756450D01*
X391240Y511550D02*
Y516450D01*
X386760Y511550D02*
Y516450D01*
X645510Y545300D02*
Y550200D01*
X649990Y545300D02*
Y550200D01*
X665240Y545300D02*
Y550200D01*
X660760Y545300D02*
Y550200D01*
X545240Y417550D02*
Y422450D01*
X540760Y417550D02*
Y422450D01*
X487010Y526550D02*
Y531450D01*
X491490Y526550D02*
Y531450D01*
D14*
X389250Y365000D02*
G03*
X389250Y365000I-1000J0D01*
G01*
D127*
X702444Y271500D02*
G03*
X702444Y271500I-59944J0D01*
G01*
D131*
X745997Y611308D02*
G03*
X745997Y640693I25003J14692D01*
G01*
X746000Y611310D02*
Y640691D01*
D132*
X573666Y265150D02*
Y277850D01*
X567316Y271500D02*
X580016D01*
X525190Y606000D02*
Y681946D01*
X466262Y606000D02*
X525190D01*
X466262D02*
Y681946D01*
X525190D01*
X455190Y606000D02*
Y681946D01*
X396262Y606000D02*
X455190D01*
X396262D02*
Y681946D01*
X455190D01*
M02*
