G04*
G04 #@! TF.GenerationSoftware,Altium Limited,Altium Designer,20.2.8 (258)*
G04*
G04 Layer_Color=2752767*
%FSLAX44Y44*%
%MOMM*%
G71*
G04*
G04 #@! TF.SameCoordinates,AB2164AD-3A94-489E-A7C9-C1E693429951*
G04*
G04*
G04 #@! TF.FilePolarity,Positive*
G04*
G01*
G75*
%ADD136C,0.0677*%
%ADD137C,0.0339*%
D136*
X481532Y460250D02*
G03*
X481532Y460250I-2032J0D01*
G01*
X460032Y405500D02*
G03*
X460032Y405500I-2032J0D01*
G01*
X762782Y279000D02*
G03*
X762782Y279000I-2032J0D01*
G01*
X477532Y507250D02*
G03*
X477532Y507250I-2032J0D01*
G01*
X563282Y359750D02*
G03*
X563282Y359750I-2032J0D01*
G01*
X573782Y370000D02*
G03*
X573782Y370000I-2032J0D01*
G01*
X584282Y360000D02*
G03*
X584282Y360000I-2032J0D01*
G01*
X524282Y376250D02*
G03*
X524282Y376250I-2032J0D01*
G01*
X460782Y436000D02*
G03*
X460782Y436000I-2032J0D01*
G01*
X472282Y446000D02*
G03*
X472282Y446000I-2032J0D01*
G01*
X484532Y436250D02*
G03*
X484532Y436250I-2032J0D01*
G01*
X379532Y520250D02*
G03*
X379532Y520250I-2032J0D01*
G01*
X391282Y530500D02*
G03*
X391282Y530500I-2032J0D01*
G01*
X401782Y520500D02*
G03*
X401782Y520500I-2032J0D01*
G01*
X381782Y457000D02*
G03*
X381782Y457000I-2032J0D01*
G01*
X472532Y296500D02*
G03*
X472532Y296500I-2032J0D01*
G01*
X461032Y286500D02*
G03*
X461032Y286500I-2032J0D01*
G01*
X450282Y296500D02*
G03*
X450282Y296500I-2032J0D01*
G01*
X531532Y327500D02*
G03*
X531532Y327500I-2032J0D01*
G01*
X536282Y333250D02*
G03*
X536282Y333250I-2032J0D01*
G01*
X562032Y330250D02*
G03*
X562032Y330250I-2032J0D01*
G01*
X549032Y341250D02*
G03*
X549032Y341250I-2032J0D01*
G01*
X528032Y336250D02*
G03*
X528032Y336250I-2032J0D01*
G01*
X515532Y344500D02*
G03*
X515532Y344500I-2032J0D01*
G01*
X524282Y350000D02*
G03*
X524282Y350000I-2032J0D01*
G01*
X535032Y363250D02*
G03*
X535032Y363250I-2032J0D01*
G01*
X528032Y408750D02*
G03*
X528032Y408750I-2032J0D01*
G01*
X528532Y436000D02*
G03*
X528532Y436000I-2032J0D01*
G01*
X540782Y562250D02*
G03*
X540782Y562250I-2032J0D01*
G01*
X672032Y440000D02*
G03*
X672032Y440000I-2032J0D01*
G01*
X671532Y477750D02*
G03*
X671532Y477750I-2032J0D01*
G01*
X379532Y550250D02*
G03*
X379532Y550250I-2032J0D01*
G01*
X352282D02*
G03*
X352282Y550250I-2032J0D01*
G01*
X366282Y561000D02*
G03*
X366282Y561000I-2032J0D01*
G01*
X771782Y307000D02*
G03*
X771782Y307000I-2032J0D01*
G01*
Y270750D02*
G03*
X771782Y270750I-2032J0D01*
G01*
X763782Y298000D02*
G03*
X763782Y298000I-2032J0D01*
G01*
X784282Y375750D02*
G03*
X784282Y375750I-2032J0D01*
G01*
X763282Y375250D02*
G03*
X763282Y375250I-2032J0D01*
G01*
X754782Y383500D02*
G03*
X754782Y383500I-2032J0D01*
G01*
X614532Y467250D02*
G03*
X614532Y467250I-2032J0D01*
G01*
X606532Y458250D02*
G03*
X606532Y458250I-2032J0D01*
G01*
X606282Y489750D02*
G03*
X606282Y489750I-2032J0D01*
G01*
X607532Y505000D02*
G03*
X607532Y505000I-2032J0D01*
G01*
X620782Y571750D02*
G03*
X620782Y571750I-2032J0D01*
G01*
X732532Y430250D02*
G03*
X732532Y430250I-2032J0D01*
G01*
X754032Y443000D02*
G03*
X754032Y443000I-2032J0D01*
G01*
Y477750D02*
G03*
X754032Y477750I-2032J0D01*
G01*
X783282Y450000D02*
G03*
X783282Y450000I-2032J0D01*
G01*
X783532Y470000D02*
G03*
X783532Y470000I-2032J0D01*
G01*
X504532Y445500D02*
G03*
X504532Y445500I-2032J0D01*
G01*
X493032Y436000D02*
G03*
X493032Y436000I-2032J0D01*
G01*
X519782Y417500D02*
G03*
X519782Y417500I-2032J0D01*
G01*
X515032Y406000D02*
G03*
X515032Y406000I-2032J0D01*
G01*
X504032Y396250D02*
G03*
X504032Y396250I-2032J0D01*
G01*
X492532Y405750D02*
G03*
X492532Y405750I-2032J0D01*
G01*
X473032Y396500D02*
G03*
X473032Y396500I-2032J0D01*
G01*
X483532Y405750D02*
G03*
X483532Y405750I-2032J0D01*
G01*
X456532Y416500D02*
G03*
X456532Y416500I-2032J0D01*
G01*
Y425250D02*
G03*
X456532Y425250I-2032J0D01*
G01*
X478782Y417000D02*
G03*
X478782Y417000I-2032J0D01*
G01*
X478532Y425250D02*
G03*
X478532Y425250I-2032J0D01*
G01*
X722032Y433750D02*
G03*
X722032Y433750I-2032J0D01*
G01*
X627282Y503000D02*
G03*
X627282Y503000I-2032J0D01*
G01*
X773282Y383500D02*
G03*
X773282Y383500I-2032J0D01*
G01*
X771782Y288750D02*
G03*
X771782Y288750I-2032J0D01*
G01*
X733532Y443000D02*
G03*
X733532Y443000I-2032J0D01*
G01*
X745282Y434250D02*
G03*
X745282Y434250I-2032J0D01*
G01*
X733282Y477500D02*
G03*
X733282Y477500I-2032J0D01*
G01*
D137*
X480516Y460250D02*
G03*
X480516Y460250I-1016J0D01*
G01*
X459016Y405500D02*
G03*
X459016Y405500I-1016J0D01*
G01*
X761766Y279000D02*
G03*
X761766Y279000I-1016J0D01*
G01*
X476516Y507250D02*
G03*
X476516Y507250I-1016J0D01*
G01*
X562266Y359750D02*
G03*
X562266Y359750I-1016J0D01*
G01*
X572766Y370000D02*
G03*
X572766Y370000I-1016J0D01*
G01*
X583266Y360000D02*
G03*
X583266Y360000I-1016J0D01*
G01*
X523266Y376250D02*
G03*
X523266Y376250I-1016J0D01*
G01*
X459766Y436000D02*
G03*
X459766Y436000I-1016J0D01*
G01*
X471266Y446000D02*
G03*
X471266Y446000I-1016J0D01*
G01*
X483516Y436250D02*
G03*
X483516Y436250I-1016J0D01*
G01*
X378516Y520250D02*
G03*
X378516Y520250I-1016J0D01*
G01*
X390266Y530500D02*
G03*
X390266Y530500I-1016J0D01*
G01*
X400766Y520500D02*
G03*
X400766Y520500I-1016J0D01*
G01*
X380766Y457000D02*
G03*
X380766Y457000I-1016J0D01*
G01*
X471516Y296500D02*
G03*
X471516Y296500I-1016J0D01*
G01*
X460016Y286500D02*
G03*
X460016Y286500I-1016J0D01*
G01*
X449266Y296500D02*
G03*
X449266Y296500I-1016J0D01*
G01*
X530516Y327500D02*
G03*
X530516Y327500I-1016J0D01*
G01*
X535266Y333250D02*
G03*
X535266Y333250I-1016J0D01*
G01*
X561016Y330250D02*
G03*
X561016Y330250I-1016J0D01*
G01*
X548016Y341250D02*
G03*
X548016Y341250I-1016J0D01*
G01*
X527016Y336250D02*
G03*
X527016Y336250I-1016J0D01*
G01*
X514516Y344500D02*
G03*
X514516Y344500I-1016J0D01*
G01*
X523266Y350000D02*
G03*
X523266Y350000I-1016J0D01*
G01*
X534016Y363250D02*
G03*
X534016Y363250I-1016J0D01*
G01*
X527016Y408750D02*
G03*
X527016Y408750I-1016J0D01*
G01*
X527516Y436000D02*
G03*
X527516Y436000I-1016J0D01*
G01*
X539766Y562250D02*
G03*
X539766Y562250I-1016J0D01*
G01*
X671016Y440000D02*
G03*
X671016Y440000I-1016J0D01*
G01*
X670516Y477750D02*
G03*
X670516Y477750I-1016J0D01*
G01*
X378516Y550250D02*
G03*
X378516Y550250I-1016J0D01*
G01*
X351266D02*
G03*
X351266Y550250I-1016J0D01*
G01*
X365266Y561000D02*
G03*
X365266Y561000I-1016J0D01*
G01*
X770766Y307000D02*
G03*
X770766Y307000I-1016J0D01*
G01*
Y270750D02*
G03*
X770766Y270750I-1016J0D01*
G01*
X762766Y298000D02*
G03*
X762766Y298000I-1016J0D01*
G01*
X783266Y375750D02*
G03*
X783266Y375750I-1016J0D01*
G01*
X762266Y375250D02*
G03*
X762266Y375250I-1016J0D01*
G01*
X753766Y383500D02*
G03*
X753766Y383500I-1016J0D01*
G01*
X613516Y467250D02*
G03*
X613516Y467250I-1016J0D01*
G01*
X605516Y458250D02*
G03*
X605516Y458250I-1016J0D01*
G01*
X605266Y489750D02*
G03*
X605266Y489750I-1016J0D01*
G01*
X606516Y505000D02*
G03*
X606516Y505000I-1016J0D01*
G01*
X619766Y571750D02*
G03*
X619766Y571750I-1016J0D01*
G01*
X731516Y430250D02*
G03*
X731516Y430250I-1016J0D01*
G01*
X753016Y443000D02*
G03*
X753016Y443000I-1016J0D01*
G01*
Y477750D02*
G03*
X753016Y477750I-1016J0D01*
G01*
X782266Y450000D02*
G03*
X782266Y450000I-1016J0D01*
G01*
X782516Y470000D02*
G03*
X782516Y470000I-1016J0D01*
G01*
X503516Y445500D02*
G03*
X503516Y445500I-1016J0D01*
G01*
X492016Y436000D02*
G03*
X492016Y436000I-1016J0D01*
G01*
X518766Y417500D02*
G03*
X518766Y417500I-1016J0D01*
G01*
X514016Y406000D02*
G03*
X514016Y406000I-1016J0D01*
G01*
X503016Y396250D02*
G03*
X503016Y396250I-1016J0D01*
G01*
X491516Y405750D02*
G03*
X491516Y405750I-1016J0D01*
G01*
X472016Y396500D02*
G03*
X472016Y396500I-1016J0D01*
G01*
X482516Y405750D02*
G03*
X482516Y405750I-1016J0D01*
G01*
X455516Y416500D02*
G03*
X455516Y416500I-1016J0D01*
G01*
Y425250D02*
G03*
X455516Y425250I-1016J0D01*
G01*
X477766Y417000D02*
G03*
X477766Y417000I-1016J0D01*
G01*
X477516Y425250D02*
G03*
X477516Y425250I-1016J0D01*
G01*
X721016Y433750D02*
G03*
X721016Y433750I-1016J0D01*
G01*
X626266Y503000D02*
G03*
X626266Y503000I-1016J0D01*
G01*
X772266Y383500D02*
G03*
X772266Y383500I-1016J0D01*
G01*
X770766Y288750D02*
G03*
X770766Y288750I-1016J0D01*
G01*
X732516Y443000D02*
G03*
X732516Y443000I-1016J0D01*
G01*
X744266Y434250D02*
G03*
X744266Y434250I-1016J0D01*
G01*
X732266Y477500D02*
G03*
X732266Y477500I-1016J0D01*
G01*
M02*
