G04*
G04 #@! TF.GenerationSoftware,Altium Limited,Altium Designer,20.2.8 (258)*
G04*
G04 Layer_Color=128*
%FSLAX44Y44*%
%MOMM*%
G71*
G04*
G04 #@! TF.SameCoordinates,AB2164AD-3A94-489E-A7C9-C1E693429951*
G04*
G04*
G04 #@! TF.FilePolarity,Positive*
G04*
G01*
G75*
%ADD135C,0.0508*%
D135*
X624000Y511500D02*
X626000D01*
X625000Y510500D02*
Y512500D01*
X479250Y451500D02*
X481250D01*
X480250Y450500D02*
Y452500D01*
X447250Y340000D02*
X449250D01*
X448250Y339000D02*
Y341000D01*
X468250Y340000D02*
X470250D01*
X469250Y339000D02*
Y341000D01*
X447750Y355500D02*
X449750D01*
X448750Y354500D02*
Y356500D01*
X457750Y366000D02*
X459750D01*
X458750Y365000D02*
Y367000D01*
X535500Y403000D02*
X537500D01*
X536500Y402000D02*
Y404000D01*
X560250Y403500D02*
X562250D01*
X561250Y402500D02*
Y404500D01*
X570000Y413500D02*
X572000D01*
X571000Y412500D02*
Y414500D01*
X545000Y403000D02*
X547000D01*
X546000Y402000D02*
Y404000D01*
X551000Y434500D02*
X553000D01*
X552000Y433500D02*
Y435500D01*
X547000Y562250D02*
X549000D01*
X548000Y561250D02*
Y563250D01*
X770000Y520750D02*
X772000D01*
X771000Y519750D02*
Y521750D01*
X777500Y270750D02*
X779500D01*
X778500Y269750D02*
Y271750D01*
X785750Y279000D02*
X787750D01*
X786750Y278000D02*
Y280000D01*
X785500Y298000D02*
X787500D01*
X786500Y297000D02*
Y299000D01*
X790000Y392250D02*
X792000D01*
X791000Y391250D02*
Y393250D01*
X613000Y505750D02*
X615000D01*
X614000Y504750D02*
Y506750D01*
X609250Y571500D02*
X611250D01*
X610250Y570500D02*
Y572500D01*
X759500Y530750D02*
X761500D01*
X760500Y529750D02*
Y531750D01*
X560250Y317750D02*
X562250D01*
X561250Y316750D02*
Y318750D01*
X532750Y313250D02*
X534750D01*
X533750Y312250D02*
Y314250D01*
X751750Y392500D02*
X753750D01*
X752750Y391500D02*
Y393500D01*
X560250Y299750D02*
X562250D01*
X561250Y298750D02*
Y300750D01*
X488750Y445000D02*
X490750D01*
X489750Y444000D02*
Y446000D01*
M02*
