G04*
G04 #@! TF.GenerationSoftware,Altium Limited,Altium Designer,20.2.8 (258)*
G04*
G04 Layer_Color=2752767*
%FSLAX44Y44*%
%MOMM*%
G71*
G04*
G04 #@! TF.SameCoordinates,AB2164AD-3A94-489E-A7C9-C1E693429951*
G04*
G04*
G04 #@! TF.FilePolarity,Positive*
G04*
G01*
G75*
%ADD136C,0.0677*%
%ADD137C,0.0339*%
D136*
X627032Y511500D02*
G03*
X627032Y511500I-2032J0D01*
G01*
X482282Y451500D02*
G03*
X482282Y451500I-2032J0D01*
G01*
X450282Y340000D02*
G03*
X450282Y340000I-2032J0D01*
G01*
X471282D02*
G03*
X471282Y340000I-2032J0D01*
G01*
X450782Y355500D02*
G03*
X450782Y355500I-2032J0D01*
G01*
X460782Y366000D02*
G03*
X460782Y366000I-2032J0D01*
G01*
X538532Y403000D02*
G03*
X538532Y403000I-2032J0D01*
G01*
X563282Y403500D02*
G03*
X563282Y403500I-2032J0D01*
G01*
X573032Y413500D02*
G03*
X573032Y413500I-2032J0D01*
G01*
X548032Y403000D02*
G03*
X548032Y403000I-2032J0D01*
G01*
X554032Y434500D02*
G03*
X554032Y434500I-2032J0D01*
G01*
X550032Y562250D02*
G03*
X550032Y562250I-2032J0D01*
G01*
X773032Y520750D02*
G03*
X773032Y520750I-2032J0D01*
G01*
X780532Y270750D02*
G03*
X780532Y270750I-2032J0D01*
G01*
X788782Y279000D02*
G03*
X788782Y279000I-2032J0D01*
G01*
X788532Y298000D02*
G03*
X788532Y298000I-2032J0D01*
G01*
X793032Y392250D02*
G03*
X793032Y392250I-2032J0D01*
G01*
X616032Y505750D02*
G03*
X616032Y505750I-2032J0D01*
G01*
X612282Y571500D02*
G03*
X612282Y571500I-2032J0D01*
G01*
X762532Y530750D02*
G03*
X762532Y530750I-2032J0D01*
G01*
X563282Y317750D02*
G03*
X563282Y317750I-2032J0D01*
G01*
X535782Y313250D02*
G03*
X535782Y313250I-2032J0D01*
G01*
X754782Y392500D02*
G03*
X754782Y392500I-2032J0D01*
G01*
X563282Y299750D02*
G03*
X563282Y299750I-2032J0D01*
G01*
X491782Y445000D02*
G03*
X491782Y445000I-2032J0D01*
G01*
D137*
X626016Y511500D02*
G03*
X626016Y511500I-1016J0D01*
G01*
X481266Y451500D02*
G03*
X481266Y451500I-1016J0D01*
G01*
X449266Y340000D02*
G03*
X449266Y340000I-1016J0D01*
G01*
X470266D02*
G03*
X470266Y340000I-1016J0D01*
G01*
X449766Y355500D02*
G03*
X449766Y355500I-1016J0D01*
G01*
X459766Y366000D02*
G03*
X459766Y366000I-1016J0D01*
G01*
X537516Y403000D02*
G03*
X537516Y403000I-1016J0D01*
G01*
X562266Y403500D02*
G03*
X562266Y403500I-1016J0D01*
G01*
X572016Y413500D02*
G03*
X572016Y413500I-1016J0D01*
G01*
X547016Y403000D02*
G03*
X547016Y403000I-1016J0D01*
G01*
X553016Y434500D02*
G03*
X553016Y434500I-1016J0D01*
G01*
X549016Y562250D02*
G03*
X549016Y562250I-1016J0D01*
G01*
X772016Y520750D02*
G03*
X772016Y520750I-1016J0D01*
G01*
X779516Y270750D02*
G03*
X779516Y270750I-1016J0D01*
G01*
X787766Y279000D02*
G03*
X787766Y279000I-1016J0D01*
G01*
X787516Y298000D02*
G03*
X787516Y298000I-1016J0D01*
G01*
X792016Y392250D02*
G03*
X792016Y392250I-1016J0D01*
G01*
X615016Y505750D02*
G03*
X615016Y505750I-1016J0D01*
G01*
X611266Y571500D02*
G03*
X611266Y571500I-1016J0D01*
G01*
X761516Y530750D02*
G03*
X761516Y530750I-1016J0D01*
G01*
X562266Y317750D02*
G03*
X562266Y317750I-1016J0D01*
G01*
X534766Y313250D02*
G03*
X534766Y313250I-1016J0D01*
G01*
X753766Y392500D02*
G03*
X753766Y392500I-1016J0D01*
G01*
X562266Y299750D02*
G03*
X562266Y299750I-1016J0D01*
G01*
X490766Y445000D02*
G03*
X490766Y445000I-1016J0D01*
G01*
M02*
