G04*
G04 #@! TF.GenerationSoftware,Altium Limited,Altium Designer,20.2.8 (258)*
G04*
G04 Layer_Color=65535*
%FSLAX44Y44*%
%MOMM*%
G71*
G04*
G04 #@! TF.SameCoordinates,AB2164AD-3A94-489E-A7C9-C1E693429951*
G04*
G04*
G04 #@! TF.FilePolarity,Positive*
G04*
G01*
G75*
%ADD10C,0.1270*%
%ADD11C,0.2000*%
%ADD12C,0.2540*%
%ADD13C,0.1524*%
%ADD14C,0.3000*%
G36*
X378456Y654847D02*
X353544D01*
Y675153D01*
X378456D01*
Y654847D01*
D02*
G37*
G36*
X608347Y656184D02*
X570153D01*
Y676816D01*
X608347D01*
Y656184D01*
D02*
G37*
G36*
X394338Y187184D02*
X369663D01*
Y207816D01*
X394338D01*
Y187184D01*
D02*
G37*
G36*
X358000Y229847D02*
X314000D01*
Y250153D01*
X358000D01*
Y229847D01*
D02*
G37*
G36*
X519057Y579847D02*
X473443D01*
Y600153D01*
X519057D01*
Y579847D01*
D02*
G37*
G36*
X447750Y580097D02*
X403750D01*
Y600403D01*
X447750D01*
Y580097D01*
D02*
G37*
G36*
X348811Y528059D02*
X323751D01*
Y548558D01*
X348811D01*
Y528059D01*
D02*
G37*
%LPC*%
G36*
X366733Y670094D02*
X364660D01*
Y666066D01*
X360617D01*
Y670094D01*
X358544D01*
Y659847D01*
X360617D01*
Y664334D01*
X364660D01*
Y659847D01*
X366733D01*
Y670094D01*
D02*
G37*
G36*
X373456Y670153D02*
X371857D01*
X371709Y669813D01*
X371516Y669502D01*
X371309Y669205D01*
X371101Y668969D01*
X370924Y668776D01*
X370761Y668628D01*
X370702Y668569D01*
X370657Y668524D01*
X370628Y668510D01*
X370613Y668495D01*
X370287Y668258D01*
X369976Y668051D01*
X369695Y667888D01*
X369443Y667769D01*
X369236Y667680D01*
X369087Y667606D01*
X369028Y667591D01*
X368984Y667577D01*
X368969Y667562D01*
X368954D01*
Y665785D01*
X369487Y665992D01*
X369961Y666214D01*
X370183Y666333D01*
X370391Y666466D01*
X370583Y666584D01*
X370761Y666703D01*
X370924Y666821D01*
X371072Y666925D01*
X371190Y667014D01*
X371294Y667103D01*
X371383Y667177D01*
X371442Y667221D01*
X371472Y667251D01*
X371487Y667266D01*
Y659847D01*
X373456D01*
Y670153D01*
D02*
G37*
G36*
X579447Y671816D02*
X579269D01*
X578840Y671801D01*
X578455Y671757D01*
X578114Y671698D01*
X577818Y671638D01*
X577685Y671594D01*
X577566Y671564D01*
X577477Y671535D01*
X577389Y671505D01*
X577329Y671476D01*
X577285Y671461D01*
X577255Y671446D01*
X577241D01*
X576944Y671298D01*
X576693Y671135D01*
X576471Y670957D01*
X576293Y670794D01*
X576145Y670646D01*
X576056Y670528D01*
X575982Y670439D01*
X575967Y670424D01*
Y670409D01*
X575819Y670158D01*
X575715Y669891D01*
X575641Y669639D01*
X575597Y669417D01*
X575567Y669225D01*
X575538Y669077D01*
Y669017D01*
Y668973D01*
Y668958D01*
Y668943D01*
X575552Y668721D01*
X575582Y668499D01*
X575626Y668307D01*
X575686Y668114D01*
X575834Y667759D01*
X576012Y667448D01*
X576086Y667315D01*
X576174Y667211D01*
X576249Y667107D01*
X576323Y667018D01*
X576382Y666959D01*
X576426Y666915D01*
X576456Y666885D01*
X576471Y666870D01*
X576604Y666767D01*
X576767Y666663D01*
X576930Y666559D01*
X577122Y666470D01*
X577492Y666293D01*
X577877Y666145D01*
X578070Y666085D01*
X578233Y666026D01*
X578396Y665982D01*
X578529Y665937D01*
X578633Y665908D01*
X578721Y665878D01*
X578781Y665863D01*
X578796D01*
X579032Y665804D01*
X579240Y665745D01*
X579432Y665700D01*
X579610Y665656D01*
X579758Y665611D01*
X579891Y665582D01*
X580010Y665537D01*
X580113Y665508D01*
X580202Y665493D01*
X580276Y665463D01*
X580380Y665434D01*
X580439Y665404D01*
X580454D01*
X580647Y665330D01*
X580795Y665256D01*
X580928Y665182D01*
X581031Y665108D01*
X581105Y665049D01*
X581150Y665004D01*
X581180Y664975D01*
X581194Y664960D01*
X581268Y664856D01*
X581328Y664753D01*
X581357Y664649D01*
X581387Y664560D01*
X581402Y664471D01*
X581417Y664397D01*
Y664353D01*
Y664338D01*
X581402Y664131D01*
X581343Y663953D01*
X581254Y663775D01*
X581165Y663627D01*
X581061Y663509D01*
X580987Y663420D01*
X580928Y663361D01*
X580898Y663346D01*
X580691Y663213D01*
X580454Y663109D01*
X580202Y663035D01*
X579965Y662990D01*
X579743Y662961D01*
X579566Y662931D01*
X579403D01*
X579062Y662946D01*
X578766Y663005D01*
X578514Y663079D01*
X578292Y663168D01*
X578114Y663257D01*
X577996Y663331D01*
X577922Y663390D01*
X577892Y663405D01*
X577700Y663612D01*
X577552Y663835D01*
X577418Y664086D01*
X577329Y664338D01*
X577255Y664560D01*
X577196Y664738D01*
X577181Y664797D01*
Y664856D01*
X577167Y664886D01*
Y664901D01*
X575153Y664708D01*
X575197Y664397D01*
X575256Y664101D01*
X575345Y663820D01*
X575419Y663568D01*
X575523Y663331D01*
X575626Y663109D01*
X575730Y662916D01*
X575834Y662739D01*
X575938Y662591D01*
X576041Y662457D01*
X576130Y662339D01*
X576219Y662235D01*
X576278Y662161D01*
X576337Y662117D01*
X576367Y662087D01*
X576382Y662072D01*
X576589Y661909D01*
X576811Y661776D01*
X577048Y661658D01*
X577300Y661554D01*
X577537Y661480D01*
X577789Y661406D01*
X578277Y661302D01*
X578499Y661258D01*
X578707Y661228D01*
X578884Y661214D01*
X579047Y661199D01*
X579180Y661184D01*
X579373D01*
X579847Y661199D01*
X580276Y661243D01*
X580661Y661302D01*
X580824Y661332D01*
X580987Y661376D01*
X581120Y661406D01*
X581239Y661436D01*
X581343Y661465D01*
X581431Y661495D01*
X581505Y661525D01*
X581550Y661539D01*
X581579Y661554D01*
X581594D01*
X581920Y661717D01*
X582187Y661895D01*
X582438Y662072D01*
X582631Y662265D01*
X582779Y662428D01*
X582897Y662576D01*
X582957Y662665D01*
X582986Y662680D01*
Y662694D01*
X583149Y662990D01*
X583282Y663272D01*
X583371Y663553D01*
X583430Y663820D01*
X583460Y664027D01*
X583475Y664131D01*
X583490Y664205D01*
Y664353D01*
X583475Y664708D01*
X583430Y665019D01*
X583356Y665301D01*
X583282Y665537D01*
X583208Y665730D01*
X583134Y665863D01*
X583090Y665952D01*
X583075Y665982D01*
X582912Y666219D01*
X582720Y666426D01*
X582527Y666604D01*
X582349Y666752D01*
X582187Y666870D01*
X582053Y666959D01*
X581964Y667018D01*
X581950Y667033D01*
X581935D01*
X581787Y667107D01*
X581639Y667181D01*
X581283Y667315D01*
X580913Y667433D01*
X580558Y667551D01*
X580395Y667596D01*
X580232Y667640D01*
X580084Y667685D01*
X579965Y667714D01*
X579862Y667744D01*
X579788Y667759D01*
X579728Y667774D01*
X579714D01*
X579447Y667848D01*
X579210Y667907D01*
X578988Y667966D01*
X578781Y668025D01*
X578618Y668084D01*
X578455Y668144D01*
X578322Y668203D01*
X578203Y668247D01*
X578100Y668292D01*
X578025Y668336D01*
X577951Y668366D01*
X577907Y668395D01*
X577833Y668440D01*
X577818Y668455D01*
X577715Y668558D01*
X577640Y668662D01*
X577596Y668766D01*
X577566Y668869D01*
X577537Y668943D01*
X577522Y669017D01*
Y669062D01*
Y669077D01*
X577537Y669225D01*
X577566Y669343D01*
X577626Y669462D01*
X577685Y669550D01*
X577744Y669624D01*
X577803Y669669D01*
X577833Y669699D01*
X577848Y669713D01*
X578055Y669847D01*
X578277Y669936D01*
X578514Y670010D01*
X578736Y670054D01*
X578929Y670084D01*
X579092Y670098D01*
X579240D01*
X579551Y670084D01*
X579817Y670039D01*
X580039Y669980D01*
X580217Y669921D01*
X580365Y669862D01*
X580469Y669802D01*
X580528Y669758D01*
X580543Y669743D01*
X580691Y669595D01*
X580824Y669417D01*
X580928Y669240D01*
X581002Y669047D01*
X581061Y668884D01*
X581091Y668751D01*
X581120Y668647D01*
Y668632D01*
Y668618D01*
X583194Y668692D01*
X583179Y668958D01*
X583134Y669195D01*
X583075Y669432D01*
X583001Y669639D01*
X582927Y669847D01*
X582838Y670039D01*
X582749Y670202D01*
X582660Y670365D01*
X582557Y670498D01*
X582468Y670617D01*
X582379Y670720D01*
X582305Y670809D01*
X582246Y670868D01*
X582201Y670913D01*
X582172Y670943D01*
X582157Y670957D01*
X581964Y671105D01*
X581757Y671239D01*
X581535Y671357D01*
X581298Y671461D01*
X581061Y671535D01*
X580824Y671609D01*
X580350Y671712D01*
X580128Y671742D01*
X579936Y671772D01*
X579743Y671786D01*
X579580Y671801D01*
X579447Y671816D01*
D02*
G37*
G36*
X597691Y671624D02*
X595603D01*
X594033Y664456D01*
X592256Y671624D01*
X589768D01*
X587902Y664575D01*
X586362Y671624D01*
X584245D01*
X586673Y661376D01*
X588924D01*
X590968Y669032D01*
X592982Y661376D01*
X595218D01*
X597691Y671624D01*
D02*
G37*
G36*
X603348Y671683D02*
X601748D01*
X601600Y671342D01*
X601408Y671031D01*
X601200Y670735D01*
X600993Y670498D01*
X600815Y670306D01*
X600652Y670158D01*
X600593Y670098D01*
X600549Y670054D01*
X600519Y670039D01*
X600504Y670024D01*
X600178Y669787D01*
X599868Y669580D01*
X599586Y669417D01*
X599334Y669299D01*
X599127Y669210D01*
X598979Y669136D01*
X598920Y669121D01*
X598875Y669106D01*
X598861Y669091D01*
X598846D01*
Y667315D01*
X599379Y667522D01*
X599853Y667744D01*
X600075Y667862D01*
X600282Y667996D01*
X600475Y668114D01*
X600652Y668233D01*
X600815Y668351D01*
X600963Y668455D01*
X601082Y668543D01*
X601185Y668632D01*
X601274Y668706D01*
X601334Y668751D01*
X601363Y668781D01*
X601378Y668795D01*
Y661376D01*
X603348D01*
Y671683D01*
D02*
G37*
G36*
X378957Y202816D02*
X378779D01*
X378350Y202801D01*
X377965Y202757D01*
X377624Y202698D01*
X377328Y202638D01*
X377195Y202594D01*
X377076Y202564D01*
X376987Y202535D01*
X376899Y202505D01*
X376839Y202475D01*
X376795Y202461D01*
X376765Y202446D01*
X376750D01*
X376454Y202298D01*
X376203Y202135D01*
X375980Y201957D01*
X375803Y201794D01*
X375655Y201646D01*
X375566Y201528D01*
X375492Y201439D01*
X375477Y201424D01*
Y201409D01*
X375329Y201158D01*
X375225Y200891D01*
X375151Y200639D01*
X375107Y200417D01*
X375077Y200225D01*
X375048Y200077D01*
Y200017D01*
Y199973D01*
Y199958D01*
Y199943D01*
X375062Y199721D01*
X375092Y199499D01*
X375136Y199307D01*
X375196Y199114D01*
X375344Y198759D01*
X375521Y198448D01*
X375596Y198314D01*
X375684Y198211D01*
X375758Y198107D01*
X375832Y198018D01*
X375892Y197959D01*
X375936Y197915D01*
X375966Y197885D01*
X375980Y197870D01*
X376114Y197766D01*
X376277Y197663D01*
X376440Y197559D01*
X376632Y197470D01*
X377002Y197293D01*
X377387Y197145D01*
X377580Y197085D01*
X377743Y197026D01*
X377906Y196982D01*
X378039Y196937D01*
X378143Y196908D01*
X378231Y196878D01*
X378291Y196863D01*
X378305D01*
X378542Y196804D01*
X378750Y196745D01*
X378942Y196700D01*
X379120Y196656D01*
X379268Y196611D01*
X379401Y196582D01*
X379520Y196537D01*
X379623Y196508D01*
X379712Y196493D01*
X379786Y196463D01*
X379890Y196434D01*
X379949Y196404D01*
X379964D01*
X380156Y196330D01*
X380304Y196256D01*
X380438Y196182D01*
X380541Y196108D01*
X380615Y196049D01*
X380660Y196004D01*
X380690Y195975D01*
X380704Y195960D01*
X380778Y195856D01*
X380838Y195753D01*
X380867Y195649D01*
X380897Y195560D01*
X380912Y195471D01*
X380926Y195397D01*
Y195353D01*
Y195338D01*
X380912Y195131D01*
X380852Y194953D01*
X380764Y194775D01*
X380675Y194627D01*
X380571Y194509D01*
X380497Y194420D01*
X380438Y194361D01*
X380408Y194346D01*
X380201Y194213D01*
X379964Y194109D01*
X379712Y194035D01*
X379475Y193990D01*
X379253Y193961D01*
X379075Y193931D01*
X378913D01*
X378572Y193946D01*
X378276Y194005D01*
X378024Y194079D01*
X377802Y194168D01*
X377624Y194257D01*
X377506Y194331D01*
X377432Y194390D01*
X377402Y194405D01*
X377210Y194612D01*
X377062Y194834D01*
X376928Y195086D01*
X376839Y195338D01*
X376765Y195560D01*
X376706Y195738D01*
X376691Y195797D01*
Y195856D01*
X376676Y195886D01*
Y195901D01*
X374663Y195708D01*
X374707Y195397D01*
X374766Y195101D01*
X374855Y194820D01*
X374929Y194568D01*
X375033Y194331D01*
X375136Y194109D01*
X375240Y193916D01*
X375344Y193739D01*
X375447Y193591D01*
X375551Y193457D01*
X375640Y193339D01*
X375729Y193235D01*
X375788Y193161D01*
X375847Y193117D01*
X375877Y193087D01*
X375892Y193072D01*
X376099Y192909D01*
X376321Y192776D01*
X376558Y192658D01*
X376810Y192554D01*
X377047Y192480D01*
X377298Y192406D01*
X377787Y192302D01*
X378009Y192258D01*
X378217Y192228D01*
X378394Y192213D01*
X378557Y192199D01*
X378690Y192184D01*
X378883D01*
X379357Y192199D01*
X379786Y192243D01*
X380171Y192302D01*
X380334Y192332D01*
X380497Y192376D01*
X380630Y192406D01*
X380749Y192436D01*
X380852Y192465D01*
X380941Y192495D01*
X381015Y192524D01*
X381060Y192539D01*
X381089Y192554D01*
X381104D01*
X381430Y192717D01*
X381696Y192895D01*
X381948Y193072D01*
X382141Y193265D01*
X382289Y193428D01*
X382407Y193576D01*
X382467Y193665D01*
X382496Y193680D01*
Y193694D01*
X382659Y193990D01*
X382792Y194272D01*
X382881Y194553D01*
X382940Y194820D01*
X382970Y195027D01*
X382985Y195131D01*
X383000Y195205D01*
Y195353D01*
X382985Y195708D01*
X382940Y196019D01*
X382866Y196301D01*
X382792Y196537D01*
X382718Y196730D01*
X382644Y196863D01*
X382600Y196952D01*
X382585Y196982D01*
X382422Y197219D01*
X382229Y197426D01*
X382037Y197604D01*
X381859Y197752D01*
X381696Y197870D01*
X381563Y197959D01*
X381474Y198018D01*
X381460Y198033D01*
X381445D01*
X381297Y198107D01*
X381148Y198181D01*
X380793Y198314D01*
X380423Y198433D01*
X380067Y198551D01*
X379905Y198596D01*
X379742Y198640D01*
X379594Y198685D01*
X379475Y198714D01*
X379372Y198744D01*
X379297Y198759D01*
X379238Y198773D01*
X379224D01*
X378957Y198848D01*
X378720Y198907D01*
X378498Y198966D01*
X378291Y199025D01*
X378128Y199084D01*
X377965Y199144D01*
X377831Y199203D01*
X377713Y199247D01*
X377609Y199292D01*
X377535Y199336D01*
X377461Y199366D01*
X377417Y199395D01*
X377343Y199440D01*
X377328Y199455D01*
X377224Y199558D01*
X377150Y199662D01*
X377106Y199766D01*
X377076Y199869D01*
X377047Y199943D01*
X377032Y200017D01*
Y200062D01*
Y200077D01*
X377047Y200225D01*
X377076Y200343D01*
X377136Y200462D01*
X377195Y200550D01*
X377254Y200625D01*
X377313Y200669D01*
X377343Y200699D01*
X377358Y200713D01*
X377565Y200847D01*
X377787Y200935D01*
X378024Y201010D01*
X378246Y201054D01*
X378439Y201084D01*
X378601Y201098D01*
X378750D01*
X379061Y201084D01*
X379327Y201039D01*
X379549Y200980D01*
X379727Y200921D01*
X379875Y200861D01*
X379979Y200802D01*
X380038Y200758D01*
X380053Y200743D01*
X380201Y200595D01*
X380334Y200417D01*
X380438Y200240D01*
X380512Y200047D01*
X380571Y199884D01*
X380601Y199751D01*
X380630Y199647D01*
Y199632D01*
Y199618D01*
X382703Y199692D01*
X382689Y199958D01*
X382644Y200195D01*
X382585Y200432D01*
X382511Y200639D01*
X382437Y200847D01*
X382348Y201039D01*
X382259Y201202D01*
X382170Y201365D01*
X382067Y201498D01*
X381978Y201617D01*
X381889Y201720D01*
X381815Y201809D01*
X381756Y201868D01*
X381711Y201913D01*
X381682Y201942D01*
X381667Y201957D01*
X381474Y202105D01*
X381267Y202239D01*
X381045Y202357D01*
X380808Y202461D01*
X380571Y202535D01*
X380334Y202609D01*
X379860Y202712D01*
X379638Y202742D01*
X379446Y202772D01*
X379253Y202787D01*
X379090Y202801D01*
X378957Y202816D01*
D02*
G37*
G36*
X389338Y202683D02*
X387738D01*
X387590Y202342D01*
X387398Y202031D01*
X387190Y201735D01*
X386983Y201498D01*
X386805Y201306D01*
X386642Y201158D01*
X386583Y201098D01*
X386539Y201054D01*
X386509Y201039D01*
X386494Y201024D01*
X386169Y200787D01*
X385858Y200580D01*
X385576Y200417D01*
X385325Y200299D01*
X385117Y200210D01*
X384969Y200136D01*
X384910Y200121D01*
X384865Y200106D01*
X384851Y200091D01*
X384836D01*
Y198314D01*
X385369Y198522D01*
X385843Y198744D01*
X386065Y198862D01*
X386272Y198996D01*
X386465Y199114D01*
X386642Y199233D01*
X386805Y199351D01*
X386953Y199455D01*
X387072Y199543D01*
X387175Y199632D01*
X387264Y199706D01*
X387324Y199751D01*
X387353Y199780D01*
X387368Y199795D01*
Y192376D01*
X389338D01*
Y202683D01*
D02*
G37*
G36*
X346232Y245094D02*
X344322D01*
Y238193D01*
X340087Y245094D01*
X338088D01*
Y234847D01*
X339998D01*
Y241599D01*
X344159Y234847D01*
X346232D01*
Y245094D01*
D02*
G37*
G36*
X353000Y245153D02*
X351400D01*
X351252Y244813D01*
X351060Y244502D01*
X350853Y244205D01*
X350645Y243969D01*
X350468Y243776D01*
X350305Y243628D01*
X350246Y243569D01*
X350201Y243524D01*
X350171Y243510D01*
X350157Y243495D01*
X349831Y243258D01*
X349520Y243050D01*
X349239Y242888D01*
X348987Y242769D01*
X348779Y242680D01*
X348631Y242606D01*
X348572Y242591D01*
X348528Y242577D01*
X348513Y242562D01*
X348498D01*
Y240785D01*
X349031Y240992D01*
X349505Y241214D01*
X349727Y241333D01*
X349935Y241466D01*
X350127Y241584D01*
X350305Y241703D01*
X350468Y241821D01*
X350616Y241925D01*
X350734Y242014D01*
X350838Y242103D01*
X350927Y242177D01*
X350986Y242221D01*
X351016Y242251D01*
X351030Y242266D01*
Y234847D01*
X353000D01*
Y245153D01*
D02*
G37*
G36*
X336740Y245094D02*
X328611D01*
Y243361D01*
X331646D01*
Y234847D01*
X333719D01*
Y243361D01*
X336740D01*
Y245094D01*
D02*
G37*
G36*
X323502D02*
X319000D01*
Y234847D01*
X323443D01*
X323694Y234862D01*
X324139D01*
X324316Y234876D01*
X324598D01*
X324701Y234891D01*
X324849D01*
X324909Y234906D01*
X324968D01*
X325264Y234950D01*
X325531Y235024D01*
X325768Y235098D01*
X325975Y235187D01*
X326138Y235261D01*
X326256Y235335D01*
X326330Y235380D01*
X326360Y235395D01*
X326567Y235557D01*
X326730Y235735D01*
X326893Y235898D01*
X327011Y236076D01*
X327115Y236224D01*
X327189Y236342D01*
X327234Y236416D01*
X327248Y236446D01*
X327352Y236698D01*
X327441Y236935D01*
X327500Y237172D01*
X327530Y237379D01*
X327559Y237557D01*
X327574Y237690D01*
Y237808D01*
X327559Y238134D01*
X327500Y238430D01*
X327411Y238682D01*
X327322Y238919D01*
X327234Y239097D01*
X327145Y239230D01*
X327085Y239319D01*
X327071Y239348D01*
X326863Y239585D01*
X326641Y239778D01*
X326390Y239941D01*
X326167Y240059D01*
X325960Y240163D01*
X325782Y240237D01*
X325723Y240252D01*
X325679Y240267D01*
X325649Y240281D01*
X325634D01*
X325871Y240415D01*
X326078Y240548D01*
X326256Y240711D01*
X326404Y240844D01*
X326508Y240977D01*
X326597Y241081D01*
X326656Y241155D01*
X326671Y241185D01*
X326804Y241422D01*
X326908Y241644D01*
X326967Y241866D01*
X327026Y242073D01*
X327056Y242251D01*
X327071Y242384D01*
Y242473D01*
Y242488D01*
Y242503D01*
X327056Y242740D01*
X327026Y242976D01*
X326967Y243169D01*
X326908Y243347D01*
X326848Y243495D01*
X326789Y243613D01*
X326760Y243672D01*
X326745Y243702D01*
X326626Y243895D01*
X326493Y244057D01*
X326360Y244205D01*
X326241Y244339D01*
X326123Y244428D01*
X326034Y244502D01*
X325975Y244546D01*
X325960Y244561D01*
X325782Y244679D01*
X325590Y244768D01*
X325412Y244842D01*
X325249Y244902D01*
X325101Y244946D01*
X324997Y244976D01*
X324924Y244990D01*
X324894D01*
X324642Y245020D01*
X324361Y245050D01*
X324065Y245064D01*
X323768Y245079D01*
X323502Y245094D01*
D02*
G37*
%LPD*%
G36*
X323295Y243376D02*
X323680D01*
X323768Y243361D01*
X323931D01*
X323991Y243347D01*
X324005D01*
X324183Y243317D01*
X324346Y243273D01*
X324479Y243213D01*
X324598Y243154D01*
X324672Y243095D01*
X324746Y243036D01*
X324775Y243006D01*
X324790Y242991D01*
X324879Y242873D01*
X324938Y242740D01*
X324997Y242621D01*
X325027Y242503D01*
X325042Y242384D01*
X325057Y242295D01*
Y242236D01*
Y242221D01*
X325042Y242043D01*
X325012Y241881D01*
X324953Y241747D01*
X324909Y241629D01*
X324849Y241525D01*
X324790Y241466D01*
X324761Y241422D01*
X324746Y241407D01*
X324627Y241303D01*
X324494Y241229D01*
X324361Y241170D01*
X324227Y241125D01*
X324094Y241081D01*
X324005Y241066D01*
X323946Y241051D01*
X323857D01*
X323768Y241037D01*
X323309D01*
X323058Y241022D01*
X321073D01*
Y243391D01*
X323132D01*
X323295Y243376D01*
D02*
G37*
G36*
X323428Y239304D02*
X323605Y239289D01*
X323783D01*
X323931Y239274D01*
X324065Y239260D01*
X324168Y239245D01*
X324272Y239230D01*
X324346Y239215D01*
X324464Y239200D01*
X324538Y239171D01*
X324553D01*
X324701Y239111D01*
X324835Y239037D01*
X324953Y238963D01*
X325042Y238875D01*
X325116Y238815D01*
X325160Y238756D01*
X325190Y238712D01*
X325205Y238697D01*
X325279Y238564D01*
X325338Y238430D01*
X325382Y238312D01*
X325412Y238179D01*
X325427Y238075D01*
X325442Y237986D01*
Y237927D01*
Y237912D01*
X325427Y237719D01*
X325397Y237542D01*
X325353Y237394D01*
X325294Y237275D01*
X325234Y237172D01*
X325190Y237098D01*
X325160Y237053D01*
X325146Y237038D01*
X325027Y236935D01*
X324909Y236846D01*
X324775Y236772D01*
X324657Y236713D01*
X324553Y236683D01*
X324464Y236653D01*
X324405Y236639D01*
X324390D01*
X324331Y236624D01*
X324242D01*
X324050Y236609D01*
X323813Y236594D01*
X323576D01*
X323354Y236579D01*
X321073D01*
Y239319D01*
X323220D01*
X323428Y239304D01*
D02*
G37*
%LPC*%
G36*
X510947Y595153D02*
X510799D01*
X510547Y595138D01*
X510310Y595124D01*
X509851Y595050D01*
X509466Y594931D01*
X509289Y594872D01*
X509126Y594798D01*
X508978Y594739D01*
X508859Y594665D01*
X508741Y594605D01*
X508652Y594561D01*
X508578Y594502D01*
X508533Y594472D01*
X508504Y594457D01*
X508489Y594442D01*
X508326Y594294D01*
X508178Y594146D01*
X508045Y593969D01*
X507926Y593776D01*
X507749Y593391D01*
X507601Y593021D01*
X507556Y592828D01*
X507512Y592665D01*
X507467Y592517D01*
X507452Y592384D01*
X507423Y592266D01*
Y592192D01*
X507408Y592132D01*
Y592118D01*
X509363Y591925D01*
X509392Y592221D01*
X509451Y592473D01*
X509511Y592695D01*
X509585Y592858D01*
X509644Y592991D01*
X509703Y593080D01*
X509748Y593139D01*
X509762Y593154D01*
X509911Y593273D01*
X510074Y593361D01*
X510236Y593436D01*
X510399Y593480D01*
X510532Y593509D01*
X510651Y593524D01*
X510755D01*
X510977Y593509D01*
X511169Y593465D01*
X511332Y593406D01*
X511480Y593347D01*
X511584Y593287D01*
X511673Y593228D01*
X511717Y593184D01*
X511732Y593169D01*
X511851Y593021D01*
X511939Y592858D01*
X511998Y592695D01*
X512043Y592532D01*
X512073Y592384D01*
X512087Y592251D01*
Y592177D01*
Y592162D01*
Y592147D01*
X512073Y591925D01*
X512028Y591718D01*
X511954Y591510D01*
X511880Y591333D01*
X511806Y591170D01*
X511732Y591051D01*
X511688Y590977D01*
X511673Y590948D01*
X511614Y590859D01*
X511525Y590755D01*
X511406Y590622D01*
X511288Y590504D01*
X511021Y590222D01*
X510755Y589941D01*
X510488Y589674D01*
X510370Y589556D01*
X510251Y589467D01*
X510162Y589378D01*
X510103Y589319D01*
X510059Y589274D01*
X510044Y589260D01*
X509748Y588978D01*
X509481Y588712D01*
X509229Y588460D01*
X509007Y588238D01*
X508800Y588016D01*
X508622Y587808D01*
X508459Y587631D01*
X508326Y587453D01*
X508208Y587305D01*
X508104Y587172D01*
X508015Y587068D01*
X507956Y586964D01*
X507897Y586905D01*
X507867Y586846D01*
X507837Y586816D01*
Y586801D01*
X507645Y586461D01*
X507497Y586105D01*
X507378Y585780D01*
X507290Y585484D01*
X507230Y585217D01*
X507215Y585113D01*
X507201Y585024D01*
X507186Y584950D01*
X507171Y584891D01*
Y584847D01*
X514057D01*
Y586668D01*
X510148D01*
X510266Y586861D01*
X510399Y587024D01*
X510458Y587098D01*
X510503Y587157D01*
X510532Y587186D01*
X510547Y587201D01*
X510607Y587261D01*
X510666Y587335D01*
X510844Y587497D01*
X511036Y587690D01*
X511228Y587882D01*
X511421Y588060D01*
X511584Y588208D01*
X511643Y588267D01*
X511688Y588312D01*
X511717Y588327D01*
X511732Y588341D01*
X512058Y588652D01*
X512324Y588904D01*
X512546Y589141D01*
X512724Y589319D01*
X512857Y589467D01*
X512946Y589571D01*
X513005Y589645D01*
X513020Y589659D01*
X513213Y589911D01*
X513376Y590148D01*
X513509Y590370D01*
X513613Y590563D01*
X513702Y590726D01*
X513761Y590859D01*
X513790Y590933D01*
X513805Y590962D01*
X513894Y591199D01*
X513953Y591436D01*
X513998Y591659D01*
X514027Y591866D01*
X514042Y592029D01*
X514057Y592162D01*
Y592281D01*
X514042Y592503D01*
X514012Y592725D01*
X513983Y592932D01*
X513924Y593125D01*
X513775Y593465D01*
X513627Y593761D01*
X513539Y593895D01*
X513465Y593998D01*
X513391Y594102D01*
X513316Y594176D01*
X513257Y594235D01*
X513228Y594294D01*
X513198Y594309D01*
X513183Y594324D01*
X513020Y594472D01*
X512828Y594605D01*
X512650Y594709D01*
X512443Y594798D01*
X512058Y594946D01*
X511673Y595050D01*
X511495Y595079D01*
X511332Y595109D01*
X511184Y595124D01*
X511051Y595138D01*
X510947Y595153D01*
D02*
G37*
G36*
X506520Y595094D02*
X498390D01*
Y593361D01*
X501426D01*
Y584847D01*
X503499D01*
Y593361D01*
X506520D01*
Y595094D01*
D02*
G37*
G36*
X493888D02*
X491697D01*
X487728Y584847D01*
X489920D01*
X490764Y587172D01*
X494880D01*
X495769Y584847D01*
X498005D01*
X493888Y595094D01*
D02*
G37*
G36*
X482945D02*
X478443D01*
Y584847D01*
X482886D01*
X483137Y584861D01*
X483582D01*
X483759Y584876D01*
X484041D01*
X484144Y584891D01*
X484292D01*
X484352Y584906D01*
X484411D01*
X484707Y584950D01*
X484974Y585024D01*
X485210Y585098D01*
X485418Y585187D01*
X485581Y585261D01*
X485699Y585335D01*
X485773Y585380D01*
X485803Y585395D01*
X486010Y585558D01*
X486173Y585735D01*
X486336Y585898D01*
X486454Y586076D01*
X486558Y586224D01*
X486632Y586342D01*
X486676Y586416D01*
X486691Y586446D01*
X486795Y586698D01*
X486884Y586935D01*
X486943Y587172D01*
X486973Y587379D01*
X487002Y587557D01*
X487017Y587690D01*
Y587808D01*
X487002Y588134D01*
X486943Y588430D01*
X486854Y588682D01*
X486765Y588919D01*
X486676Y589097D01*
X486588Y589230D01*
X486528Y589319D01*
X486514Y589348D01*
X486306Y589585D01*
X486084Y589778D01*
X485832Y589941D01*
X485610Y590059D01*
X485403Y590163D01*
X485225Y590237D01*
X485166Y590252D01*
X485122Y590266D01*
X485092Y590281D01*
X485077D01*
X485314Y590415D01*
X485522Y590548D01*
X485699Y590711D01*
X485847Y590844D01*
X485951Y590977D01*
X486040Y591081D01*
X486099Y591155D01*
X486114Y591185D01*
X486247Y591422D01*
X486351Y591644D01*
X486410Y591866D01*
X486469Y592073D01*
X486499Y592251D01*
X486514Y592384D01*
Y592473D01*
Y592488D01*
Y592503D01*
X486499Y592739D01*
X486469Y592976D01*
X486410Y593169D01*
X486351Y593347D01*
X486292Y593495D01*
X486232Y593613D01*
X486203Y593672D01*
X486188Y593702D01*
X486069Y593895D01*
X485936Y594057D01*
X485803Y594206D01*
X485684Y594339D01*
X485566Y594428D01*
X485477Y594502D01*
X485418Y594546D01*
X485403Y594561D01*
X485225Y594679D01*
X485033Y594768D01*
X484855Y594842D01*
X484692Y594902D01*
X484544Y594946D01*
X484440Y594976D01*
X484366Y594990D01*
X484337D01*
X484085Y595020D01*
X483804Y595050D01*
X483508Y595064D01*
X483211Y595079D01*
X482945Y595094D01*
D02*
G37*
%LPD*%
G36*
X494214Y588904D02*
X491385D01*
X492777Y592710D01*
X494214Y588904D01*
D02*
G37*
G36*
X482738Y593376D02*
X483123D01*
X483211Y593361D01*
X483374D01*
X483433Y593347D01*
X483448D01*
X483626Y593317D01*
X483789Y593273D01*
X483922Y593213D01*
X484041Y593154D01*
X484115Y593095D01*
X484189Y593036D01*
X484218Y593006D01*
X484233Y592991D01*
X484322Y592873D01*
X484381Y592739D01*
X484440Y592621D01*
X484470Y592503D01*
X484485Y592384D01*
X484500Y592295D01*
Y592236D01*
Y592221D01*
X484485Y592043D01*
X484455Y591881D01*
X484396Y591747D01*
X484352Y591629D01*
X484292Y591525D01*
X484233Y591466D01*
X484204Y591422D01*
X484189Y591407D01*
X484070Y591303D01*
X483937Y591229D01*
X483804Y591170D01*
X483671Y591125D01*
X483537Y591081D01*
X483448Y591066D01*
X483389Y591051D01*
X483300D01*
X483211Y591037D01*
X482752D01*
X482501Y591022D01*
X480516D01*
Y593391D01*
X482575D01*
X482738Y593376D01*
D02*
G37*
G36*
X482871Y589304D02*
X483049Y589289D01*
X483226D01*
X483374Y589274D01*
X483508Y589260D01*
X483611Y589245D01*
X483715Y589230D01*
X483789Y589215D01*
X483907Y589200D01*
X483981Y589171D01*
X483996D01*
X484144Y589112D01*
X484278Y589038D01*
X484396Y588963D01*
X484485Y588875D01*
X484559Y588815D01*
X484603Y588756D01*
X484633Y588712D01*
X484648Y588697D01*
X484722Y588564D01*
X484781Y588430D01*
X484826Y588312D01*
X484855Y588179D01*
X484870Y588075D01*
X484885Y587986D01*
Y587927D01*
Y587912D01*
X484870Y587719D01*
X484840Y587542D01*
X484796Y587394D01*
X484737Y587275D01*
X484677Y587172D01*
X484633Y587098D01*
X484603Y587053D01*
X484589Y587038D01*
X484470Y586935D01*
X484352Y586846D01*
X484218Y586772D01*
X484100Y586713D01*
X483996Y586683D01*
X483907Y586653D01*
X483848Y586638D01*
X483833D01*
X483774Y586624D01*
X483685D01*
X483493Y586609D01*
X483256Y586594D01*
X483019D01*
X482797Y586579D01*
X480516D01*
Y589319D01*
X482663D01*
X482871Y589304D01*
D02*
G37*
%LPC*%
G36*
X442750Y595403D02*
X441151D01*
X441002Y595063D01*
X440810Y594752D01*
X440603Y594455D01*
X440395Y594219D01*
X440218Y594026D01*
X440055Y593878D01*
X439995Y593819D01*
X439951Y593774D01*
X439921Y593759D01*
X439907Y593745D01*
X439581Y593508D01*
X439270Y593301D01*
X438988Y593138D01*
X438737Y593019D01*
X438530Y592930D01*
X438381Y592856D01*
X438322Y592841D01*
X438278Y592827D01*
X438263Y592812D01*
X438248D01*
Y591035D01*
X438781Y591242D01*
X439255Y591464D01*
X439477Y591583D01*
X439684Y591716D01*
X439877Y591834D01*
X440055Y591953D01*
X440218Y592071D01*
X440366Y592175D01*
X440484Y592264D01*
X440588Y592353D01*
X440677Y592427D01*
X440736Y592471D01*
X440765Y592501D01*
X440780Y592516D01*
Y585097D01*
X442750D01*
Y595403D01*
D02*
G37*
G36*
X436827Y595344D02*
X428697D01*
Y593611D01*
X431732D01*
Y585097D01*
X433806D01*
Y593611D01*
X436827D01*
Y595344D01*
D02*
G37*
G36*
X424195D02*
X422004D01*
X418035Y585097D01*
X420227D01*
X421071Y587422D01*
X425187D01*
X426076Y585097D01*
X428312D01*
X424195Y595344D01*
D02*
G37*
G36*
X413252D02*
X408750D01*
Y585097D01*
X413193D01*
X413444Y585112D01*
X413889D01*
X414066Y585126D01*
X414348D01*
X414451Y585141D01*
X414599D01*
X414659Y585156D01*
X414718D01*
X415014Y585200D01*
X415281Y585274D01*
X415518Y585349D01*
X415725Y585437D01*
X415888Y585511D01*
X416006Y585585D01*
X416080Y585630D01*
X416110Y585645D01*
X416317Y585807D01*
X416480Y585985D01*
X416643Y586148D01*
X416761Y586326D01*
X416865Y586474D01*
X416939Y586592D01*
X416983Y586666D01*
X416998Y586696D01*
X417102Y586948D01*
X417191Y587185D01*
X417250Y587422D01*
X417280Y587629D01*
X417309Y587807D01*
X417324Y587940D01*
Y588058D01*
X417309Y588384D01*
X417250Y588680D01*
X417161Y588932D01*
X417072Y589169D01*
X416983Y589347D01*
X416895Y589480D01*
X416836Y589569D01*
X416821Y589598D01*
X416613Y589835D01*
X416391Y590028D01*
X416139Y590191D01*
X415917Y590309D01*
X415710Y590413D01*
X415532Y590487D01*
X415473Y590502D01*
X415429Y590517D01*
X415399Y590531D01*
X415384D01*
X415621Y590665D01*
X415829Y590798D01*
X416006Y590961D01*
X416154Y591094D01*
X416258Y591227D01*
X416347Y591331D01*
X416406Y591405D01*
X416421Y591435D01*
X416554Y591672D01*
X416658Y591894D01*
X416717Y592116D01*
X416776Y592323D01*
X416806Y592501D01*
X416821Y592634D01*
Y592723D01*
Y592738D01*
Y592753D01*
X416806Y592990D01*
X416776Y593226D01*
X416717Y593419D01*
X416658Y593597D01*
X416599Y593745D01*
X416539Y593863D01*
X416510Y593922D01*
X416495Y593952D01*
X416376Y594145D01*
X416243Y594307D01*
X416110Y594455D01*
X415991Y594589D01*
X415873Y594678D01*
X415784Y594752D01*
X415725Y594796D01*
X415710Y594811D01*
X415532Y594929D01*
X415340Y595018D01*
X415162Y595092D01*
X414999Y595151D01*
X414851Y595196D01*
X414748Y595226D01*
X414674Y595240D01*
X414644D01*
X414392Y595270D01*
X414111Y595300D01*
X413815Y595314D01*
X413518Y595329D01*
X413252Y595344D01*
D02*
G37*
%LPD*%
G36*
X424521Y589154D02*
X421693D01*
X423084Y592960D01*
X424521Y589154D01*
D02*
G37*
G36*
X413045Y593626D02*
X413430D01*
X413518Y593611D01*
X413681D01*
X413741Y593597D01*
X413755D01*
X413933Y593567D01*
X414096Y593523D01*
X414229Y593463D01*
X414348Y593404D01*
X414422Y593345D01*
X414496Y593286D01*
X414525Y593256D01*
X414540Y593241D01*
X414629Y593123D01*
X414688Y592990D01*
X414748Y592871D01*
X414777Y592753D01*
X414792Y592634D01*
X414807Y592545D01*
Y592486D01*
Y592471D01*
X414792Y592294D01*
X414762Y592131D01*
X414703Y591997D01*
X414659Y591879D01*
X414599Y591775D01*
X414540Y591716D01*
X414511Y591672D01*
X414496Y591657D01*
X414377Y591553D01*
X414244Y591479D01*
X414111Y591420D01*
X413978Y591375D01*
X413844Y591331D01*
X413755Y591316D01*
X413696Y591301D01*
X413607D01*
X413518Y591287D01*
X413059D01*
X412808Y591272D01*
X410823D01*
Y593641D01*
X412882D01*
X413045Y593626D01*
D02*
G37*
G36*
X413178Y589554D02*
X413355Y589539D01*
X413533D01*
X413681Y589524D01*
X413815Y589510D01*
X413918Y589495D01*
X414022Y589480D01*
X414096Y589465D01*
X414214Y589450D01*
X414288Y589421D01*
X414303D01*
X414451Y589361D01*
X414585Y589287D01*
X414703Y589213D01*
X414792Y589125D01*
X414866Y589065D01*
X414910Y589006D01*
X414940Y588962D01*
X414955Y588947D01*
X415029Y588814D01*
X415088Y588680D01*
X415132Y588562D01*
X415162Y588429D01*
X415177Y588325D01*
X415192Y588236D01*
Y588177D01*
Y588162D01*
X415177Y587970D01*
X415147Y587792D01*
X415103Y587644D01*
X415044Y587525D01*
X414984Y587422D01*
X414940Y587348D01*
X414910Y587303D01*
X414896Y587288D01*
X414777Y587185D01*
X414659Y587096D01*
X414525Y587022D01*
X414407Y586963D01*
X414303Y586933D01*
X414214Y586903D01*
X414155Y586889D01*
X414140D01*
X414081Y586874D01*
X413992D01*
X413800Y586859D01*
X413563Y586844D01*
X413326D01*
X413104Y586829D01*
X410823D01*
Y589569D01*
X412971D01*
X413178Y589554D01*
D02*
G37*
%LPC*%
G36*
X335311Y543498D02*
X333238D01*
Y536849D01*
Y536627D01*
X333223Y536420D01*
X333208Y536242D01*
X333194Y536065D01*
X333164Y535916D01*
X333149Y535783D01*
X333120Y535665D01*
X333090Y535561D01*
X333031Y535398D01*
X332986Y535295D01*
X332957Y535220D01*
X332942Y535206D01*
X332823Y535073D01*
X332675Y534984D01*
X332512Y534910D01*
X332350Y534865D01*
X332216Y534836D01*
X332098Y534821D01*
X331979D01*
X331742Y534850D01*
X331535Y534910D01*
X331357Y534998D01*
X331224Y535102D01*
X331106Y535191D01*
X331032Y535280D01*
X330987Y535339D01*
X330972Y535369D01*
X330898Y535532D01*
X330839Y535709D01*
X330795Y535916D01*
X330765Y536124D01*
X330736Y536316D01*
Y536464D01*
X330721Y536524D01*
Y536568D01*
Y536598D01*
Y536613D01*
X328751Y536390D01*
X328766Y536094D01*
X328781Y535813D01*
X328825Y535546D01*
X328884Y535309D01*
X328944Y535087D01*
X329003Y534880D01*
X329077Y534702D01*
X329166Y534525D01*
X329240Y534391D01*
X329314Y534258D01*
X329373Y534154D01*
X329432Y534066D01*
X329492Y533992D01*
X329536Y533947D01*
X329551Y533917D01*
X329566Y533903D01*
X329729Y533755D01*
X329906Y533621D01*
X330084Y533518D01*
X330276Y533414D01*
X330469Y533340D01*
X330661Y533266D01*
X331046Y533162D01*
X331224Y533133D01*
X331387Y533103D01*
X331520Y533088D01*
X331654Y533073D01*
X331757Y533059D01*
X331905D01*
X332364Y533088D01*
X332779Y533147D01*
X333134Y533221D01*
X333283Y533281D01*
X333430Y533325D01*
X333549Y533369D01*
X333667Y533429D01*
X333756Y533473D01*
X333830Y533503D01*
X333904Y533547D01*
X333949Y533562D01*
X333964Y533592D01*
X333979D01*
X334260Y533814D01*
X334482Y534051D01*
X334674Y534288D01*
X334823Y534510D01*
X334941Y534717D01*
X335015Y534880D01*
X335045Y534939D01*
X335060Y534984D01*
X335074Y535013D01*
Y535028D01*
X335148Y535309D01*
X335207Y535635D01*
X335252Y535961D01*
X335282Y536272D01*
X335296Y536553D01*
X335311Y536687D01*
Y543498D01*
D02*
G37*
G36*
X340435Y543558D02*
X340302D01*
X339991Y543543D01*
X339709Y543513D01*
X339443Y543454D01*
X339221Y543395D01*
X339043Y543335D01*
X338895Y543276D01*
X338806Y543247D01*
X338791Y543232D01*
X338776D01*
X338539Y543098D01*
X338317Y542950D01*
X338140Y542802D01*
X337991Y542669D01*
X337873Y542536D01*
X337784Y542432D01*
X337725Y542373D01*
X337710Y542343D01*
X337577Y542121D01*
X337458Y541884D01*
X337369Y541632D01*
X337281Y541396D01*
X337221Y541173D01*
X337177Y541011D01*
X337162Y540937D01*
Y540892D01*
X337147Y540863D01*
Y540848D01*
X338954Y540551D01*
X338998Y540788D01*
X339058Y540996D01*
X339117Y541173D01*
X339191Y541307D01*
X339265Y541425D01*
X339324Y541514D01*
X339369Y541558D01*
X339383Y541573D01*
X339517Y541692D01*
X339665Y541781D01*
X339813Y541840D01*
X339946Y541884D01*
X340065Y541914D01*
X340154Y541929D01*
X340242D01*
X340420Y541914D01*
X340598Y541884D01*
X340731Y541825D01*
X340849Y541781D01*
X340953Y541721D01*
X341012Y541662D01*
X341057Y541632D01*
X341072Y541618D01*
X341175Y541499D01*
X341249Y541351D01*
X341309Y541218D01*
X341338Y541085D01*
X341368Y540966D01*
X341383Y540877D01*
Y540818D01*
Y540788D01*
X341368Y540566D01*
X341323Y540374D01*
X341249Y540211D01*
X341175Y540078D01*
X341086Y539959D01*
X341027Y539885D01*
X340968Y539826D01*
X340953Y539811D01*
X340775Y539693D01*
X340583Y539604D01*
X340376Y539544D01*
X340183Y539500D01*
X340005Y539485D01*
X339857Y539470D01*
X339724D01*
X339517Y537886D01*
X339709Y537930D01*
X339872Y537975D01*
X340035Y538004D01*
X340168Y538019D01*
X340272Y538034D01*
X340420D01*
X340627Y538019D01*
X340805Y537960D01*
X340968Y537901D01*
X341116Y537812D01*
X341220Y537738D01*
X341309Y537664D01*
X341368Y537605D01*
X341383Y537590D01*
X341516Y537412D01*
X341619Y537220D01*
X341693Y537027D01*
X341753Y536835D01*
X341782Y536657D01*
X341797Y536524D01*
Y536435D01*
Y536420D01*
Y536405D01*
X341782Y536124D01*
X341738Y535872D01*
X341664Y535650D01*
X341590Y535472D01*
X341501Y535339D01*
X341442Y535235D01*
X341383Y535161D01*
X341368Y535146D01*
X341205Y534998D01*
X341027Y534880D01*
X340864Y534806D01*
X340701Y534747D01*
X340553Y534717D01*
X340450Y534702D01*
X340376Y534687D01*
X340346D01*
X340139Y534702D01*
X339961Y534747D01*
X339798Y534806D01*
X339650Y534880D01*
X339546Y534939D01*
X339458Y534998D01*
X339398Y535043D01*
X339383Y535058D01*
X339250Y535220D01*
X339132Y535398D01*
X339058Y535591D01*
X338984Y535768D01*
X338939Y535931D01*
X338910Y536065D01*
X338895Y536153D01*
Y536168D01*
Y536183D01*
X336999Y535946D01*
X337029Y535709D01*
X337088Y535487D01*
X337221Y535073D01*
X337384Y534717D01*
X337488Y534569D01*
X337577Y534421D01*
X337666Y534288D01*
X337755Y534184D01*
X337829Y534080D01*
X337903Y534006D01*
X337962Y533947D01*
X338006Y533903D01*
X338036Y533873D01*
X338051Y533858D01*
X338228Y533725D01*
X338421Y533592D01*
X338599Y533488D01*
X338806Y533399D01*
X339191Y533251D01*
X339546Y533162D01*
X339724Y533133D01*
X339872Y533103D01*
X340005Y533088D01*
X340124Y533073D01*
X340228Y533059D01*
X340361D01*
X340627Y533073D01*
X340894Y533103D01*
X341131Y533147D01*
X341368Y533207D01*
X341575Y533281D01*
X341782Y533355D01*
X341975Y533444D01*
X342138Y533532D01*
X342286Y533621D01*
X342434Y533710D01*
X342538Y533784D01*
X342641Y533858D01*
X342715Y533917D01*
X342775Y533962D01*
X342804Y533992D01*
X342819Y534006D01*
X342997Y534184D01*
X343145Y534376D01*
X343278Y534569D01*
X343396Y534762D01*
X343485Y534969D01*
X343574Y535161D01*
X343693Y535517D01*
X343722Y535680D01*
X343752Y535843D01*
X343782Y535976D01*
X343796Y536094D01*
X343811Y536183D01*
Y536316D01*
X343782Y536657D01*
X343722Y536953D01*
X343648Y537234D01*
X343545Y537457D01*
X343441Y537649D01*
X343367Y537782D01*
X343308Y537871D01*
X343278Y537901D01*
X343071Y538123D01*
X342834Y538316D01*
X342597Y538464D01*
X342375Y538582D01*
X342182Y538671D01*
X342019Y538715D01*
X341960Y538745D01*
X341916D01*
X341886Y538760D01*
X341871D01*
X342138Y538923D01*
X342360Y539086D01*
X342552Y539263D01*
X342730Y539441D01*
X342878Y539619D01*
X342997Y539796D01*
X343086Y539974D01*
X343174Y540137D01*
X343234Y540300D01*
X343278Y540448D01*
X343308Y540581D01*
X343322Y540700D01*
X343337Y540788D01*
X343352Y540863D01*
Y540907D01*
Y540922D01*
X343337Y541099D01*
X343322Y541262D01*
X343234Y541588D01*
X343130Y541884D01*
X342997Y542136D01*
X342863Y542343D01*
X342745Y542491D01*
X342701Y542551D01*
X342656Y542595D01*
X342641Y542610D01*
X342626Y542625D01*
X342464Y542788D01*
X342271Y542936D01*
X342093Y543054D01*
X341901Y543158D01*
X341693Y543261D01*
X341501Y543335D01*
X341131Y543439D01*
X340968Y543484D01*
X340805Y543513D01*
X340672Y543528D01*
X340538Y543543D01*
X340435Y543558D01*
D02*
G37*
%LPD*%
D10*
X779460Y251754D02*
G03*
X779460Y216246I-23560J-17753D01*
G01*
X422690Y369070D02*
G03*
X379810Y369070I-21440J15577D01*
G01*
X779500Y216300D02*
Y224000D01*
Y244000D02*
Y251700D01*
X255670Y287000D02*
X311170D01*
X255670Y322000D02*
X311170D01*
X255670Y287000D02*
Y322000D01*
X311170D02*
Y341500D01*
Y287000D02*
Y322000D01*
Y267500D02*
Y287000D01*
X375670Y267500D02*
Y341500D01*
X311170D02*
X347720D01*
X373620D02*
X375670D01*
X311170Y267500D02*
X347720D01*
X373620D02*
X375670D01*
X505000Y132500D02*
X510000D01*
X440000D02*
X445000D01*
X460000Y42500D02*
X505000D01*
Y132500D01*
X460000Y42500D02*
Y112500D01*
X445000D02*
X460000D01*
X445000D02*
Y132500D01*
X510000D02*
Y182500D01*
X440000Y132500D02*
Y182500D01*
X412500D02*
X440000D01*
X510000D01*
X537500D01*
Y203500D01*
X429280Y266500D02*
X520720D01*
X412500Y182500D02*
Y204000D01*
X505000Y132500D02*
X510000D01*
X440000D02*
X445000D01*
X460000Y42500D02*
X505000D01*
Y132500D01*
X460000Y42500D02*
Y112500D01*
X445000D02*
X460000D01*
X445000D02*
Y132500D01*
X510000D02*
Y182500D01*
X440000Y132500D02*
Y182500D01*
X412500D02*
X440000D01*
X510000D01*
X537500D01*
Y203500D01*
X430280Y266500D02*
X519720D01*
X412500Y182500D02*
Y204000D01*
X429780Y266500D02*
X520220D01*
X793000Y317900D02*
Y348500D01*
X755000Y317900D02*
Y348500D01*
X721050Y660500D02*
Y683000D01*
X698250D02*
X721050D01*
X698250D02*
Y714000D01*
X642250D02*
X698250D01*
X642250Y683000D02*
Y714000D01*
X619450Y683000D02*
X642250D01*
X619450Y660500D02*
Y683000D01*
X642250D02*
X698250D01*
X619450Y660500D02*
X629600D01*
Y573000D02*
Y660500D01*
X710900D02*
X721050D01*
X710900Y573000D02*
Y660500D01*
X706960Y573000D02*
X710900D01*
X629600D02*
X633540D01*
X420310Y369070D02*
X422690D01*
X379810D02*
X382250D01*
D11*
X721832Y233800D02*
G03*
X721832Y233800I-1432J0D01*
G01*
X744919Y610675D02*
G03*
X744920Y641326I26081J15325D01*
G01*
X336500Y259500D02*
G03*
X336500Y259500I-1000J0D01*
G01*
X386420Y232500D02*
G03*
X386420Y232500I-1000J0D01*
G01*
X763000Y354000D02*
G03*
X763000Y354000I-1000J0D01*
G01*
X696750Y569500D02*
G03*
X696750Y569500I-1000J0D01*
G01*
X744920Y610675D02*
Y641326D01*
D12*
X594000Y519000D02*
G03*
X594000Y519000I-500J0D01*
G01*
X681377Y405390D02*
G03*
X681377Y405390I-707J0D01*
G01*
X483618Y327500D02*
G03*
X483618Y327500I-1118J0D01*
G01*
X583868Y460999D02*
G03*
X583868Y460999I-1118J0D01*
G01*
X636958Y495500D02*
G03*
X636958Y495500I-707J0D01*
G01*
X379458Y483250D02*
G03*
X379458Y483250I-707J0D01*
G01*
X394501Y450501D02*
G03*
X394501Y450501I-500J0D01*
G01*
X583000Y363000D02*
G03*
X583000Y363000I-500J0D01*
G01*
X465500Y515750D02*
G03*
X465500Y515750I-500J0D01*
G01*
X530226Y606500D02*
G03*
X530226Y606500I-500J0D01*
G01*
X460226D02*
G03*
X460226Y606500I-500J0D01*
G01*
X322300Y648400D02*
X347700D01*
X322300Y673800D02*
X335000D01*
X322300Y572200D02*
Y673800D01*
Y572200D02*
X347700D01*
Y673800D01*
X335000D02*
X347700D01*
X600003Y503999D02*
X598003Y505998D01*
X594005D01*
X592005Y503999D01*
Y496001D01*
X594005Y494002D01*
X598003D01*
X600003Y496001D01*
X611999Y494002D02*
X604001D01*
X611999Y501999D01*
Y503999D01*
X609999Y505998D01*
X606001D01*
X604001Y503999D01*
X615997D02*
X617997Y505998D01*
X621996D01*
X623995Y503999D01*
Y501999D01*
X621996Y500000D01*
X619996D01*
X621996D01*
X623995Y498001D01*
Y496001D01*
X621996Y494002D01*
X617997D01*
X615997Y496001D01*
X789003Y239748D02*
Y227752D01*
X795001D01*
X797001Y229751D01*
Y237749D01*
X795001Y239748D01*
X789003D01*
X808997Y227752D02*
X800999D01*
X808997Y235749D01*
Y237749D01*
X806997Y239748D01*
X802999D01*
X800999Y237749D01*
X580002Y443499D02*
X578003Y445498D01*
X574004D01*
X572005Y443499D01*
Y435501D01*
X574004Y433502D01*
X578003D01*
X580002Y435501D01*
X584001Y433502D02*
X588000D01*
X586000D01*
Y445498D01*
X584001Y443499D01*
X601995Y445498D02*
X597996Y443499D01*
X593998Y439500D01*
Y435501D01*
X595997Y433502D01*
X599996D01*
X601995Y435501D01*
Y437501D01*
X599996Y439500D01*
X593998D01*
X543501Y570999D02*
X541501Y572998D01*
X537503D01*
X535503Y570999D01*
Y563001D01*
X537503Y561002D01*
X541501D01*
X543501Y563001D01*
X547499D02*
X549499Y561002D01*
X553497D01*
X555497Y563001D01*
Y570999D01*
X553497Y572998D01*
X549499D01*
X547499Y570999D01*
Y568999D01*
X549499Y567000D01*
X555497D01*
X610251Y581253D02*
X608252Y579253D01*
Y575255D01*
X610251Y573255D01*
X618249D01*
X620248Y575255D01*
Y579253D01*
X618249Y581253D01*
X620248Y593249D02*
Y585251D01*
X612251Y593249D01*
X610251D01*
X608252Y591249D01*
Y587251D01*
X610251Y585251D01*
X620248Y603246D02*
X608252D01*
X614250Y597247D01*
Y605245D01*
X562753Y558248D02*
Y548251D01*
X564753Y546252D01*
X568751D01*
X570751Y548251D01*
Y558248D01*
X574749Y556249D02*
X576749Y558248D01*
X580747D01*
X582747Y556249D01*
Y554249D01*
X580747Y552250D01*
X578748D01*
X580747D01*
X582747Y550251D01*
Y548251D01*
X580747Y546252D01*
X576749D01*
X574749Y548251D01*
X426754Y432752D02*
Y444748D01*
X432753D01*
X434752Y442749D01*
Y438750D01*
X432753Y436751D01*
X426754D01*
X438751Y444748D02*
Y432752D01*
X444749D01*
X446748Y434751D01*
Y436751D01*
X444749Y438750D01*
X438751D01*
X444749D01*
X446748Y440749D01*
Y442749D01*
X444749Y444748D01*
X438751D01*
X450747Y432752D02*
X454745D01*
X452746D01*
Y444748D01*
X450747Y442749D01*
X316540Y412536D02*
Y402539D01*
X318539Y400540D01*
X322538D01*
X324537Y402539D01*
Y412536D01*
X336534Y410537D02*
X334534Y412536D01*
X330536D01*
X328536Y410537D01*
Y408537D01*
X330536Y406538D01*
X334534D01*
X336534Y404539D01*
Y402539D01*
X334534Y400540D01*
X330536D01*
X328536Y402539D01*
X340532Y412536D02*
Y400540D01*
X346530D01*
X348530Y402539D01*
Y404539D01*
X346530Y406538D01*
X340532D01*
X346530D01*
X348530Y408537D01*
Y410537D01*
X346530Y412536D01*
X340532D01*
X398790Y415540D02*
Y427536D01*
X404788D01*
X406787Y425537D01*
Y421538D01*
X404788Y419539D01*
X398790D01*
X402789D02*
X406787Y415540D01*
X418783Y427536D02*
X410786D01*
Y415540D01*
X418783D01*
X410786Y421538D02*
X414785D01*
X430780Y425537D02*
X428780Y427536D01*
X424782D01*
X422782Y425537D01*
Y423537D01*
X424782Y421538D01*
X428780D01*
X430780Y419539D01*
Y417539D01*
X428780Y415540D01*
X424782D01*
X422782Y417539D01*
X442776Y427536D02*
X434778D01*
Y415540D01*
X442776D01*
X434778Y421538D02*
X438777D01*
X446774Y427536D02*
X454772D01*
X450773D01*
Y415540D01*
X581503Y323752D02*
Y335748D01*
X587501D01*
X589501Y333749D01*
Y329750D01*
X587501Y327751D01*
X581503D01*
X585502D02*
X589501Y323752D01*
X593499Y333749D02*
X595499Y335748D01*
X599497D01*
X601497Y333749D01*
Y331749D01*
X599497Y329750D01*
X597498D01*
X599497D01*
X601497Y327751D01*
Y325751D01*
X599497Y323752D01*
X595499D01*
X593499Y325751D01*
X634753Y201748D02*
Y191751D01*
X636753Y189752D01*
X640751D01*
X642751Y191751D01*
Y201748D01*
X654747D02*
X646749D01*
Y195750D01*
X650748Y197749D01*
X652747D01*
X654747Y195750D01*
Y191751D01*
X652747Y189752D01*
X648749D01*
X646749Y191751D01*
X512753Y548498D02*
Y538501D01*
X514752Y536502D01*
X518751D01*
X520750Y538501D01*
Y548498D01*
X524749Y536502D02*
X528747D01*
X526748D01*
Y548498D01*
X524749Y546499D01*
X459002Y459999D02*
X457003Y461998D01*
X453004D01*
X451005Y459999D01*
Y452001D01*
X453004Y450002D01*
X457003D01*
X459002Y452001D01*
X463001Y450002D02*
X467000D01*
X465000D01*
Y461998D01*
X463001Y459999D01*
X472998Y461998D02*
X480995D01*
Y459999D01*
X472998Y452001D01*
Y450002D01*
X544755Y383752D02*
Y395748D01*
X550753D01*
X552752Y393749D01*
Y389750D01*
X550753Y387751D01*
X544755D01*
X548754D02*
X552752Y383752D01*
X556751D02*
X560750D01*
X558750D01*
Y395748D01*
X556751Y393749D01*
X572746Y383752D02*
Y395748D01*
X566748Y389750D01*
X574745D01*
X496248Y545005D02*
X484252D01*
Y551003D01*
X486251Y553002D01*
X490250D01*
X492249Y551003D01*
Y545005D01*
Y549003D02*
X496248Y553002D01*
Y557001D02*
Y561000D01*
Y559000D01*
X484252D01*
X486251Y557001D01*
Y566998D02*
X484252Y568997D01*
Y572996D01*
X486251Y574995D01*
X488251D01*
X490250Y572996D01*
Y570996D01*
Y572996D01*
X492249Y574995D01*
X494249D01*
X496248Y572996D01*
Y568997D01*
X494249Y566998D01*
X742001Y386001D02*
X740002Y384001D01*
Y380003D01*
X742001Y378003D01*
X749999D01*
X751998Y380003D01*
Y384001D01*
X749999Y386001D01*
X751998Y395997D02*
X740002D01*
X746000Y389999D01*
Y397997D01*
X620001Y483999D02*
X618001Y485998D01*
X614003D01*
X612003Y483999D01*
Y476001D01*
X614003Y474002D01*
X618001D01*
X620001Y476001D01*
X623999Y485998D02*
X631997D01*
Y483999D01*
X623999Y476001D01*
Y474002D01*
X619501Y465999D02*
X617501Y467998D01*
X613503D01*
X611503Y465999D01*
Y458001D01*
X613503Y456002D01*
X617501D01*
X619501Y458001D01*
X631497Y467998D02*
X623499D01*
Y462000D01*
X627498Y463999D01*
X629497D01*
X631497Y462000D01*
Y458001D01*
X629497Y456002D01*
X625499D01*
X623499Y458001D01*
X756003Y531002D02*
Y542998D01*
X762001D01*
X764000Y540999D01*
Y537000D01*
X762001Y535001D01*
X756003D01*
X760001D02*
X764000Y531002D01*
X767999D02*
X771997D01*
X769998D01*
Y542998D01*
X767999Y540999D01*
X446748Y324503D02*
X434752D01*
Y330501D01*
X436751Y332501D01*
X440750D01*
X442749Y330501D01*
Y324503D01*
Y328502D02*
X446748Y332501D01*
X436751Y336499D02*
X434752Y338499D01*
Y342497D01*
X436751Y344497D01*
X438751D01*
X440750Y342497D01*
X442749Y344497D01*
X444749D01*
X446748Y342497D01*
Y338499D01*
X444749Y336499D01*
X442749D01*
X440750Y338499D01*
X438751Y336499D01*
X436751D01*
X440750Y338499D02*
Y342497D01*
X456753Y374752D02*
Y386748D01*
X462751D01*
X464751Y384749D01*
Y380750D01*
X462751Y378751D01*
X456753D01*
X460752D02*
X464751Y374752D01*
X476747Y386748D02*
X472748Y384749D01*
X468749Y380750D01*
Y376751D01*
X470749Y374752D01*
X474747D01*
X476747Y376751D01*
Y378751D01*
X474747Y380750D01*
X468749D01*
X364000Y573999D02*
X362001Y575998D01*
X358002D01*
X356003Y573999D01*
Y566001D01*
X358002Y564002D01*
X362001D01*
X364000Y566001D01*
X367999Y564002D02*
X371997D01*
X369998D01*
Y575998D01*
X367999Y573999D01*
X424003Y495498D02*
Y483502D01*
X430001D01*
X432000Y485501D01*
Y493499D01*
X430001Y495498D01*
X424003D01*
X435999Y483502D02*
X439997D01*
X437998D01*
Y495498D01*
X435999Y493499D01*
X446998Y283005D02*
X435002D01*
Y289003D01*
X437001Y291002D01*
X441000D01*
X442999Y289003D01*
Y283005D01*
Y287004D02*
X446998Y291002D01*
Y295001D02*
Y299000D01*
Y297000D01*
X435002D01*
X437001Y295001D01*
Y304998D02*
X435002Y306997D01*
Y310996D01*
X437001Y312995D01*
X444999D01*
X446998Y310996D01*
Y306997D01*
X444999Y304998D01*
X437001D01*
X428003Y352002D02*
Y363998D01*
X434001D01*
X436001Y361999D01*
Y358000D01*
X434001Y356001D01*
X428003D01*
X432002D02*
X436001Y352002D01*
X439999Y354001D02*
X441999Y352002D01*
X445997D01*
X447997Y354001D01*
Y361999D01*
X445997Y363998D01*
X441999D01*
X439999Y361999D01*
Y359999D01*
X441999Y358000D01*
X447997D01*
X523001Y405999D02*
X521001Y407998D01*
X517003D01*
X515003Y405999D01*
Y398001D01*
X517003Y396002D01*
X521001D01*
X523001Y398001D01*
X534997Y396002D02*
X526999D01*
X534997Y403999D01*
Y405999D01*
X532997Y407998D01*
X528999D01*
X526999Y405999D01*
X684998Y537753D02*
X673002D01*
Y543751D01*
X675001Y545751D01*
X679000D01*
X680999Y543751D01*
Y537753D01*
Y541752D02*
X684998Y545751D01*
X673002Y557747D02*
Y549749D01*
X679000D01*
X677001Y553748D01*
Y555747D01*
X679000Y557747D01*
X682999D01*
X684998Y555747D01*
Y551749D01*
X682999Y549749D01*
X626501Y527751D02*
X624502Y525751D01*
Y521753D01*
X626501Y519753D01*
X634499D01*
X636498Y521753D01*
Y525751D01*
X634499Y527751D01*
X626501Y531749D02*
X624502Y533749D01*
Y537747D01*
X626501Y539747D01*
X628501D01*
X630500Y537747D01*
Y535748D01*
Y537747D01*
X632499Y539747D01*
X634499D01*
X636498Y537747D01*
Y533749D01*
X634499Y531749D01*
X404003Y508002D02*
Y519998D01*
X410001D01*
X412001Y517999D01*
Y514000D01*
X410001Y512001D01*
X404003D01*
X408002D02*
X412001Y508002D01*
X423997D02*
X415999D01*
X423997Y515999D01*
Y517999D01*
X421997Y519998D01*
X417999D01*
X415999Y517999D01*
X640753Y486998D02*
Y477001D01*
X642753Y475002D01*
X646751D01*
X648751Y477001D01*
Y486998D01*
X658747Y475002D02*
Y486998D01*
X652749Y481000D01*
X660747D01*
X506002Y386999D02*
X504003Y388998D01*
X500004D01*
X498004Y386999D01*
Y379001D01*
X500004Y377002D01*
X504003D01*
X506002Y379001D01*
X517998Y377002D02*
X510001D01*
X517998Y384999D01*
Y386999D01*
X515999Y388998D01*
X512000D01*
X510001Y386999D01*
X521997Y377002D02*
X525995D01*
X523996D01*
Y388998D01*
X521997Y386999D01*
X794001Y386001D02*
X792002Y384001D01*
Y380003D01*
X794001Y378003D01*
X801999D01*
X803998Y380003D01*
Y384001D01*
X801999Y386001D01*
X794001Y389999D02*
X792002Y391999D01*
Y395997D01*
X794001Y397997D01*
X796001D01*
X798000Y395997D01*
X799999Y397997D01*
X801999D01*
X803998Y395997D01*
Y391999D01*
X801999Y389999D01*
X799999D01*
X798000Y391999D01*
X796001Y389999D01*
X794001D01*
X798000Y391999D02*
Y395997D01*
X801253Y303752D02*
Y315748D01*
X807251D01*
X809251Y313749D01*
Y309750D01*
X807251Y307751D01*
X801253D01*
X805252D02*
X809251Y303752D01*
X819247D02*
Y315748D01*
X813249Y309750D01*
X821247D01*
X638498Y546503D02*
X626502D01*
Y552501D01*
X628501Y554501D01*
X632500D01*
X634499Y552501D01*
Y546503D01*
Y550502D02*
X638498Y554501D01*
X626502Y558499D02*
Y566497D01*
X628501D01*
X636499Y558499D01*
X638498D01*
X532004Y296998D02*
X536003D01*
X534004D01*
Y285002D01*
X532004D01*
X536003D01*
X549998Y294999D02*
X547999Y296998D01*
X544000D01*
X542001Y294999D01*
Y287001D01*
X544000Y285002D01*
X547999D01*
X549998Y287001D01*
X553997Y285002D02*
X557996D01*
X555997D01*
Y296998D01*
X553997Y294999D01*
X698003Y405998D02*
Y396001D01*
X700003Y394002D01*
X704001D01*
X706001Y396001D01*
Y405998D01*
X717997Y394002D02*
X709999D01*
X717997Y401999D01*
Y403999D01*
X715997Y405998D01*
X711999D01*
X709999Y403999D01*
X729003Y348998D02*
Y339001D01*
X731003Y337002D01*
X735001D01*
X737001Y339001D01*
Y348998D01*
X740999D02*
X748997D01*
Y346999D01*
X740999Y339001D01*
Y337002D01*
X577005Y405752D02*
Y417748D01*
X583003D01*
X585002Y415749D01*
Y411750D01*
X583003Y409751D01*
X577005D01*
X581003D02*
X585002Y405752D01*
X596998D02*
X589001D01*
X596998Y413749D01*
Y415749D01*
X594999Y417748D01*
X591000D01*
X589001Y415749D01*
X600997Y405752D02*
X604995D01*
X602996D01*
Y417748D01*
X600997Y415749D01*
X746005Y360002D02*
Y371998D01*
X752003D01*
X754003Y369999D01*
Y366000D01*
X752003Y364001D01*
X746005D01*
X750004D02*
X754003Y360002D01*
X765999D02*
X758001D01*
X765999Y367999D01*
Y369999D01*
X763999Y371998D01*
X760001D01*
X758001Y369999D01*
X769997D02*
X771997Y371998D01*
X775995D01*
X777995Y369999D01*
Y362001D01*
X775995Y360002D01*
X771997D01*
X769997Y362001D01*
Y369999D01*
X358251Y363501D02*
Y371499D01*
X356251Y373498D01*
X352253D01*
X350253Y371499D01*
Y363501D01*
X352253Y361502D01*
X356251D01*
X354252Y365501D02*
X358251Y361502D01*
X356251D02*
X358251Y363501D01*
X362249Y371499D02*
X364249Y373498D01*
X368247D01*
X370247Y371499D01*
Y369499D01*
X368247Y367500D01*
X366248D01*
X368247D01*
X370247Y365501D01*
Y363501D01*
X368247Y361502D01*
X364249D01*
X362249Y363501D01*
X770000Y572922D02*
Y583078D01*
X767461Y585617D01*
X762383D01*
X759843Y583078D01*
Y572922D01*
X762383Y570382D01*
X767461D01*
X764922Y575461D02*
X770000Y570382D01*
X767461D02*
X770000Y572922D01*
X775078Y570382D02*
X780157D01*
X777618D01*
Y585617D01*
X775078Y583078D01*
X447002Y496507D02*
X458998D01*
Y504505D01*
X447002Y516501D02*
Y508503D01*
X458998D01*
Y516501D01*
X453000Y508503D02*
Y512502D01*
X447002Y520499D02*
X458998D01*
Y526497D01*
X456999Y528497D01*
X449001D01*
X447002Y526497D01*
Y520499D01*
X458998Y540493D02*
Y532495D01*
X451001Y540493D01*
X449001D01*
X447002Y538493D01*
Y534495D01*
X449001Y532495D01*
X591752Y343007D02*
X603748D01*
Y351004D01*
X591752Y363000D02*
Y355003D01*
X603748D01*
Y363000D01*
X597750Y355003D02*
Y359001D01*
X591752Y366999D02*
X603748D01*
Y372997D01*
X601749Y374996D01*
X593751D01*
X591752Y372997D01*
Y366999D01*
X603748Y378995D02*
Y382994D01*
Y380994D01*
X591752D01*
X593751Y378995D01*
X543251Y347003D02*
X541252Y345003D01*
Y341005D01*
X543251Y339005D01*
X551249D01*
X553248Y341005D01*
Y345003D01*
X551249Y347003D01*
X553248Y358999D02*
Y351001D01*
X545251Y358999D01*
X543251D01*
X541252Y356999D01*
Y353001D01*
X543251Y351001D01*
Y362997D02*
X541252Y364997D01*
Y368996D01*
X543251Y370995D01*
X551249D01*
X553248Y368996D01*
Y364997D01*
X551249Y362997D01*
X543251D01*
X795002Y296249D02*
X793003Y298248D01*
X789004D01*
X787005Y296249D01*
Y288251D01*
X789004Y286252D01*
X793003D01*
X795002Y288251D01*
X799001Y286252D02*
X803000D01*
X801000D01*
Y298248D01*
X799001Y296249D01*
X816995Y298248D02*
X808998D01*
Y292250D01*
X812996Y294249D01*
X814996D01*
X816995Y292250D01*
Y288251D01*
X814996Y286252D01*
X810997D01*
X808998Y288251D01*
X794502Y277749D02*
X792503Y279748D01*
X788504D01*
X786505Y277749D01*
Y269751D01*
X788504Y267752D01*
X792503D01*
X794502Y269751D01*
X798501Y267752D02*
X802500D01*
X800500D01*
Y279748D01*
X798501Y277749D01*
X808498D02*
X810497Y279748D01*
X814496D01*
X816495Y277749D01*
Y275749D01*
X814496Y273750D01*
X812496D01*
X814496D01*
X816495Y271751D01*
Y269751D01*
X814496Y267752D01*
X810497D01*
X808498Y269751D01*
D13*
X703714Y271500D02*
G03*
X703714Y271500I-61214J0D01*
G01*
X573666Y265150D02*
Y277850D01*
X567316Y271500D02*
X580016D01*
X526460Y604730D02*
Y683216D01*
X464992Y604730D02*
X526460D01*
X464992D02*
Y683216D01*
X526460D01*
X456460Y604730D02*
Y683216D01*
X394992Y604730D02*
X456460D01*
X394992D02*
Y683216D01*
X456460D01*
D14*
X389250Y365000D02*
G03*
X389250Y365000I-1000J0D01*
G01*
M02*
