G04*
G04 #@! TF.GenerationSoftware,Altium Limited,Altium Designer,20.2.8 (258)*
G04*
G04 Layer_Color=16711935*
%FSLAX44Y44*%
%MOMM*%
G71*
G04*
G04 #@! TF.SameCoordinates,AB2164AD-3A94-489E-A7C9-C1E693429951*
G04*
G04*
G04 #@! TF.FilePolarity,Negative*
G04*
G01*
G75*
%ADD49C,1.0000*%
%ADD50R,0.7432X0.8032*%
G04:AMPARAMS|DCode=68|XSize=1.1532mm|YSize=1.6533mm|CornerRadius=0.1159mm|HoleSize=0mm|Usage=FLASHONLY|Rotation=90.000|XOffset=0mm|YOffset=0mm|HoleType=Round|Shape=RoundedRectangle|*
%AMROUNDEDRECTD68*
21,1,1.1532,1.4216,0,0,90.0*
21,1,0.9215,1.6533,0,0,90.0*
1,1,0.2317,0.7108,0.4607*
1,1,0.2317,0.7108,-0.4607*
1,1,0.2317,-0.7108,-0.4607*
1,1,0.2317,-0.7108,0.4607*
%
%ADD68ROUNDEDRECTD68*%
%ADD70R,0.8032X0.7432*%
%ADD72R,1.2232X1.2432*%
%ADD73R,1.2432X1.2232*%
%ADD74C,1.9032*%
%ADD75R,1.9032X1.9032*%
%ADD76C,1.7032*%
%ADD77C,2.1532*%
%ADD78R,1.7112X1.7112*%
%ADD79C,1.7112*%
%ADD80O,3.5192X6.8352*%
%ADD81C,1.8532*%
%ADD82R,1.8532X1.8532*%
%ADD83C,1.5748*%
%ADD84R,1.5748X1.5748*%
%ADD85R,1.8382X1.8382*%
%ADD86C,1.8382*%
%ADD87C,1.3208*%
%ADD88O,1.2032X2.4032*%
%ADD89C,4.2032*%
%ADD90C,0.6032*%
%ADD118R,1.8032X1.0032*%
%ADD119R,3.2032X2.3032*%
G04:AMPARAMS|DCode=120|XSize=1.2032mm|YSize=1.2032mm|CornerRadius=0.6016mm|HoleSize=0mm|Usage=FLASHONLY|Rotation=90.000|XOffset=0mm|YOffset=0mm|HoleType=Round|Shape=RoundedRectangle|*
%AMROUNDEDRECTD120*
21,1,1.2032,0.0000,0,0,90.0*
21,1,0.0000,1.2032,0,0,90.0*
1,1,1.2032,0.0000,0.0000*
1,1,1.2032,0.0000,0.0000*
1,1,1.2032,0.0000,0.0000*
1,1,1.2032,0.0000,0.0000*
%
%ADD120ROUNDEDRECTD120*%
G04:AMPARAMS|DCode=121|XSize=1.2032mm|YSize=1.2032mm|CornerRadius=0.6016mm|HoleSize=0mm|Usage=FLASHONLY|Rotation=180.000|XOffset=0mm|YOffset=0mm|HoleType=Round|Shape=RoundedRectangle|*
%AMROUNDEDRECTD121*
21,1,1.2032,0.0000,0,0,180.0*
21,1,0.0000,1.2032,0,0,180.0*
1,1,1.2032,0.0000,0.0000*
1,1,1.2032,0.0000,0.0000*
1,1,1.2032,0.0000,0.0000*
1,1,1.2032,0.0000,0.0000*
%
%ADD121ROUNDEDRECTD121*%
%ADD122R,1.6032X1.2032*%
%ADD123R,0.8132X2.0062*%
G04:AMPARAMS|DCode=124|XSize=1.1532mm|YSize=1.2032mm|CornerRadius=0.1159mm|HoleSize=0mm|Usage=FLASHONLY|Rotation=0.000|XOffset=0mm|YOffset=0mm|HoleType=Round|Shape=RoundedRectangle|*
%AMROUNDEDRECTD124*
21,1,1.1532,0.9715,0,0,0.0*
21,1,0.9215,1.2032,0,0,0.0*
1,1,0.2317,0.4607,-0.4858*
1,1,0.2317,-0.4607,-0.4858*
1,1,0.2317,-0.4607,0.4858*
1,1,0.2317,0.4607,0.4858*
%
%ADD124ROUNDEDRECTD124*%
D49*
X773700Y234000D02*
G03*
X773700Y234000I-5000J0D01*
G01*
X748300D02*
G03*
X748300Y234000I-5000J0D01*
G01*
D50*
X541070Y436500D02*
D03*
X532430D02*
D03*
X555680Y495750D02*
D03*
X564320D02*
D03*
Y485750D02*
D03*
X555680D02*
D03*
X499680Y342000D02*
D03*
X508320D02*
D03*
X465680D02*
D03*
X474320D02*
D03*
X713070Y215750D02*
D03*
X704430D02*
D03*
X630320Y271250D02*
D03*
X621680D02*
D03*
D68*
X586250Y406250D02*
D03*
Y386250D02*
D03*
D70*
X605250Y396930D02*
D03*
Y405570D02*
D03*
X760000Y586570D02*
D03*
Y577930D02*
D03*
D72*
X597000Y250100D02*
D03*
Y235400D02*
D03*
X466000Y297650D02*
D03*
Y312350D02*
D03*
X563000Y297650D02*
D03*
Y312350D02*
D03*
X533000Y297650D02*
D03*
Y312350D02*
D03*
X500000Y297650D02*
D03*
Y312350D02*
D03*
X363000Y372650D02*
D03*
Y387350D02*
D03*
X338000Y372650D02*
D03*
Y387350D02*
D03*
X785000Y574650D02*
D03*
Y589350D02*
D03*
X626000Y235400D02*
D03*
Y250100D02*
D03*
D73*
X704650Y263000D02*
D03*
X719350D02*
D03*
Y234000D02*
D03*
X704650D02*
D03*
D74*
X335000Y610300D02*
D03*
Y635700D02*
D03*
Y584900D02*
D03*
D75*
Y661100D02*
D03*
D76*
X783700Y626000D02*
D03*
X758300D02*
D03*
D77*
X360670Y269500D02*
D03*
Y339500D02*
D03*
D78*
X335670Y282000D02*
D03*
D79*
Y327000D02*
D03*
D80*
X540500Y242500D02*
D03*
X409500D02*
D03*
D81*
X500000Y232500D02*
D03*
X475000Y207500D02*
D03*
X500000D02*
D03*
X450000D02*
D03*
D82*
Y232500D02*
D03*
D83*
X680500Y271500D02*
D03*
D84*
X604500D02*
D03*
D85*
X695650Y582700D02*
D03*
D86*
X670250D02*
D03*
X644850D02*
D03*
X695650Y633500D02*
D03*
X644850D02*
D03*
D87*
X485726Y619500D02*
D03*
X505726D02*
D03*
X415726D02*
D03*
X435726D02*
D03*
D88*
X413950Y381700D02*
D03*
X401250D02*
D03*
X388550D02*
D03*
D89*
X410000Y311000D02*
D03*
Y554000D02*
D03*
X728000D02*
D03*
Y311000D02*
D03*
D90*
X414000Y451750D02*
D03*
X587000Y530500D02*
D03*
X580750Y523500D02*
D03*
X504000Y523000D02*
D03*
X489750Y511250D02*
D03*
X496250Y496000D02*
D03*
X489500Y491000D02*
D03*
X496000Y506000D02*
D03*
X626250Y521500D02*
D03*
X636250Y526750D02*
D03*
X536750Y532750D02*
D03*
X750750Y406000D02*
D03*
X740750Y406250D02*
D03*
X720750Y406500D02*
D03*
X552750Y633250D02*
D03*
Y644500D02*
D03*
X563500Y654750D02*
D03*
X704500Y207000D02*
D03*
X337750Y399500D02*
D03*
X414000Y495250D02*
D03*
X501750Y376000D02*
D03*
X571000Y426750D02*
D03*
X670250Y449750D02*
D03*
Y459750D02*
D03*
X670000Y469750D02*
D03*
X700750Y513250D02*
D03*
X710750D02*
D03*
X720750D02*
D03*
X730750D02*
D03*
X747750Y531000D02*
D03*
X527000Y508000D02*
D03*
X547500Y496000D02*
D03*
X713250Y207000D02*
D03*
X482750Y342250D02*
D03*
X584000Y509500D02*
D03*
X581000Y501000D02*
D03*
X574250Y527000D02*
D03*
X568250Y537750D02*
D03*
X562000Y600250D02*
D03*
X577750Y600750D02*
D03*
X489500Y501000D02*
D03*
X463500Y544000D02*
D03*
Y536000D02*
D03*
X505250Y550750D02*
D03*
X498250Y555500D02*
D03*
X531750Y607000D02*
D03*
X511750Y593250D02*
D03*
X451522Y446772D02*
D03*
Y438522D02*
D03*
X451272Y454272D02*
D03*
X672000Y418500D02*
D03*
X451250Y462750D02*
D03*
X494500Y400750D02*
D03*
X594500Y343750D02*
D03*
X601500Y362750D02*
D03*
X520750Y341750D02*
D03*
X517000Y586750D02*
D03*
X521750Y561500D02*
D03*
X526750Y567750D02*
D03*
X551500Y607750D02*
D03*
X518750Y436000D02*
D03*
X541750Y445500D02*
D03*
X465750Y378500D02*
D03*
X509250Y375000D02*
D03*
X423000Y584500D02*
D03*
X422750Y595750D02*
D03*
X673500Y518500D02*
D03*
X586000Y538750D02*
D03*
X551250Y388500D02*
D03*
X556750Y445500D02*
D03*
X547750Y485500D02*
D03*
X532750Y428000D02*
D03*
X521750Y445500D02*
D03*
X685750Y489250D02*
D03*
X573250Y385000D02*
D03*
X582250Y417750D02*
D03*
X590500Y417500D02*
D03*
X599500Y385250D02*
D03*
X522250Y312250D02*
D03*
X588000Y486000D02*
D03*
X510000Y351750D02*
D03*
X465500Y370000D02*
D03*
X751500Y577750D02*
D03*
X363000Y397750D02*
D03*
X621500Y280000D02*
D03*
X630250Y279750D02*
D03*
X531750Y445500D02*
D03*
D118*
X622250Y396750D02*
D03*
Y409250D02*
D03*
Y421750D02*
D03*
Y434250D02*
D03*
Y484250D02*
D03*
Y471750D02*
D03*
Y446750D02*
D03*
Y459250D02*
D03*
D119*
X651250Y371250D02*
D03*
Y509750D02*
D03*
D120*
X413750Y507000D02*
D03*
X694250Y500750D02*
D03*
X680500Y290250D02*
D03*
X414250Y438750D02*
D03*
X758500Y529500D02*
D03*
X500000Y253000D02*
D03*
Y329000D02*
D03*
X447000Y312000D02*
D03*
X742750Y263750D02*
D03*
X710500Y501500D02*
D03*
X430000Y381750D02*
D03*
X688250Y470000D02*
D03*
X389000Y348000D02*
D03*
X785000Y607000D02*
D03*
X659500Y211500D02*
D03*
D121*
X556900Y426450D02*
D03*
X506100D02*
D03*
Y401050D02*
D03*
X531500D02*
D03*
X556900D02*
D03*
D122*
X681000Y242750D02*
D03*
X659000Y252250D02*
D03*
Y233250D02*
D03*
D123*
X563500Y639000D02*
D03*
X598510D02*
D03*
D124*
X553001Y507750D02*
D03*
X536999D02*
D03*
M02*
