G04*
G04 #@! TF.GenerationSoftware,Altium Limited,Altium Designer,20.2.8 (258)*
G04*
G04 Layer_Color=32896*
%FSLAX44Y44*%
%MOMM*%
G71*
G04*
G04 #@! TF.SameCoordinates,AB2164AD-3A94-489E-A7C9-C1E693429951*
G04*
G04*
G04 #@! TF.FilePolarity,Positive*
G04*
G01*
G75*
%ADD10C,0.1270*%
%ADD11C,0.2000*%
%ADD12C,0.2540*%
%ADD13C,0.1524*%
G36*
X703000Y385057D02*
X677644D01*
Y405542D01*
X703000D01*
Y385057D01*
D02*
G37*
G36*
X495228Y405251D02*
X470272D01*
Y425750D01*
X495228D01*
Y405251D01*
D02*
G37*
%LPC*%
G36*
X685576Y400542D02*
X683917D01*
Y394026D01*
X682644D01*
Y392308D01*
X683917D01*
Y390250D01*
X685813D01*
Y392308D01*
X690018D01*
Y394011D01*
X685576Y400542D01*
D02*
G37*
G36*
X693513Y400497D02*
X691440D01*
Y393685D01*
X691455Y393552D01*
X691470Y393271D01*
X691499Y392960D01*
X691544Y392634D01*
X691603Y392308D01*
X691677Y392027D01*
Y392012D01*
X691692Y391983D01*
X691706Y391938D01*
X691736Y391879D01*
X691810Y391716D01*
X691929Y391509D01*
X692077Y391287D01*
X692269Y391050D01*
X692491Y390813D01*
X692773Y390591D01*
X692787D01*
X692802Y390561D01*
X692847Y390546D01*
X692921Y390502D01*
X692995Y390472D01*
X693084Y390428D01*
X693202Y390368D01*
X693321Y390324D01*
X693469Y390280D01*
X693617Y390220D01*
X693972Y390146D01*
X694387Y390087D01*
X694846Y390057D01*
X694994D01*
X695098Y390072D01*
X695231Y390087D01*
X695364Y390102D01*
X695527Y390132D01*
X695705Y390161D01*
X696090Y390265D01*
X696282Y390339D01*
X696475Y390413D01*
X696667Y390517D01*
X696845Y390620D01*
X697023Y390754D01*
X697186Y390902D01*
X697200Y390916D01*
X697215Y390946D01*
X697260Y390990D01*
X697319Y391064D01*
X697378Y391153D01*
X697437Y391257D01*
X697511Y391390D01*
X697585Y391524D01*
X697674Y391701D01*
X697748Y391879D01*
X697807Y392086D01*
X697867Y392308D01*
X697926Y392545D01*
X697970Y392812D01*
X697985Y393093D01*
X698000Y393389D01*
X696031Y393611D01*
Y393597D01*
Y393567D01*
Y393523D01*
X696016Y393463D01*
Y393315D01*
X695986Y393123D01*
X695956Y392915D01*
X695912Y392708D01*
X695853Y392531D01*
X695779Y392368D01*
X695764Y392338D01*
X695720Y392279D01*
X695646Y392190D01*
X695527Y392101D01*
X695394Y391997D01*
X695216Y391908D01*
X695009Y391849D01*
X694772Y391820D01*
X694653D01*
X694535Y391834D01*
X694402Y391864D01*
X694239Y391908D01*
X694076Y391983D01*
X693928Y392071D01*
X693809Y392205D01*
X693794Y392220D01*
X693765Y392294D01*
X693720Y392397D01*
X693661Y392560D01*
X693632Y392664D01*
X693602Y392782D01*
X693587Y392915D01*
X693558Y393064D01*
X693543Y393241D01*
X693528Y393419D01*
X693513Y393626D01*
Y393848D01*
Y400497D01*
D02*
G37*
%LPD*%
G36*
X688197Y394026D02*
X685813D01*
Y397551D01*
X688197Y394026D01*
D02*
G37*
%LPC*%
G36*
X478530Y420750D02*
X478382D01*
X478278Y420735D01*
X478145Y420720D01*
X477997Y420705D01*
X477834Y420676D01*
X477656Y420646D01*
X477271Y420542D01*
X476886Y420394D01*
X476679Y420305D01*
X476501Y420202D01*
X476308Y420068D01*
X476146Y419920D01*
X476131Y419906D01*
X476101Y419891D01*
X476072Y419831D01*
X476012Y419772D01*
X475938Y419698D01*
X475864Y419594D01*
X475790Y419491D01*
X475701Y419358D01*
X475553Y419061D01*
X475405Y418721D01*
X475346Y418528D01*
X475316Y418321D01*
X475287Y418099D01*
X475272Y417877D01*
Y417758D01*
X475287Y417625D01*
X475302Y417462D01*
X475331Y417255D01*
X475376Y417033D01*
X475435Y416796D01*
X475524Y416559D01*
X475538Y416529D01*
X475568Y416455D01*
X475627Y416322D01*
X475716Y416159D01*
X475820Y415966D01*
X475953Y415744D01*
X476116Y415507D01*
X476308Y415256D01*
X476323Y415241D01*
X476382Y415167D01*
X476471Y415063D01*
X476605Y414915D01*
X476782Y414737D01*
X477004Y414501D01*
X477271Y414249D01*
X477597Y413938D01*
X477612Y413923D01*
X477641Y413908D01*
X477686Y413864D01*
X477745Y413805D01*
X477908Y413656D01*
X478100Y413479D01*
X478293Y413286D01*
X478485Y413094D01*
X478663Y412931D01*
X478722Y412857D01*
X478781Y412798D01*
X478796Y412783D01*
X478826Y412753D01*
X478870Y412694D01*
X478929Y412620D01*
X479063Y412457D01*
X479181Y412264D01*
X475272D01*
Y410443D01*
X482158D01*
Y410487D01*
X482143Y410547D01*
X482128Y410621D01*
X482113Y410710D01*
X482099Y410813D01*
X482039Y411080D01*
X481950Y411376D01*
X481832Y411702D01*
X481684Y412057D01*
X481491Y412398D01*
Y412412D01*
X481462Y412442D01*
X481432Y412501D01*
X481373Y412561D01*
X481314Y412664D01*
X481225Y412768D01*
X481121Y412901D01*
X481003Y413049D01*
X480869Y413227D01*
X480706Y413405D01*
X480529Y413612D01*
X480322Y413834D01*
X480099Y414056D01*
X479848Y414308D01*
X479581Y414575D01*
X479285Y414856D01*
X479270Y414871D01*
X479226Y414915D01*
X479166Y414974D01*
X479078Y415063D01*
X478959Y415152D01*
X478841Y415271D01*
X478574Y415537D01*
X478308Y415818D01*
X478041Y416100D01*
X477923Y416218D01*
X477804Y416352D01*
X477715Y416455D01*
X477656Y416544D01*
X477641Y416574D01*
X477597Y416648D01*
X477523Y416766D01*
X477449Y416929D01*
X477375Y417107D01*
X477301Y417314D01*
X477256Y417521D01*
X477241Y417743D01*
Y417758D01*
Y417773D01*
Y417847D01*
X477256Y417980D01*
X477286Y418129D01*
X477330Y418291D01*
X477389Y418454D01*
X477478Y418617D01*
X477597Y418765D01*
X477612Y418780D01*
X477656Y418825D01*
X477745Y418884D01*
X477849Y418943D01*
X477997Y419002D01*
X478159Y419061D01*
X478352Y419106D01*
X478574Y419121D01*
X478678D01*
X478796Y419106D01*
X478929Y419076D01*
X479092Y419032D01*
X479255Y418958D01*
X479418Y418869D01*
X479566Y418750D01*
X479581Y418736D01*
X479626Y418676D01*
X479685Y418587D01*
X479744Y418454D01*
X479818Y418291D01*
X479877Y418069D01*
X479936Y417817D01*
X479966Y417521D01*
X481921Y417714D01*
Y417729D01*
X481906Y417788D01*
Y417862D01*
X481876Y417980D01*
X481861Y418114D01*
X481817Y418262D01*
X481773Y418425D01*
X481728Y418617D01*
X481580Y418987D01*
X481403Y419372D01*
X481284Y419565D01*
X481151Y419743D01*
X481003Y419891D01*
X480840Y420039D01*
X480825Y420053D01*
X480795Y420068D01*
X480751Y420098D01*
X480677Y420157D01*
X480588Y420202D01*
X480470Y420261D01*
X480351Y420335D01*
X480203Y420394D01*
X480040Y420468D01*
X479862Y420527D01*
X479477Y420646D01*
X479018Y420720D01*
X478781Y420735D01*
X478530Y420750D01*
D02*
G37*
G36*
X485741Y420690D02*
X483668D01*
Y413879D01*
X483683Y413745D01*
X483698Y413464D01*
X483727Y413153D01*
X483772Y412827D01*
X483831Y412501D01*
X483905Y412220D01*
Y412205D01*
X483920Y412176D01*
X483935Y412131D01*
X483964Y412072D01*
X484038Y411909D01*
X484157Y411702D01*
X484305Y411480D01*
X484497Y411243D01*
X484720Y411006D01*
X485001Y410784D01*
X485016D01*
X485031Y410754D01*
X485075Y410739D01*
X485149Y410695D01*
X485223Y410665D01*
X485312Y410621D01*
X485430Y410561D01*
X485549Y410517D01*
X485697Y410473D01*
X485845Y410413D01*
X486200Y410339D01*
X486615Y410280D01*
X487074Y410251D01*
X487222D01*
X487326Y410265D01*
X487459Y410280D01*
X487592Y410295D01*
X487755Y410325D01*
X487933Y410354D01*
X488318Y410458D01*
X488510Y410532D01*
X488703Y410606D01*
X488895Y410710D01*
X489073Y410813D01*
X489251Y410947D01*
X489414Y411095D01*
X489428Y411109D01*
X489443Y411139D01*
X489488Y411183D01*
X489547Y411258D01*
X489606Y411346D01*
X489665Y411450D01*
X489739Y411583D01*
X489813Y411716D01*
X489902Y411894D01*
X489976Y412072D01*
X490036Y412279D01*
X490095Y412501D01*
X490154Y412738D01*
X490199Y413005D01*
X490213Y413286D01*
X490228Y413582D01*
X488259Y413805D01*
Y413790D01*
Y413760D01*
Y413716D01*
X488244Y413656D01*
Y413508D01*
X488214Y413316D01*
X488185Y413108D01*
X488140Y412901D01*
X488081Y412724D01*
X488007Y412561D01*
X487992Y412531D01*
X487948Y412472D01*
X487874Y412383D01*
X487755Y412294D01*
X487622Y412190D01*
X487444Y412102D01*
X487237Y412042D01*
X487000Y412013D01*
X486881D01*
X486763Y412028D01*
X486630Y412057D01*
X486467Y412102D01*
X486304Y412176D01*
X486156Y412264D01*
X486037Y412398D01*
X486023Y412412D01*
X485993Y412487D01*
X485949Y412590D01*
X485889Y412753D01*
X485860Y412857D01*
X485830Y412975D01*
X485815Y413108D01*
X485786Y413257D01*
X485771Y413434D01*
X485756Y413612D01*
X485741Y413819D01*
Y414041D01*
Y420690D01*
D02*
G37*
%LPD*%
D10*
X630250Y381750D02*
X632250D01*
X630250D02*
Y389000D01*
Y499250D02*
X632250D01*
X630250Y492000D02*
Y499250D01*
X669500Y381750D02*
X672250D01*
X669500Y499250D02*
X672250D01*
Y381750D02*
Y499250D01*
X676500Y228250D02*
Y234250D01*
Y251250D02*
Y257250D01*
X669500D02*
X676500D01*
X669500Y228250D02*
X676500D01*
D11*
X618250Y495650D02*
G03*
X618250Y495650I-1000J0D01*
G01*
D12*
X653900Y223750D02*
G03*
X653900Y223750I-400J0D01*
G01*
X403745Y514248D02*
X395747D01*
X399746D01*
Y502252D01*
X391749D02*
Y514248D01*
X385751D01*
X383751Y512249D01*
Y508250D01*
X385751Y506251D01*
X391749D01*
X379753Y512249D02*
X377753Y514248D01*
X373755D01*
X371755Y512249D01*
Y510249D01*
X373755Y508250D01*
X371755Y506251D01*
Y504251D01*
X373755Y502252D01*
X377753D01*
X379753Y504251D01*
Y506251D01*
X377753Y508250D01*
X379753Y510249D01*
Y512249D01*
X377753Y508250D02*
X373755D01*
X614249Y361253D02*
X616248Y359253D01*
Y355255D01*
X614249Y353255D01*
X606251D01*
X604252Y355255D01*
Y359253D01*
X606251Y361253D01*
X604252Y373249D02*
Y365251D01*
X612249Y373249D01*
X614249D01*
X616248Y371249D01*
Y367251D01*
X614249Y365251D01*
X616248Y385245D02*
X614249Y381246D01*
X610250Y377247D01*
X606251D01*
X604252Y379247D01*
Y383246D01*
X606251Y385245D01*
X608251D01*
X610250Y383246D01*
Y377247D01*
X590999Y352753D02*
X592998Y350753D01*
Y346754D01*
X590999Y344755D01*
X583001D01*
X581002Y346754D01*
Y350753D01*
X583001Y352753D01*
X581002Y364749D02*
Y356751D01*
X588999Y364749D01*
X590999D01*
X592998Y362749D01*
Y358751D01*
X590999Y356751D01*
X592998Y376745D02*
Y368747D01*
X587000D01*
X588999Y372746D01*
Y374745D01*
X587000Y376745D01*
X583001D01*
X581002Y374745D01*
Y370747D01*
X583001Y368747D01*
X694248Y509757D02*
Y517754D01*
Y513755D01*
X682252D01*
Y521753D02*
X694248D01*
Y527751D01*
X692249Y529750D01*
X688250D01*
X686251Y527751D01*
Y521753D01*
X682252Y533749D02*
Y537748D01*
Y535748D01*
X694248D01*
X692249Y533749D01*
X694248Y551743D02*
Y543746D01*
X688250D01*
X690249Y547744D01*
Y549744D01*
X688250Y551743D01*
X684251D01*
X682252Y549744D01*
Y545745D01*
X684251Y543746D01*
X658499Y266251D02*
Y274249D01*
X660499Y276248D01*
X664497D01*
X666497Y274249D01*
Y266251D01*
X664497Y264252D01*
X660499D01*
X662498Y268251D02*
X658499Y264252D01*
X660499D02*
X658499Y266251D01*
X648503Y264252D02*
Y276248D01*
X654501Y270250D01*
X646503D01*
X701245Y315998D02*
X693248D01*
X697247D01*
Y304002D01*
X689249D02*
Y315998D01*
X683251D01*
X681252Y313999D01*
Y310000D01*
X683251Y308001D01*
X689249D01*
X677253Y304002D02*
X673255D01*
X675254D01*
Y315998D01*
X677253Y313999D01*
X594748Y481999D02*
X596747Y483998D01*
X600746D01*
X602745Y481999D01*
Y474001D01*
X600746Y472002D01*
X596747D01*
X594748Y474001D01*
X590749Y472002D02*
X586750D01*
X588750D01*
Y483998D01*
X590749Y481999D01*
X580752D02*
X578753Y483998D01*
X574754D01*
X572755Y481999D01*
Y479999D01*
X574754Y478000D01*
X572755Y476001D01*
Y474001D01*
X574754Y472002D01*
X578753D01*
X580752Y474001D01*
Y476001D01*
X578753Y478000D01*
X580752Y479999D01*
Y481999D01*
X578753Y478000D02*
X574754D01*
X525407Y511367D02*
Y496133D01*
X515250D01*
X510172D02*
X505093D01*
X507632D01*
Y511367D01*
X510172Y508828D01*
X761493Y502498D02*
X753496D01*
X757495D01*
Y490502D01*
X749497D02*
Y502498D01*
X743499D01*
X741500Y500499D01*
Y496500D01*
X743499Y494501D01*
X749497D01*
X737501Y490502D02*
X733502D01*
X735502D01*
Y502498D01*
X737501Y500499D01*
X721506Y490502D02*
Y502498D01*
X727504Y496500D01*
X719507D01*
X741743Y470248D02*
X733746D01*
X737745D01*
Y458252D01*
X729747D02*
Y470248D01*
X723749D01*
X721750Y468249D01*
Y464250D01*
X723749Y462251D01*
X729747D01*
X717751Y458252D02*
X713752D01*
X715752D01*
Y470248D01*
X717751Y468249D01*
X707754D02*
X705755Y470248D01*
X701756D01*
X699757Y468249D01*
Y466249D01*
X701756Y464250D01*
X703755D01*
X701756D01*
X699757Y462251D01*
Y460251D01*
X701756Y458252D01*
X705755D01*
X707754Y460251D01*
X431743Y426998D02*
X423746D01*
X427744D01*
Y415002D01*
X419747D02*
Y426998D01*
X413749D01*
X411750Y424999D01*
Y421000D01*
X413749Y419001D01*
X419747D01*
X407751Y415002D02*
X403752D01*
X405752D01*
Y426998D01*
X407751Y424999D01*
X389757Y415002D02*
X397754D01*
X389757Y422999D01*
Y424999D01*
X391756Y426998D01*
X395755D01*
X397754Y424999D01*
X437994Y353998D02*
X429996D01*
X433995D01*
Y342002D01*
X425998D02*
Y353998D01*
X420000D01*
X418000Y351999D01*
Y348000D01*
X420000Y346001D01*
X425998D01*
X414002Y342002D02*
X410003D01*
X412002D01*
Y353998D01*
X414002Y351999D01*
X404005Y342002D02*
X400006D01*
X402006D01*
Y353998D01*
X404005Y351999D01*
X490993Y333998D02*
X482996D01*
X486995D01*
Y322002D01*
X478997D02*
Y333998D01*
X472999D01*
X471000Y331999D01*
Y328000D01*
X472999Y326001D01*
X478997D01*
X467001Y322002D02*
X463002D01*
X465002D01*
Y333998D01*
X467001Y331999D01*
X457004D02*
X455005Y333998D01*
X451006D01*
X449007Y331999D01*
Y324001D01*
X451006Y322002D01*
X455005D01*
X457004Y324001D01*
Y331999D01*
X447498Y265755D02*
Y273753D01*
Y269754D01*
X435502D01*
Y277751D02*
X447498D01*
Y283749D01*
X445499Y285749D01*
X441500D01*
X439501Y283749D01*
Y277751D01*
X437501Y289747D02*
X435502Y291747D01*
Y295746D01*
X437501Y297745D01*
X445499D01*
X447498Y295746D01*
Y291747D01*
X445499Y289747D01*
X443499D01*
X441500Y291747D01*
Y297745D01*
X800495Y534248D02*
X792497D01*
X796496D01*
Y522252D01*
X788499D02*
Y534248D01*
X782501D01*
X780501Y532249D01*
Y528250D01*
X782501Y526251D01*
X788499D01*
X776503Y534248D02*
X768505D01*
Y532249D01*
X776503Y524251D01*
Y522252D01*
X459745Y406498D02*
X451747D01*
X455746D01*
Y394502D01*
X447749D02*
Y406498D01*
X441751D01*
X439751Y404499D01*
Y400500D01*
X441751Y398501D01*
X447749D01*
X427755Y406498D02*
X431754Y404499D01*
X435753Y400500D01*
Y396501D01*
X433753Y394502D01*
X429754D01*
X427755Y396501D01*
Y398501D01*
X429754Y400500D01*
X435753D01*
X785245Y270248D02*
X777247D01*
X781246D01*
Y258252D01*
X773249D02*
Y270248D01*
X767251D01*
X765251Y268249D01*
Y264250D01*
X767251Y262251D01*
X773249D01*
X753255Y270248D02*
X761253D01*
Y264250D01*
X757254Y266249D01*
X755255D01*
X753255Y264250D01*
Y260251D01*
X755255Y258252D01*
X759253D01*
X761253Y260251D01*
X486998Y225005D02*
Y233003D01*
Y229004D01*
X475002D01*
Y237001D02*
X486998D01*
Y242999D01*
X484999Y244999D01*
X481000D01*
X479001Y242999D01*
Y237001D01*
X475002Y254995D02*
X486998D01*
X481000Y248997D01*
Y256995D01*
X813998Y592005D02*
Y600003D01*
Y596004D01*
X802002D01*
Y604001D02*
X813998D01*
Y609999D01*
X811999Y611999D01*
X808000D01*
X806001Y609999D01*
Y604001D01*
X811999Y615997D02*
X813998Y617997D01*
Y621996D01*
X811999Y623995D01*
X809999D01*
X808000Y621996D01*
Y619996D01*
Y621996D01*
X806001Y623995D01*
X804001D01*
X802002Y621996D01*
Y617997D01*
X804001Y615997D01*
X673995Y200748D02*
X665997D01*
X669996D01*
Y188752D01*
X661999D02*
Y200748D01*
X656001D01*
X654001Y198749D01*
Y194750D01*
X656001Y192751D01*
X661999D01*
X642005Y188752D02*
X650003D01*
X642005Y196749D01*
Y198749D01*
X644005Y200748D01*
X648003D01*
X650003Y198749D01*
X357002Y402005D02*
X368998D01*
Y408003D01*
X366999Y410003D01*
X363000D01*
X361001Y408003D01*
Y402005D01*
Y406004D02*
X357002Y410003D01*
Y421999D02*
Y414001D01*
X364999Y421999D01*
X366999D01*
X368998Y419999D01*
Y416001D01*
X366999Y414001D01*
X368998Y433995D02*
Y425997D01*
X363000D01*
X364999Y429996D01*
Y431996D01*
X363000Y433995D01*
X359001D01*
X357002Y431996D01*
Y427997D01*
X359001Y425997D01*
X331002Y403005D02*
X342998D01*
Y409003D01*
X340999Y411003D01*
X337000D01*
X335001Y409003D01*
Y403005D01*
Y407004D02*
X331002Y411003D01*
Y422999D02*
Y415001D01*
X338999Y422999D01*
X340999D01*
X342998Y420999D01*
Y417001D01*
X340999Y415001D01*
X331002Y432995D02*
X342998D01*
X337000Y426997D01*
Y434995D01*
X478252Y273255D02*
X490248D01*
Y279253D01*
X488249Y281253D01*
X484250D01*
X482251Y279253D01*
Y273255D01*
Y277254D02*
X478252Y281253D01*
Y293249D02*
Y285251D01*
X486249Y293249D01*
X488249D01*
X490248Y291249D01*
Y287251D01*
X488249Y285251D01*
Y297247D02*
X490248Y299247D01*
Y303246D01*
X488249Y305245D01*
X486249D01*
X484250Y303246D01*
Y301246D01*
Y303246D01*
X482251Y305245D01*
X480251D01*
X478252Y303246D01*
Y299247D01*
X480251Y297247D01*
X457002Y254005D02*
X468998D01*
Y260003D01*
X466999Y262003D01*
X463000D01*
X461001Y260003D01*
Y254005D01*
Y258004D02*
X457002Y262003D01*
Y273999D02*
Y266001D01*
X464999Y273999D01*
X466999D01*
X468998Y271999D01*
Y268001D01*
X466999Y266001D01*
X457002Y285995D02*
Y277997D01*
X464999Y285995D01*
X466999D01*
X468998Y283995D01*
Y279997D01*
X466999Y277997D01*
X725995Y273752D02*
Y285748D01*
X719997D01*
X717998Y283749D01*
Y279750D01*
X719997Y277751D01*
X725995D01*
X721996D02*
X717998Y273752D01*
X713999D02*
X710000D01*
X712000D01*
Y285748D01*
X713999Y283749D01*
X704002Y275751D02*
X702003Y273752D01*
X698004D01*
X696005Y275751D01*
Y283749D01*
X698004Y285748D01*
X702003D01*
X704002Y283749D01*
Y281749D01*
X702003Y279750D01*
X696005D01*
X753245Y207502D02*
Y219498D01*
X747247D01*
X745248Y217499D01*
Y213500D01*
X747247Y211501D01*
X753245D01*
X749247D02*
X745248Y207502D01*
X741249D02*
X737250D01*
X739250D01*
Y219498D01*
X741249Y217499D01*
X731252D02*
X729253Y219498D01*
X725254D01*
X723255Y217499D01*
Y215499D01*
X725254Y213500D01*
X723255Y211501D01*
Y209501D01*
X725254Y207502D01*
X729253D01*
X731252Y209501D01*
Y211501D01*
X729253Y213500D01*
X731252Y215499D01*
Y217499D01*
X729253Y213500D02*
X725254D01*
X557002Y326005D02*
X568998D01*
Y332003D01*
X566999Y334002D01*
X563000D01*
X561001Y332003D01*
Y326005D01*
Y330004D02*
X557002Y334002D01*
Y338001D02*
Y342000D01*
Y340000D01*
X568998D01*
X566999Y338001D01*
X568998Y347998D02*
Y355995D01*
X566999D01*
X559001Y347998D01*
X557002D01*
X527002Y328505D02*
X538998D01*
Y334503D01*
X536999Y336502D01*
X533000D01*
X531001Y334503D01*
Y328505D01*
Y332504D02*
X527002Y336502D01*
Y340501D02*
Y344500D01*
Y342500D01*
X538998D01*
X536999Y340501D01*
X538998Y358495D02*
X536999Y354496D01*
X533000Y350498D01*
X529001D01*
X527002Y352497D01*
Y356496D01*
X529001Y358495D01*
X531001D01*
X533000Y356496D01*
Y350498D01*
X809745Y552002D02*
Y563998D01*
X803747D01*
X801748Y561999D01*
Y558000D01*
X803747Y556001D01*
X809745D01*
X805746D02*
X801748Y552002D01*
X797749D02*
X793750D01*
X795750D01*
Y563998D01*
X797749Y561999D01*
X779755Y563998D02*
X787752D01*
Y558000D01*
X783754Y559999D01*
X781754D01*
X779755Y558000D01*
Y554001D01*
X781754Y552002D01*
X785753D01*
X787752Y554001D01*
X620002Y192755D02*
X631998D01*
Y198753D01*
X629999Y200752D01*
X626000D01*
X624001Y198753D01*
Y192755D01*
Y196754D02*
X620002Y200752D01*
Y204751D02*
Y208750D01*
Y206750D01*
X631998D01*
X629999Y204751D01*
X620002Y222745D02*
Y214748D01*
X627999Y222745D01*
X629999D01*
X631998Y220746D01*
Y216747D01*
X629999Y214748D01*
X590502Y196504D02*
X602498D01*
Y202502D01*
X600499Y204502D01*
X596500D01*
X594501Y202502D01*
Y196504D01*
Y200503D02*
X590502Y204502D01*
Y208500D02*
Y212499D01*
Y210500D01*
X602498D01*
X600499Y208500D01*
X590502Y218497D02*
Y222496D01*
Y220497D01*
X602498D01*
X600499Y218497D01*
X582000Y618998D02*
X589997D01*
Y613000D01*
X585999D01*
X589997D01*
Y607002D01*
X578001D02*
X574003D01*
X576002D01*
Y618998D01*
X578001Y616999D01*
X542247Y454749D02*
X544247Y456748D01*
X548246D01*
X550245Y454749D01*
Y446751D01*
X548246Y444752D01*
X544247D01*
X542247Y446751D01*
X530251Y444752D02*
X538249D01*
X530251Y452749D01*
Y454749D01*
X532251Y456748D01*
X536249D01*
X538249Y454749D01*
X518255Y444752D02*
X526253D01*
X518255Y452749D01*
Y454749D01*
X520255Y456748D01*
X524253D01*
X526253Y454749D01*
X595248Y501249D02*
X597247Y503248D01*
X601246D01*
X603245Y501249D01*
Y493251D01*
X601246Y491252D01*
X597247D01*
X595248Y493251D01*
X591249Y491252D02*
X587250D01*
X589250D01*
Y503248D01*
X591249Y501249D01*
X581252Y493251D02*
X579253Y491252D01*
X575254D01*
X573255Y493251D01*
Y501249D01*
X575254Y503248D01*
X579253D01*
X581252Y501249D01*
Y499249D01*
X579253Y497250D01*
X573255D01*
X711748Y197999D02*
X713747Y199998D01*
X717746D01*
X719745Y197999D01*
Y190001D01*
X717746Y188002D01*
X713747D01*
X711748Y190001D01*
X707749Y188002D02*
X703750D01*
X705750D01*
Y199998D01*
X707749Y197999D01*
X691754Y188002D02*
Y199998D01*
X697752Y194000D01*
X689755D01*
X507998Y363999D02*
X509997Y365998D01*
X513996D01*
X515995Y363999D01*
Y356001D01*
X513996Y354002D01*
X509997D01*
X507998Y356001D01*
X503999Y354002D02*
X500000D01*
X502000D01*
Y365998D01*
X503999Y363999D01*
X486005Y354002D02*
X494002D01*
X486005Y361999D01*
Y363999D01*
X488004Y365998D01*
X492003D01*
X494002Y363999D01*
X467998Y361999D02*
X469998Y363998D01*
X473996D01*
X475996Y361999D01*
Y354001D01*
X473996Y352002D01*
X469998D01*
X467998Y354001D01*
X464000Y352002D02*
X460001D01*
X462000D01*
Y363998D01*
X464000Y361999D01*
X454003Y352002D02*
X450004D01*
X452004D01*
Y363998D01*
X454003Y361999D01*
X756248Y606499D02*
X758247Y608498D01*
X762246D01*
X764245Y606499D01*
Y598501D01*
X762246Y596502D01*
X758247D01*
X756248Y598501D01*
X752249Y596502D02*
X748250D01*
X750250D01*
Y608498D01*
X752249Y606499D01*
X742252D02*
X740253Y608498D01*
X736254D01*
X734255Y606499D01*
Y598501D01*
X736254Y596502D01*
X740253D01*
X742252Y598501D01*
Y606499D01*
X628319Y292749D02*
X630319Y294748D01*
X634317D01*
X636317Y292749D01*
Y284751D01*
X634317Y282752D01*
X630319D01*
X628319Y284751D01*
X616323Y294748D02*
X620322Y292749D01*
X624321Y288750D01*
Y284751D01*
X622321Y282752D01*
X618323D01*
X616323Y284751D01*
Y286751D01*
X618323Y288750D01*
X624321D01*
D13*
X569616Y649287D02*
X592384D01*
X569616Y628713D02*
X592384D01*
M02*
