G04*
G04 #@! TF.GenerationSoftware,Altium Limited,Altium Designer,20.2.8 (258)*
G04*
G04 Layer_Color=128*
%FSLAX44Y44*%
%MOMM*%
G71*
G04*
G04 #@! TF.SameCoordinates,AB2164AD-3A94-489E-A7C9-C1E693429951*
G04*
G04*
G04 #@! TF.FilePolarity,Positive*
G04*
G01*
G75*
%ADD135C,0.0508*%
D135*
X478500Y460250D02*
X480500D01*
X479500Y459250D02*
Y461250D01*
X457000Y405500D02*
X459000D01*
X458000Y404500D02*
Y406500D01*
X759750Y279000D02*
X761750D01*
X760750Y278000D02*
Y280000D01*
X474500Y507250D02*
X476500D01*
X475500Y506250D02*
Y508250D01*
X560250Y359750D02*
X562250D01*
X561250Y358750D02*
Y360750D01*
X570750Y370000D02*
X572750D01*
X571750Y369000D02*
Y371000D01*
X581250Y360000D02*
X583250D01*
X582250Y359000D02*
Y361000D01*
X521250Y376250D02*
X523250D01*
X522250Y375250D02*
Y377250D01*
X457750Y436000D02*
X459750D01*
X458750Y435000D02*
Y437000D01*
X469250Y446000D02*
X471250D01*
X470250Y445000D02*
Y447000D01*
X481500Y436250D02*
X483500D01*
X482500Y435250D02*
Y437250D01*
X376500Y520250D02*
X378500D01*
X377500Y519250D02*
Y521250D01*
X388250Y530500D02*
X390250D01*
X389250Y529500D02*
Y531500D01*
X398750Y520500D02*
X400750D01*
X399750Y519500D02*
Y521500D01*
X378750Y457000D02*
X380750D01*
X379750Y456000D02*
Y458000D01*
X469500Y296500D02*
X471500D01*
X470500Y295500D02*
Y297500D01*
X458000Y286500D02*
X460000D01*
X459000Y285500D02*
Y287500D01*
X447250Y296500D02*
X449250D01*
X448250Y295500D02*
Y297500D01*
X528500Y327500D02*
X530500D01*
X529500Y326500D02*
Y328500D01*
X533250Y333250D02*
X535250D01*
X534250Y332250D02*
Y334250D01*
X559000Y330250D02*
X561000D01*
X560000Y329250D02*
Y331250D01*
X546000Y341250D02*
X548000D01*
X547000Y340250D02*
Y342250D01*
X525000Y336250D02*
X527000D01*
X526000Y335250D02*
Y337250D01*
X512500Y344500D02*
X514500D01*
X513500Y343500D02*
Y345500D01*
X521250Y350000D02*
X523250D01*
X522250Y349000D02*
Y351000D01*
X532000Y363250D02*
X534000D01*
X533000Y362250D02*
Y364250D01*
X525000Y408750D02*
X527000D01*
X526000Y407750D02*
Y409750D01*
X525500Y436000D02*
X527500D01*
X526500Y435000D02*
Y437000D01*
X537750Y562250D02*
X539750D01*
X538750Y561250D02*
Y563250D01*
X669000Y440000D02*
X671000D01*
X670000Y439000D02*
Y441000D01*
X668500Y477750D02*
X670500D01*
X669500Y476750D02*
Y478750D01*
X376500Y550250D02*
X378500D01*
X377500Y549250D02*
Y551250D01*
X349250Y550250D02*
X351250D01*
X350250Y549250D02*
Y551250D01*
X363250Y561000D02*
X365250D01*
X364250Y560000D02*
Y562000D01*
X768750Y307000D02*
X770750D01*
X769750Y306000D02*
Y308000D01*
X768750Y270750D02*
X770750D01*
X769750Y269750D02*
Y271750D01*
X760750Y298000D02*
X762750D01*
X761750Y297000D02*
Y299000D01*
X781250Y375750D02*
X783250D01*
X782250Y374750D02*
Y376750D01*
X760250Y375250D02*
X762250D01*
X761250Y374250D02*
Y376250D01*
X751750Y383500D02*
X753750D01*
X752750Y382500D02*
Y384500D01*
X611500Y467250D02*
X613500D01*
X612500Y466250D02*
Y468250D01*
X603500Y458250D02*
X605500D01*
X604500Y457250D02*
Y459250D01*
X603250Y489750D02*
X605250D01*
X604250Y488750D02*
Y490750D01*
X604500Y505000D02*
X606500D01*
X605500Y504000D02*
Y506000D01*
X617750Y571750D02*
X619750D01*
X618750Y570750D02*
Y572750D01*
X729500Y430250D02*
X731500D01*
X730500Y429250D02*
Y431250D01*
X751000Y443000D02*
X753000D01*
X752000Y442000D02*
Y444000D01*
X751000Y477750D02*
X753000D01*
X752000Y476750D02*
Y478750D01*
X780250Y450000D02*
X782250D01*
X781250Y449000D02*
Y451000D01*
X780500Y470000D02*
X782500D01*
X781500Y469000D02*
Y471000D01*
X501500Y445500D02*
X503500D01*
X502500Y444500D02*
Y446500D01*
X490000Y436000D02*
X492000D01*
X491000Y435000D02*
Y437000D01*
X516750Y417500D02*
X518750D01*
X517750Y416500D02*
Y418500D01*
X512000Y406000D02*
X514000D01*
X513000Y405000D02*
Y407000D01*
X501000Y396250D02*
X503000D01*
X502000Y395250D02*
Y397250D01*
X489500Y405750D02*
X491500D01*
X490500Y404750D02*
Y406750D01*
X470000Y396500D02*
X472000D01*
X471000Y395500D02*
Y397500D01*
X480500Y405750D02*
X482500D01*
X481500Y404750D02*
Y406750D01*
X453500Y416500D02*
X455500D01*
X454500Y415500D02*
Y417500D01*
X453500Y425250D02*
X455500D01*
X454500Y424250D02*
Y426250D01*
X475750Y417000D02*
X477750D01*
X476750Y416000D02*
Y418000D01*
X475500Y425250D02*
X477500D01*
X476500Y424250D02*
Y426250D01*
X719000Y433750D02*
X721000D01*
X720000Y432750D02*
Y434750D01*
X624250Y503000D02*
X626250D01*
X625250Y502000D02*
Y504000D01*
X770250Y383500D02*
X772250D01*
X771250Y382500D02*
Y384500D01*
X768750Y288750D02*
X770750D01*
X769750Y287750D02*
Y289750D01*
X730500Y443000D02*
X732500D01*
X731500Y442000D02*
Y444000D01*
X742250Y434250D02*
X744250D01*
X743250Y433250D02*
Y435250D01*
X730250Y477500D02*
X732250D01*
X731250Y476500D02*
Y478500D01*
M02*
