G04*
G04 #@! TF.GenerationSoftware,Altium Limited,Altium Designer,20.2.8 (258)*
G04*
G04 Layer_Physical_Order=4*
G04 Layer_Color=16711680*
%FSLAX44Y44*%
%MOMM*%
G71*
G04*
G04 #@! TF.SameCoordinates,AB2164AD-3A94-489E-A7C9-C1E693429951*
G04*
G04*
G04 #@! TF.FilePolarity,Positive*
G04*
G01*
G75*
%ADD11C,0.2000*%
%ADD12C,0.2540*%
%ADD14C,0.3000*%
%ADD15R,0.5400X0.6000*%
G04:AMPARAMS|DCode=43|XSize=0.95mm|YSize=1.4501mm|CornerRadius=0.0143mm|HoleSize=0mm|Usage=FLASHONLY|Rotation=90.000|XOffset=0mm|YOffset=0mm|HoleType=Round|Shape=RoundedRectangle|*
%AMROUNDEDRECTD43*
21,1,0.9500,1.4216,0,0,90.0*
21,1,0.9215,1.4501,0,0,90.0*
1,1,0.0285,0.7108,0.4607*
1,1,0.0285,0.7108,-0.4607*
1,1,0.0285,-0.7108,-0.4607*
1,1,0.0285,-0.7108,0.4607*
%
%ADD43ROUNDEDRECTD43*%
%ADD45R,0.6000X0.5400*%
%ADD47R,1.0200X1.0400*%
%ADD48R,1.0400X1.0200*%
%ADD83C,1.5748*%
%ADD84R,1.5748X1.5748*%
%ADD87C,1.3208*%
%ADD91C,0.4000*%
%ADD92C,0.8000*%
%ADD93C,0.5000*%
%ADD95C,1.7000*%
%ADD96R,1.7000X1.7000*%
%ADD97C,2.0000*%
%ADD98C,1.5000*%
%ADD99C,1.9500*%
%ADD100R,1.5080X1.5080*%
%ADD101C,1.5080*%
%ADD102O,3.3160X6.6320*%
%ADD103C,1.6500*%
%ADD104R,1.6500X1.6500*%
%ADD105R,1.6350X1.6350*%
%ADD106C,1.6350*%
%ADD107O,1.0000X2.2000*%
%ADD108C,4.0000*%
%ADD109C,0.4000*%
%ADD111R,1.6000X0.8000*%
%ADD112R,3.0000X2.1000*%
G04:AMPARAMS|DCode=113|XSize=1mm|YSize=1mm|CornerRadius=0.5mm|HoleSize=0mm|Usage=FLASHONLY|Rotation=90.000|XOffset=0mm|YOffset=0mm|HoleType=Round|Shape=RoundedRectangle|*
%AMROUNDEDRECTD113*
21,1,1.0000,0.0000,0,0,90.0*
21,1,0.0000,1.0000,0,0,90.0*
1,1,1.0000,0.0000,0.0000*
1,1,1.0000,0.0000,0.0000*
1,1,1.0000,0.0000,0.0000*
1,1,1.0000,0.0000,0.0000*
%
%ADD113ROUNDEDRECTD113*%
G04:AMPARAMS|DCode=114|XSize=1mm|YSize=1mm|CornerRadius=0.5mm|HoleSize=0mm|Usage=FLASHONLY|Rotation=180.000|XOffset=0mm|YOffset=0mm|HoleType=Round|Shape=RoundedRectangle|*
%AMROUNDEDRECTD114*
21,1,1.0000,0.0000,0,0,180.0*
21,1,0.0000,1.0000,0,0,180.0*
1,1,1.0000,0.0000,0.0000*
1,1,1.0000,0.0000,0.0000*
1,1,1.0000,0.0000,0.0000*
1,1,1.0000,0.0000,0.0000*
%
%ADD114ROUNDEDRECTD114*%
%ADD115R,1.4000X1.0000*%
%ADD116R,0.6100X1.8030*%
G04:AMPARAMS|DCode=117|XSize=0.95mm|YSize=1mm|CornerRadius=0.0143mm|HoleSize=0mm|Usage=FLASHONLY|Rotation=0.000|XOffset=0mm|YOffset=0mm|HoleType=Round|Shape=RoundedRectangle|*
%AMROUNDEDRECTD117*
21,1,0.9500,0.9715,0,0,0.0*
21,1,0.9215,1.0000,0,0,0.0*
1,1,0.0285,0.4607,-0.4858*
1,1,0.0285,-0.4607,-0.4858*
1,1,0.0285,-0.4607,0.4858*
1,1,0.0285,0.4607,0.4858*
%
%ADD117ROUNDEDRECTD117*%
D11*
X414000Y442750D02*
Y451750D01*
X423000Y585000D02*
X423500D01*
X586750Y530250D02*
X587000Y530000D01*
X566250Y550750D02*
X586750Y530250D01*
X587000Y530500D02*
Y530500D01*
X586750Y530250D02*
X587000Y530500D01*
X598000Y474500D02*
X613250Y459250D01*
X529250Y485250D02*
X540000Y474500D01*
X605250Y479250D02*
X612750Y471750D01*
X622250D01*
X612250Y485000D02*
X616250D01*
X583250Y464750D02*
X613750Y434250D01*
X496500Y464750D02*
X583250D01*
X622250Y434000D02*
X629000D01*
X478000Y476750D02*
X494750Y460000D01*
X478000Y508250D02*
X492500Y522750D01*
X504000D01*
X613250Y459250D02*
X622250D01*
X540000Y474500D02*
X598000D01*
X518500Y496000D02*
X529250Y485250D01*
X496250Y496000D02*
X518500D01*
X489500Y491000D02*
X515500D01*
X537000Y469500D02*
X589750D01*
X517000Y506000D02*
X543750Y479250D01*
X605250D01*
X581500Y523500D02*
X609000Y496000D01*
Y488250D02*
Y496000D01*
X494750Y460000D02*
X575000D01*
X617000Y459000D02*
X629000D01*
X589750Y469500D02*
X612750Y446500D01*
X609000Y488250D02*
X612250Y485000D01*
X613250Y421750D02*
X622250D01*
X478000Y476750D02*
Y508250D01*
X515500Y491000D02*
X537000Y469500D01*
X612750Y446500D02*
X625000D01*
X496000Y506000D02*
X517000D01*
X617500Y471500D02*
X629000D01*
X580750Y523500D02*
X581500D01*
X613750Y434250D02*
X622250D01*
X482928Y478322D02*
X496500Y464750D01*
X482928Y478322D02*
Y504928D01*
X489250Y511250D01*
X575000Y460000D02*
X613250Y421750D01*
X622250Y421500D02*
X629000D01*
X595500Y521500D02*
X626250D01*
X636250Y526750D02*
X665250D01*
X665500Y526500D01*
X599750Y526750D02*
X636250D01*
X599500Y526500D02*
X599750Y526750D01*
X464750Y515250D02*
X491000Y541500D01*
X542750D02*
X581000Y503250D01*
X491000Y541500D02*
X542750D01*
X469000Y513000D02*
X493750Y537750D01*
X540250D01*
X574750Y503250D01*
X495250Y532750D02*
X536750D01*
X493500Y531000D02*
X495250Y532750D01*
X740750Y406250D02*
X740750D01*
X632500Y348500D02*
X683000D01*
X740750Y406250D01*
X687000Y342250D02*
X750750Y406000D01*
X630250Y342250D02*
X687000D01*
X750750Y406000D02*
X750750D01*
X667750Y406500D02*
X720750D01*
X666250Y408000D02*
X667750Y406500D01*
X337750Y389000D02*
Y399500D01*
X413500Y504750D02*
X414000Y504250D01*
Y495250D02*
Y504250D01*
Y442750D02*
X414250Y442500D01*
X489500Y383750D02*
X511000D01*
X461500Y411750D02*
X489500Y383750D01*
X670000Y469750D02*
X688250D01*
X663500Y463250D02*
X670000Y469750D01*
X641000Y433250D02*
X666250Y408000D01*
X670250Y449750D02*
X691250D01*
X670750Y543250D02*
X700750Y513250D01*
X606500Y543250D02*
X670750D01*
X700750Y511750D02*
Y513250D01*
X700367Y511367D02*
X700750Y511750D01*
X610250Y547250D02*
X676750D01*
X710750Y513250D01*
X710750Y521750D02*
X712250D01*
X720750Y513250D01*
X730750Y513250D02*
Y513250D01*
X714500Y525250D02*
X718750D01*
X730750Y513250D01*
X687500Y559000D02*
X715500Y531000D01*
X747750D01*
X755750D01*
X756750Y530000D01*
X574750Y498500D02*
X577500Y495750D01*
X583750D02*
X589500Y501500D01*
X577500Y495750D02*
X583750D01*
X574750Y498500D02*
Y503250D01*
X574250Y521500D02*
Y527000D01*
Y521500D02*
X579500Y516250D01*
X584500D01*
X589500Y511250D01*
Y501500D02*
Y511250D01*
X581000Y501250D02*
Y503250D01*
X545250Y545500D02*
X581250Y509500D01*
X584000D01*
X489500Y545500D02*
X545250D01*
X464250Y313250D02*
X465680Y314680D01*
X447000Y311750D02*
X447250Y312000D01*
X568250Y537750D02*
X572750D01*
X577750Y600750D02*
X585000D01*
X463625Y543875D02*
X501250Y581500D01*
X463500Y536000D02*
X502750Y575250D01*
X574500D01*
X469000Y438750D02*
Y513000D01*
X460250Y516250D02*
X489500Y545500D01*
X464750Y451750D02*
Y515250D01*
X473500Y511000D02*
X493500Y531000D01*
X473500Y435000D02*
Y511000D01*
X455500Y458500D02*
Y571000D01*
X451000Y463000D02*
Y574000D01*
X460250Y455500D02*
Y516250D01*
X694250Y502000D02*
X695500D01*
X349300Y596000D02*
X422750D01*
X569500Y555500D02*
X586000Y539000D01*
X498250Y555500D02*
X569500D01*
X521750Y561500D02*
X572000D01*
X505250Y550750D02*
X566250D01*
X461500Y431250D02*
X469000Y438750D01*
X467250Y428750D02*
X473500Y435000D01*
X572750Y537750D02*
X595000Y515500D01*
X467250Y415750D02*
Y428750D01*
X451522Y446772D02*
X460250Y455500D01*
X451522Y438522D02*
X464750Y451750D01*
X451272Y454272D02*
X455500Y458500D01*
X502250Y597750D02*
X511500Y607000D01*
X531669D01*
X474750Y597750D02*
X502250D01*
X504750Y593750D02*
X511250Y600250D01*
X562000D01*
X730500Y511750D02*
X730750Y511500D01*
X511750Y593250D02*
X583250D01*
X478250Y593750D02*
X504750D01*
X501250Y581500D02*
X576000D01*
X451000Y574000D02*
X474750Y597750D01*
X455500Y571000D02*
X478250Y593750D01*
X467250Y415750D02*
X491500Y391500D01*
X461500Y411750D02*
Y431250D01*
X451000Y463000D02*
X451250Y462750D01*
X491500Y391500D02*
X512500D01*
X548750Y370500D02*
X610500D01*
X521750Y397500D02*
X548750Y370500D01*
X521750Y397500D02*
Y405000D01*
X610500Y370500D02*
X632500Y348500D01*
X587000Y530000D02*
X595500Y521500D01*
X595000Y515500D02*
X612750D01*
X641000Y487250D01*
Y433250D02*
Y487250D01*
X663500Y443250D02*
X688000Y418750D01*
X657000Y439750D02*
X672000Y424750D01*
X688000Y418750D02*
X750750D01*
X672000Y418500D02*
Y424750D01*
X514750Y420000D02*
X525000Y430250D01*
Y442500D01*
X522000Y445500D02*
X525000Y442500D01*
X512500Y391500D02*
X516500Y387500D01*
X516500D02*
X581000Y323000D01*
Y256500D02*
Y323000D01*
X563000Y312350D02*
Y331750D01*
X554250Y357000D02*
X605250D01*
X594500Y343500D02*
Y343750D01*
X629750Y308250D02*
X684000D01*
X594500Y343500D02*
X629750Y308250D01*
X601500Y362750D02*
X609750D01*
X630250Y342250D01*
X511000Y383750D02*
X563000Y331750D01*
X514750Y396500D02*
Y420000D01*
Y396500D02*
X554250Y357000D01*
X580000Y586250D02*
X615000Y551250D01*
X579750Y586750D02*
X580500Y586000D01*
X517000Y586750D02*
X579750D01*
X576000Y581500D02*
X610250Y547250D01*
X615000Y551250D02*
X681250D01*
X583250Y593250D02*
X583750Y592750D01*
X526750Y567750D02*
X572500D01*
X783750Y626500D02*
X784350Y625900D01*
X537000Y450750D02*
X545250D01*
X531750Y445500D02*
X537000Y450750D01*
X545250D02*
X549750Y446250D01*
X521750Y405000D02*
X549750Y433000D01*
Y446250D01*
X663500Y443250D02*
Y463250D01*
X335000Y584900D02*
X335100Y585000D01*
X422500D02*
X423000Y584500D01*
X335100Y585000D02*
X422500D01*
X423000Y584500D02*
X423500Y585000D01*
X587250Y538750D02*
X599500Y526500D01*
X665500D02*
X673500Y518500D01*
X599500Y534000D02*
X666000D01*
X572000Y561500D02*
X599500Y534000D01*
X666000D02*
X679750Y520250D01*
X572500Y567750D02*
X601750Y538500D01*
X668000D02*
X685750Y520750D01*
X601750Y538500D02*
X668000D01*
X574500Y575250D02*
X606500Y543250D01*
X681250Y551250D02*
X710750Y521750D01*
X583750Y592750D02*
X621250Y555250D01*
X684500D01*
X714500Y525250D01*
X585000Y600750D02*
X626750Y559000D01*
X687500D01*
X679750Y496500D02*
Y520250D01*
X720750Y487500D02*
Y510750D01*
X693000Y459750D02*
X720750Y487500D01*
X703250Y461750D02*
X730750Y489250D01*
X703250Y461750D02*
Y461750D01*
X730750Y489250D02*
Y511500D01*
X756750Y530000D02*
X757250Y529500D01*
X335000Y610300D02*
X349300Y596000D01*
X605250Y357000D02*
X627250Y335000D01*
X687500D01*
X760172Y407672D01*
X657000Y473750D02*
X679750Y496500D01*
X685750Y489250D02*
Y520750D01*
X657000Y439750D02*
Y473750D01*
X760172Y407672D02*
Y409328D01*
X750750Y418750D02*
X760172Y409328D01*
X671500Y459750D02*
X693000D01*
X691250Y449750D02*
X703250Y461750D01*
X695500Y502000D02*
X700367Y506867D01*
Y511367D01*
X587750Y607750D02*
X633000Y562500D01*
X551500Y607750D02*
X587750D01*
X633000Y562500D02*
X699000D01*
X723000Y586500D01*
X581000Y256500D02*
X587250Y250250D01*
X684000Y308250D02*
X704500Y287750D01*
Y273250D02*
Y287750D01*
X723000Y586500D02*
X751750D01*
X465500Y370000D02*
X465590Y369910D01*
X465500Y342500D02*
X465590Y342590D01*
X413500Y441750D02*
X414250Y442500D01*
X751785Y586535D02*
X759465D01*
X751750Y586500D02*
X751785Y586535D01*
X760000Y586570D02*
X781570D01*
X782500Y587500D01*
X447250Y312000D02*
X464250D01*
X363000Y388000D02*
Y397750D01*
X337250Y388500D02*
X337750Y389000D01*
X336750Y373750D02*
X360750D01*
X388250Y348250D02*
Y348750D01*
X378750Y358250D02*
X388250Y348750D01*
X365000Y358250D02*
X378750D01*
X363000Y360250D02*
X365000Y358250D01*
X363000Y360250D02*
Y372650D01*
X335670Y327000D02*
Y372670D01*
X360750Y373750D02*
X362250Y372250D01*
X335670Y372670D02*
X336750Y373750D01*
X587250Y250250D02*
X594750D01*
X621465Y279285D02*
Y279965D01*
X621500Y280000D01*
X621465Y272285D02*
X621500Y272250D01*
X605000Y271500D02*
X605250Y271250D01*
X704500Y264000D02*
Y273250D01*
Y264000D02*
X705000Y263500D01*
X785000Y589350D02*
Y607000D01*
Y607500D01*
X784350Y608150D02*
X785000Y607500D01*
X784350Y608150D02*
Y625900D01*
D12*
X571000Y423500D02*
Y426750D01*
X569750Y422250D02*
X571000Y423500D01*
X561750Y414250D02*
X569750Y422250D01*
X545250Y414250D02*
X561750D01*
X532000Y401000D02*
X545250Y414250D01*
D14*
X586500Y406500D02*
X624500D01*
X573750Y385250D02*
X599500D01*
X552750Y633250D02*
X563000D01*
X563250Y633000D01*
X552750Y644500D02*
X562250D01*
X563500Y633250D02*
Y654750D01*
X710750Y511500D02*
Y513250D01*
X710625Y511375D02*
X710750Y511500D01*
X527000Y508000D02*
X534500D01*
X547500Y496000D02*
X555000D01*
X555250Y495750D01*
X482000Y342250D02*
X482750D01*
X481875Y342125D02*
X482000Y342250D01*
X534500Y508000D02*
X535500Y507000D01*
X499680Y341930D02*
X499750Y342000D01*
X494500Y400750D02*
X505500D01*
X582250Y408500D02*
Y417750D01*
X590750Y410250D02*
Y417500D01*
X573500Y385000D02*
X573750Y385250D01*
X509250Y341750D02*
X520750D01*
X760000Y576680D02*
X783570D01*
X630000Y279750D02*
X630285Y279465D01*
X713160Y207840D02*
Y215660D01*
X605320Y397000D02*
X625500D01*
X704250Y215750D02*
X704430Y215930D01*
X704680Y211430D02*
Y233970D01*
X704465Y207785D02*
Y215715D01*
X506000Y426500D02*
X515500Y436000D01*
X518750D01*
X541570Y445680D02*
X541750Y445500D01*
Y436750D02*
Y445500D01*
X465750Y378500D02*
X469500D01*
X499590Y348410D01*
X532750Y428000D02*
Y436000D01*
X541500Y436500D02*
X541750Y436750D01*
X505500Y400750D02*
X505750Y401000D01*
X551250Y395000D02*
X557000Y400750D01*
X556750Y427500D02*
Y445500D01*
X551250Y388500D02*
Y395000D01*
X547750Y485500D02*
X554750D01*
X555250Y495750D02*
X555250Y495750D01*
X554750Y485500D02*
X555000Y485750D01*
X564320Y486180D02*
X564500Y486000D01*
X588000D01*
X719000Y262250D02*
X720000Y263250D01*
X719250Y264000D02*
X742500D01*
X742750Y263750D01*
X414000Y381750D02*
X430000D01*
X582250Y408500D02*
X582750Y408000D01*
X590250Y409750D02*
X590750Y410250D01*
X590500Y417500D02*
X590750D01*
X597000Y397000D02*
X605000D01*
X586250Y386250D02*
X597000Y397000D01*
X605250Y396930D02*
X605320Y397000D01*
X586250Y406250D02*
X586500Y406500D01*
X531250Y312250D02*
X531500Y312500D01*
X522250Y312250D02*
X531250D01*
X710625Y502625D02*
Y511375D01*
Y502625D02*
X710750Y502500D01*
X465590Y342590D02*
Y369910D01*
X499590Y343340D02*
Y348410D01*
X509000Y342000D02*
X509250Y341750D01*
X563250Y633000D02*
X563500Y633250D01*
X562250Y644500D02*
X562750Y644000D01*
X759590Y577840D02*
X759750Y578000D01*
X751590Y577840D02*
X759590D01*
X751500Y577750D02*
X751590Y577840D01*
X783570Y576680D02*
X784000Y576250D01*
X499500Y343250D02*
X499590Y343340D01*
X474750Y341750D02*
X475125Y342125D01*
X481875D01*
X621465Y272285D02*
Y279285D01*
X630285Y271285D02*
X630320Y271250D01*
X630285Y271285D02*
Y279465D01*
X628500Y252250D02*
X659000D01*
X629600Y270530D02*
X630320Y271250D01*
X629600Y253350D02*
Y270530D01*
X629250Y253000D02*
X629600Y253350D01*
X628000Y251750D02*
X628500Y252250D01*
X680500Y243000D02*
X681000Y242500D01*
X680500Y271500D02*
Y290250D01*
Y243000D02*
Y271500D01*
X704430Y215750D02*
X704465Y215715D01*
Y207785D02*
X704500Y207750D01*
X713070Y215750D02*
X713160Y215660D01*
Y207840D02*
X713250Y207750D01*
X704650Y234000D02*
X704680Y233970D01*
X719350Y234000D02*
X743300D01*
X719250D02*
X719350D01*
X719000Y234250D02*
Y262250D01*
Y234250D02*
X719250Y234000D01*
X499680Y312670D02*
X500000Y312350D01*
D15*
X541070Y436500D02*
D03*
X532430D02*
D03*
X555680Y495750D02*
D03*
X564320D02*
D03*
Y485750D02*
D03*
X555680D02*
D03*
X499680Y342000D02*
D03*
X508320D02*
D03*
X465680D02*
D03*
X474320D02*
D03*
X713070Y215750D02*
D03*
X704430D02*
D03*
X630320Y271250D02*
D03*
X621680D02*
D03*
D43*
X586250Y406250D02*
D03*
Y386250D02*
D03*
D45*
X605250Y396930D02*
D03*
Y405570D02*
D03*
X760000Y586570D02*
D03*
Y577930D02*
D03*
D47*
X597000Y250100D02*
D03*
Y235400D02*
D03*
X466000Y297650D02*
D03*
Y312350D02*
D03*
X563000Y297650D02*
D03*
Y312350D02*
D03*
X533000Y297650D02*
D03*
Y312350D02*
D03*
X500000Y297650D02*
D03*
Y312350D02*
D03*
X363000Y372650D02*
D03*
Y387350D02*
D03*
X338000Y372650D02*
D03*
Y387350D02*
D03*
X785000Y574650D02*
D03*
Y589350D02*
D03*
X626000Y235400D02*
D03*
Y250100D02*
D03*
D48*
X704650Y263000D02*
D03*
X719350D02*
D03*
Y234000D02*
D03*
X704650D02*
D03*
D83*
X680500Y271500D02*
D03*
D84*
X604500D02*
D03*
D87*
X485726Y619500D02*
D03*
X505726D02*
D03*
X415726D02*
D03*
X435726D02*
D03*
D91*
X499680Y312670D02*
Y341930D01*
X465680Y314680D02*
Y342000D01*
X605250Y271250D02*
X621680D01*
X596075Y234325D02*
X657925D01*
X659500Y211500D02*
Y231750D01*
X657925Y234325D02*
X659000Y233250D01*
X595750Y234000D02*
X596075Y234325D01*
X484000Y260500D02*
X500000Y276500D01*
Y253000D02*
X516141Y269141D01*
Y280691D01*
X533250Y297500D02*
X533400Y297650D01*
X499500Y253000D02*
X500000D01*
Y232500D02*
Y253000D01*
X516141Y280691D02*
X533000Y297550D01*
Y297650D01*
X450000Y208000D02*
X450500D01*
X466000Y223500D02*
Y297650D01*
X450500Y208000D02*
X466000Y223500D01*
X500000Y207500D02*
X500750D01*
X499500D02*
X500000D01*
X499500D02*
Y208000D01*
X484000Y223500D02*
X499500Y208000D01*
X484000Y223500D02*
Y260500D01*
X500000Y276500D02*
Y297650D01*
X533400D02*
X563000D01*
D92*
X441250Y420000D02*
X485250Y376000D01*
X501750D01*
X476750Y605500D02*
X491726D01*
X505000Y618774D01*
X416722Y621222D02*
X429750Y634250D01*
X448000D02*
X476750Y605500D01*
X429750Y634250D02*
X448000D01*
X416722Y621222D02*
Y621222D01*
X441250Y420000D02*
Y613976D01*
X509250Y352250D02*
Y375000D01*
Y352250D02*
X509750Y351750D01*
X435726Y619500D02*
X441250Y613976D01*
X415000Y619500D02*
X416722Y621222D01*
X505000Y618774D02*
X505726Y619500D01*
X485250Y623250D02*
Y633500D01*
X517750Y666000D01*
X646000D01*
X671500Y640500D01*
Y606850D02*
Y640500D01*
Y606850D02*
X695650Y582700D01*
X613700Y639250D02*
X670250Y582700D01*
X598500Y639250D02*
X613700D01*
D93*
X553250Y506500D02*
X560750D01*
X564320Y502930D01*
Y495750D02*
Y502930D01*
Y486180D02*
Y495750D01*
D95*
X335000Y610300D02*
D03*
Y635700D02*
D03*
Y584900D02*
D03*
D96*
Y661100D02*
D03*
D97*
X768700Y234000D02*
D03*
X743300D02*
D03*
D98*
X783700Y626000D02*
D03*
X758300D02*
D03*
D99*
X360670Y269500D02*
D03*
Y339500D02*
D03*
D100*
X335670Y282000D02*
D03*
D101*
Y327000D02*
D03*
D102*
X540500Y242500D02*
D03*
X409500D02*
D03*
D103*
X500000Y232500D02*
D03*
X475000Y207500D02*
D03*
X500000D02*
D03*
X450000D02*
D03*
D104*
Y232500D02*
D03*
D105*
X695650Y582700D02*
D03*
D106*
X670250D02*
D03*
X644850D02*
D03*
X695650Y633500D02*
D03*
X644850D02*
D03*
D107*
X413950Y381700D02*
D03*
X401250D02*
D03*
X388550D02*
D03*
D108*
X410000Y311000D02*
D03*
Y554000D02*
D03*
X728000D02*
D03*
Y311000D02*
D03*
D109*
X414000Y451750D02*
D03*
X587000Y530500D02*
D03*
X580750Y523500D02*
D03*
X504000Y523000D02*
D03*
X489750Y511250D02*
D03*
X496250Y496000D02*
D03*
X489500Y491000D02*
D03*
X496000Y506000D02*
D03*
X626250Y521500D02*
D03*
X636250Y526750D02*
D03*
X536750Y532750D02*
D03*
X750750Y406000D02*
D03*
X740750Y406250D02*
D03*
X720750Y406500D02*
D03*
X552750Y633250D02*
D03*
Y644500D02*
D03*
X563500Y654750D02*
D03*
X704500Y207000D02*
D03*
X337750Y399500D02*
D03*
X414000Y495250D02*
D03*
X501750Y376000D02*
D03*
X571000Y426750D02*
D03*
X670250Y449750D02*
D03*
Y459750D02*
D03*
X670000Y469750D02*
D03*
X700750Y513250D02*
D03*
X710750D02*
D03*
X720750D02*
D03*
X730750D02*
D03*
X747750Y531000D02*
D03*
X527000Y508000D02*
D03*
X547500Y496000D02*
D03*
X713250Y207000D02*
D03*
X482750Y342250D02*
D03*
X584000Y509500D02*
D03*
X581000Y501000D02*
D03*
X574250Y527000D02*
D03*
X568250Y537750D02*
D03*
X562000Y600250D02*
D03*
X577750Y600750D02*
D03*
X489500Y501000D02*
D03*
X463500Y544000D02*
D03*
Y536000D02*
D03*
X505250Y550750D02*
D03*
X498250Y555500D02*
D03*
X531750Y607000D02*
D03*
X511750Y593250D02*
D03*
X451522Y446772D02*
D03*
Y438522D02*
D03*
X451272Y454272D02*
D03*
X672000Y418500D02*
D03*
X451250Y462750D02*
D03*
X494500Y400750D02*
D03*
X594500Y343750D02*
D03*
X601500Y362750D02*
D03*
X520750Y341750D02*
D03*
X517000Y586750D02*
D03*
X521750Y561500D02*
D03*
X526750Y567750D02*
D03*
X551500Y607750D02*
D03*
X518750Y436000D02*
D03*
X541750Y445500D02*
D03*
X465750Y378500D02*
D03*
X509250Y375000D02*
D03*
X423000Y584500D02*
D03*
X422750Y595750D02*
D03*
X673500Y518500D02*
D03*
X586000Y538750D02*
D03*
X551250Y388500D02*
D03*
X556750Y445500D02*
D03*
X547750Y485500D02*
D03*
X532750Y428000D02*
D03*
X521750Y445500D02*
D03*
X685750Y489250D02*
D03*
X573250Y385000D02*
D03*
X582250Y417750D02*
D03*
X590500Y417500D02*
D03*
X599500Y385250D02*
D03*
X522250Y312250D02*
D03*
X588000Y486000D02*
D03*
X510000Y351750D02*
D03*
X465500Y370000D02*
D03*
X751500Y577750D02*
D03*
X363000Y397750D02*
D03*
X621500Y280000D02*
D03*
X630250Y279750D02*
D03*
X531750Y445500D02*
D03*
D111*
X622250Y396750D02*
D03*
Y409250D02*
D03*
Y421750D02*
D03*
Y434250D02*
D03*
Y484250D02*
D03*
Y471750D02*
D03*
Y446750D02*
D03*
Y459250D02*
D03*
D112*
X651250Y371250D02*
D03*
Y509750D02*
D03*
D113*
X413750Y507000D02*
D03*
X694250Y500750D02*
D03*
X680500Y290250D02*
D03*
X414250Y438750D02*
D03*
X758500Y529500D02*
D03*
X500000Y253000D02*
D03*
Y329000D02*
D03*
X447000Y312000D02*
D03*
X742750Y263750D02*
D03*
X710500Y501500D02*
D03*
X430000Y381750D02*
D03*
X688250Y470000D02*
D03*
X389000Y348000D02*
D03*
X785000Y607000D02*
D03*
X659500Y211500D02*
D03*
D114*
X556900Y426450D02*
D03*
X506100D02*
D03*
Y401050D02*
D03*
X531500D02*
D03*
X556900D02*
D03*
D115*
X681000Y242750D02*
D03*
X659000Y252250D02*
D03*
Y233250D02*
D03*
D116*
X563500Y639000D02*
D03*
X598510D02*
D03*
D117*
X553001Y507750D02*
D03*
X536999D02*
D03*
M02*
