G04*
G04 #@! TF.GenerationSoftware,Altium Limited,Altium Designer,20.2.8 (258)*
G04*
G04 Layer_Color=2752767*
%FSLAX44Y44*%
%MOMM*%
G71*
G04*
G04 #@! TF.SameCoordinates,AB2164AD-3A94-489E-A7C9-C1E693429951*
G04*
G04*
G04 #@! TF.FilePolarity,Positive*
G04*
G01*
G75*
%ADD136C,0.0677*%
%ADD137C,0.0339*%
D136*
X554782Y633250D02*
G03*
X554782Y633250I-2032J0D01*
G01*
Y644500D02*
G03*
X554782Y644500I-2032J0D01*
G01*
X565532Y654750D02*
G03*
X565532Y654750I-2032J0D01*
G01*
X549532Y496000D02*
G03*
X549532Y496000I-2032J0D01*
G01*
X715282Y207000D02*
G03*
X715282Y207000I-2032J0D01*
G01*
X484782Y342250D02*
G03*
X484782Y342250I-2032J0D01*
G01*
X496532Y400750D02*
G03*
X496532Y400750I-2032J0D01*
G01*
X522782Y341750D02*
G03*
X522782Y341750I-2032J0D01*
G01*
X549782Y485500D02*
G03*
X549782Y485500I-2032J0D01*
G01*
X534782Y428000D02*
G03*
X534782Y428000I-2032J0D01*
G01*
X584282Y417750D02*
G03*
X584282Y417750I-2032J0D01*
G01*
X592532Y417500D02*
G03*
X592532Y417500I-2032J0D01*
G01*
X753532Y577750D02*
G03*
X753532Y577750I-2032J0D01*
G01*
X632282Y279750D02*
G03*
X632282Y279750I-2032J0D01*
G01*
D137*
X553766Y633250D02*
G03*
X553766Y633250I-1016J0D01*
G01*
Y644500D02*
G03*
X553766Y644500I-1016J0D01*
G01*
X564516Y654750D02*
G03*
X564516Y654750I-1016J0D01*
G01*
X548516Y496000D02*
G03*
X548516Y496000I-1016J0D01*
G01*
X714266Y207000D02*
G03*
X714266Y207000I-1016J0D01*
G01*
X483766Y342250D02*
G03*
X483766Y342250I-1016J0D01*
G01*
X495516Y400750D02*
G03*
X495516Y400750I-1016J0D01*
G01*
X521766Y341750D02*
G03*
X521766Y341750I-1016J0D01*
G01*
X548766Y485500D02*
G03*
X548766Y485500I-1016J0D01*
G01*
X533766Y428000D02*
G03*
X533766Y428000I-1016J0D01*
G01*
X583266Y417750D02*
G03*
X583266Y417750I-1016J0D01*
G01*
X591516Y417500D02*
G03*
X591516Y417500I-1016J0D01*
G01*
X752516Y577750D02*
G03*
X752516Y577750I-1016J0D01*
G01*
X631266Y279750D02*
G03*
X631266Y279750I-1016J0D01*
G01*
M02*
