G04*
G04 #@! TF.GenerationSoftware,Altium Limited,Altium Designer,20.2.8 (258)*
G04*
G04 Layer_Physical_Order=1*
G04 Layer_Color=255*
%FSLAX44Y44*%
%MOMM*%
G71*
G04*
G04 #@! TF.SameCoordinates,AB2164AD-3A94-489E-A7C9-C1E693429951*
G04*
G04*
G04 #@! TF.FilePolarity,Positive*
G04*
G01*
G75*
%ADD11C,0.2000*%
%ADD12C,0.2540*%
%ADD14C,0.3000*%
%ADD15R,0.5400X0.6000*%
%ADD16R,0.2499X0.4501*%
%ADD17R,0.4501X0.2499*%
%ADD18R,0.9500X1.4001*%
%ADD19R,1.1501X0.7501*%
%ADD20R,1.1501X0.7000*%
%ADD21R,0.7000X1.1501*%
%ADD22R,0.7000X0.7000*%
%ADD23R,0.9000X0.7000*%
G04:AMPARAMS|DCode=24|XSize=1.95mm|YSize=0.6mm|CornerRadius=0.03mm|HoleSize=0mm|Usage=FLASHONLY|Rotation=90.000|XOffset=0mm|YOffset=0mm|HoleType=Round|Shape=RoundedRectangle|*
%AMROUNDEDRECTD24*
21,1,1.9500,0.5400,0,0,90.0*
21,1,1.8900,0.6000,0,0,90.0*
1,1,0.0600,0.2700,0.9450*
1,1,0.0600,0.2700,-0.9450*
1,1,0.0600,-0.2700,-0.9450*
1,1,0.0600,-0.2700,0.9450*
%
%ADD24ROUNDEDRECTD24*%
G04:AMPARAMS|DCode=25|XSize=0.2499mm|YSize=0.7mm|CornerRadius=0.075mm|HoleSize=0mm|Usage=FLASHONLY|Rotation=0.000|XOffset=0mm|YOffset=0mm|HoleType=Round|Shape=RoundedRectangle|*
%AMROUNDEDRECTD25*
21,1,0.2499,0.5501,0,0,0.0*
21,1,0.1000,0.7000,0,0,0.0*
1,1,0.1500,0.0500,-0.2750*
1,1,0.1500,-0.0500,-0.2750*
1,1,0.1500,-0.0500,0.2750*
1,1,0.1500,0.0500,0.2750*
%
%ADD25ROUNDEDRECTD25*%
G04:AMPARAMS|DCode=26|XSize=0.2499mm|YSize=1.1001mm|CornerRadius=0.075mm|HoleSize=0mm|Usage=FLASHONLY|Rotation=0.000|XOffset=0mm|YOffset=0mm|HoleType=Round|Shape=RoundedRectangle|*
%AMROUNDEDRECTD26*
21,1,0.2499,0.9501,0,0,0.0*
21,1,0.1000,1.1001,0,0,0.0*
1,1,0.1500,0.0500,-0.4751*
1,1,0.1500,-0.0500,-0.4751*
1,1,0.1500,-0.0500,0.4751*
1,1,0.1500,0.0500,0.4751*
%
%ADD26ROUNDEDRECTD26*%
G04:AMPARAMS|DCode=27|XSize=0.2499mm|YSize=0.7mm|CornerRadius=0.075mm|HoleSize=0mm|Usage=FLASHONLY|Rotation=90.000|XOffset=0mm|YOffset=0mm|HoleType=Round|Shape=RoundedRectangle|*
%AMROUNDEDRECTD27*
21,1,0.2499,0.5501,0,0,90.0*
21,1,0.1000,0.7000,0,0,90.0*
1,1,0.1500,0.2750,0.0500*
1,1,0.1500,0.2750,-0.0500*
1,1,0.1500,-0.2750,-0.0500*
1,1,0.1500,-0.2750,0.0500*
%
%ADD27ROUNDEDRECTD27*%
G04:AMPARAMS|DCode=28|XSize=0.2499mm|YSize=1.1001mm|CornerRadius=0.075mm|HoleSize=0mm|Usage=FLASHONLY|Rotation=90.000|XOffset=0mm|YOffset=0mm|HoleType=Round|Shape=RoundedRectangle|*
%AMROUNDEDRECTD28*
21,1,0.2499,0.9501,0,0,90.0*
21,1,0.1000,1.1001,0,0,90.0*
1,1,0.1500,0.4751,0.0500*
1,1,0.1500,0.4751,-0.0500*
1,1,0.1500,-0.4751,-0.0500*
1,1,0.1500,-0.4751,0.0500*
%
%ADD28ROUNDEDRECTD28*%
G04:AMPARAMS|DCode=29|XSize=0.2799mm|YSize=0.65mm|CornerRadius=0.0042mm|HoleSize=0mm|Usage=FLASHONLY|Rotation=180.000|XOffset=0mm|YOffset=0mm|HoleType=Round|Shape=RoundedRectangle|*
%AMROUNDEDRECTD29*
21,1,0.2799,0.6416,0,0,180.0*
21,1,0.2715,0.6500,0,0,180.0*
1,1,0.0084,-0.1358,0.3208*
1,1,0.0084,0.1358,0.3208*
1,1,0.0084,0.1358,-0.3208*
1,1,0.0084,-0.1358,-0.3208*
%
%ADD29ROUNDEDRECTD29*%
G04:AMPARAMS|DCode=30|XSize=0.65mm|YSize=0.2799mm|CornerRadius=0.0042mm|HoleSize=0mm|Usage=FLASHONLY|Rotation=180.000|XOffset=0mm|YOffset=0mm|HoleType=Round|Shape=RoundedRectangle|*
%AMROUNDEDRECTD30*
21,1,0.6500,0.2715,0,0,180.0*
21,1,0.6416,0.2799,0,0,180.0*
1,1,0.0084,-0.3208,0.1358*
1,1,0.0084,0.3208,0.1358*
1,1,0.0084,0.3208,-0.1358*
1,1,0.0084,-0.3208,-0.1358*
%
%ADD30ROUNDEDRECTD30*%
G04:AMPARAMS|DCode=31|XSize=5mm|YSize=5mm|CornerRadius=0.075mm|HoleSize=0mm|Usage=FLASHONLY|Rotation=180.000|XOffset=0mm|YOffset=0mm|HoleType=Round|Shape=RoundedRectangle|*
%AMROUNDEDRECTD31*
21,1,5.0000,4.8500,0,0,180.0*
21,1,4.8500,5.0000,0,0,180.0*
1,1,0.1500,-2.4250,2.4250*
1,1,0.1500,2.4250,2.4250*
1,1,0.1500,2.4250,-2.4250*
1,1,0.1500,-2.4250,-2.4250*
%
%ADD31ROUNDEDRECTD31*%
G04:AMPARAMS|DCode=32|XSize=0.3mm|YSize=0.7mm|CornerRadius=0.0045mm|HoleSize=0mm|Usage=FLASHONLY|Rotation=0.000|XOffset=0mm|YOffset=0mm|HoleType=Round|Shape=RoundedRectangle|*
%AMROUNDEDRECTD32*
21,1,0.3000,0.6910,0,0,0.0*
21,1,0.2910,0.7000,0,0,0.0*
1,1,0.0090,0.1455,-0.3455*
1,1,0.0090,-0.1455,-0.3455*
1,1,0.0090,-0.1455,0.3455*
1,1,0.0090,0.1455,0.3455*
%
%ADD32ROUNDEDRECTD32*%
G04:AMPARAMS|DCode=33|XSize=0.3mm|YSize=0.8499mm|CornerRadius=0.0045mm|HoleSize=0mm|Usage=FLASHONLY|Rotation=0.000|XOffset=0mm|YOffset=0mm|HoleType=Round|Shape=RoundedRectangle|*
%AMROUNDEDRECTD33*
21,1,0.3000,0.8409,0,0,0.0*
21,1,0.2910,0.8499,0,0,0.0*
1,1,0.0090,0.1455,-0.4204*
1,1,0.0090,-0.1455,-0.4204*
1,1,0.0090,-0.1455,0.4204*
1,1,0.0090,0.1455,0.4204*
%
%ADD33ROUNDEDRECTD33*%
G04:AMPARAMS|DCode=34|XSize=1.6mm|YSize=1.4001mm|CornerRadius=0.021mm|HoleSize=0mm|Usage=FLASHONLY|Rotation=0.000|XOffset=0mm|YOffset=0mm|HoleType=Round|Shape=RoundedRectangle|*
%AMROUNDEDRECTD34*
21,1,1.6000,1.3581,0,0,0.0*
21,1,1.5579,1.4001,0,0,0.0*
1,1,0.0420,0.7790,-0.6790*
1,1,0.0420,-0.7790,-0.6790*
1,1,0.0420,-0.7790,0.6790*
1,1,0.0420,0.7790,0.6790*
%
%ADD34ROUNDEDRECTD34*%
G04:AMPARAMS|DCode=35|XSize=0.5mm|YSize=0.5mm|CornerRadius=0.0625mm|HoleSize=0mm|Usage=FLASHONLY|Rotation=90.000|XOffset=0mm|YOffset=0mm|HoleType=Round|Shape=RoundedRectangle|*
%AMROUNDEDRECTD35*
21,1,0.5000,0.3750,0,0,90.0*
21,1,0.3750,0.5000,0,0,90.0*
1,1,0.1250,0.1875,0.1875*
1,1,0.1250,0.1875,-0.1875*
1,1,0.1250,-0.1875,-0.1875*
1,1,0.1250,-0.1875,0.1875*
%
%ADD35ROUNDEDRECTD35*%
G04:AMPARAMS|DCode=36|XSize=2.1001mm|YSize=1.6mm|CornerRadius=0.024mm|HoleSize=0mm|Usage=FLASHONLY|Rotation=90.000|XOffset=0mm|YOffset=0mm|HoleType=Round|Shape=RoundedRectangle|*
%AMROUNDEDRECTD36*
21,1,2.1001,1.5520,0,0,90.0*
21,1,2.0521,1.6000,0,0,90.0*
1,1,0.0480,0.7760,1.0260*
1,1,0.0480,0.7760,-1.0260*
1,1,0.0480,-0.7760,-1.0260*
1,1,0.0480,-0.7760,1.0260*
%
%ADD36ROUNDEDRECTD36*%
G04:AMPARAMS|DCode=37|XSize=1.8001mm|YSize=1.8999mm|CornerRadius=0.027mm|HoleSize=0mm|Usage=FLASHONLY|Rotation=90.000|XOffset=0mm|YOffset=0mm|HoleType=Round|Shape=RoundedRectangle|*
%AMROUNDEDRECTD37*
21,1,1.8001,1.8459,0,0,90.0*
21,1,1.7461,1.8999,0,0,90.0*
1,1,0.0540,0.9230,0.8730*
1,1,0.0540,0.9230,-0.8730*
1,1,0.0540,-0.9230,-0.8730*
1,1,0.0540,-0.9230,0.8730*
%
%ADD37ROUNDEDRECTD37*%
G04:AMPARAMS|DCode=38|XSize=1.8999mm|YSize=1.8999mm|CornerRadius=0.0285mm|HoleSize=0mm|Usage=FLASHONLY|Rotation=90.000|XOffset=0mm|YOffset=0mm|HoleType=Round|Shape=RoundedRectangle|*
%AMROUNDEDRECTD38*
21,1,1.8999,1.8429,0,0,90.0*
21,1,1.8429,1.8999,0,0,90.0*
1,1,0.0570,0.9215,0.9215*
1,1,0.0570,0.9215,-0.9215*
1,1,0.0570,-0.9215,-0.9215*
1,1,0.0570,-0.9215,0.9215*
%
%ADD38ROUNDEDRECTD38*%
G04:AMPARAMS|DCode=39|XSize=0.4001mm|YSize=1.35mm|CornerRadius=0.006mm|HoleSize=0mm|Usage=FLASHONLY|Rotation=90.000|XOffset=0mm|YOffset=0mm|HoleType=Round|Shape=RoundedRectangle|*
%AMROUNDEDRECTD39*
21,1,0.4001,1.3380,0,0,90.0*
21,1,0.3881,1.3500,0,0,90.0*
1,1,0.0120,0.6690,0.1940*
1,1,0.0120,0.6690,-0.1940*
1,1,0.0120,-0.6690,-0.1940*
1,1,0.0120,-0.6690,0.1940*
%
%ADD39ROUNDEDRECTD39*%
G04:AMPARAMS|DCode=40|XSize=1mm|YSize=1mm|CornerRadius=0.015mm|HoleSize=0mm|Usage=FLASHONLY|Rotation=90.000|XOffset=0mm|YOffset=0mm|HoleType=Round|Shape=RoundedRectangle|*
%AMROUNDEDRECTD40*
21,1,1.0000,0.9700,0,0,90.0*
21,1,0.9700,1.0000,0,0,90.0*
1,1,0.0300,0.4850,0.4850*
1,1,0.0300,0.4850,-0.4850*
1,1,0.0300,-0.4850,-0.4850*
1,1,0.0300,-0.4850,0.4850*
%
%ADD40ROUNDEDRECTD40*%
G04:AMPARAMS|DCode=41|XSize=1mm|YSize=0.6mm|CornerRadius=0.009mm|HoleSize=0mm|Usage=FLASHONLY|Rotation=90.000|XOffset=0mm|YOffset=0mm|HoleType=Round|Shape=RoundedRectangle|*
%AMROUNDEDRECTD41*
21,1,1.0000,0.5820,0,0,90.0*
21,1,0.9820,0.6000,0,0,90.0*
1,1,0.0180,0.2910,0.4910*
1,1,0.0180,0.2910,-0.4910*
1,1,0.0180,-0.2910,-0.4910*
1,1,0.0180,-0.2910,0.4910*
%
%ADD41ROUNDEDRECTD41*%
G04:AMPARAMS|DCode=42|XSize=0.8999mm|YSize=0.95mm|CornerRadius=0.0135mm|HoleSize=0mm|Usage=FLASHONLY|Rotation=270.000|XOffset=0mm|YOffset=0mm|HoleType=Round|Shape=RoundedRectangle|*
%AMROUNDEDRECTD42*
21,1,0.8999,0.9230,0,0,270.0*
21,1,0.8729,0.9500,0,0,270.0*
1,1,0.0270,-0.4615,-0.4365*
1,1,0.0270,-0.4615,0.4365*
1,1,0.0270,0.4615,0.4365*
1,1,0.0270,0.4615,-0.4365*
%
%ADD42ROUNDEDRECTD42*%
G04:AMPARAMS|DCode=43|XSize=0.95mm|YSize=1.4501mm|CornerRadius=0.0143mm|HoleSize=0mm|Usage=FLASHONLY|Rotation=90.000|XOffset=0mm|YOffset=0mm|HoleType=Round|Shape=RoundedRectangle|*
%AMROUNDEDRECTD43*
21,1,0.9500,1.4216,0,0,90.0*
21,1,0.9215,1.4501,0,0,90.0*
1,1,0.0285,0.7108,0.4607*
1,1,0.0285,0.7108,-0.4607*
1,1,0.0285,-0.7108,-0.4607*
1,1,0.0285,-0.7108,0.4607*
%
%ADD43ROUNDEDRECTD43*%
G04:AMPARAMS|DCode=44|XSize=0.95mm|YSize=1.4501mm|CornerRadius=0.0143mm|HoleSize=0mm|Usage=FLASHONLY|Rotation=180.000|XOffset=0mm|YOffset=0mm|HoleType=Round|Shape=RoundedRectangle|*
%AMROUNDEDRECTD44*
21,1,0.9500,1.4216,0,0,180.0*
21,1,0.9215,1.4501,0,0,180.0*
1,1,0.0285,-0.4607,0.7108*
1,1,0.0285,0.4607,0.7108*
1,1,0.0285,0.4607,-0.7108*
1,1,0.0285,-0.4607,-0.7108*
%
%ADD44ROUNDEDRECTD44*%
%ADD45R,0.6000X0.5400*%
%ADD46R,0.7000X0.9000*%
%ADD47R,1.0200X1.0400*%
%ADD48R,1.0400X1.0200*%
%ADD83C,1.5748*%
%ADD84R,1.5748X1.5748*%
%ADD87C,1.3208*%
%ADD91C,0.4000*%
%ADD92C,0.8000*%
%ADD93C,0.5000*%
%ADD94C,0.6000*%
%ADD95C,1.7000*%
%ADD96R,1.7000X1.7000*%
%ADD97C,2.0000*%
%ADD98C,1.5000*%
%ADD99C,1.9500*%
%ADD100R,1.5080X1.5080*%
%ADD101C,1.5080*%
%ADD102O,3.3160X6.6320*%
%ADD103C,1.6500*%
%ADD104R,1.6500X1.6500*%
%ADD105R,1.6350X1.6350*%
%ADD106C,1.6350*%
%ADD107O,1.0000X2.2000*%
%ADD108C,4.0000*%
%ADD109C,0.4000*%
G36*
X659750Y524250D02*
Y523971D01*
X659537Y523457D01*
X659143Y523063D01*
X658629Y522850D01*
X657871D01*
X657357Y523063D01*
X656963Y523457D01*
X656750Y523971D01*
Y524250D01*
Y531250D01*
X659750D01*
Y524250D01*
D02*
G37*
G36*
X654751D02*
Y523971D01*
X654538Y523457D01*
X654144Y523063D01*
X653630Y522850D01*
X652872D01*
X652358Y523063D01*
X651964Y523457D01*
X651751Y523971D01*
Y524250D01*
Y531250D01*
X654751D01*
Y524250D01*
D02*
G37*
G36*
X649750D02*
Y523971D01*
X649537Y523457D01*
X649143Y523063D01*
X648629Y522850D01*
X647871D01*
X647357Y523063D01*
X646963Y523457D01*
X646750Y523971D01*
Y524250D01*
Y531250D01*
X649750D01*
Y524250D01*
D02*
G37*
G36*
X644751D02*
Y523971D01*
X644538Y523457D01*
X644144Y523063D01*
X643630Y522850D01*
X642872D01*
X642358Y523063D01*
X641964Y523457D01*
X641751Y523971D01*
Y524250D01*
Y531250D01*
X644751D01*
Y524250D01*
D02*
G37*
G36*
X567599Y520348D02*
Y520180D01*
X567470Y519868D01*
X567231Y519629D01*
X566920Y519500D01*
X566751D01*
X566582Y519500D01*
X566269Y519629D01*
X566030Y519867D01*
X565900Y520179D01*
X565900Y520348D01*
X565900Y520348D01*
Y526749D01*
X567599D01*
Y520348D01*
D02*
G37*
G36*
X562600Y520348D02*
X562600Y520179D01*
X562470Y519867D01*
X562231Y519629D01*
X561918Y519500D01*
X561749Y519500D01*
X561581Y519500D01*
X561269Y519629D01*
X561030Y519868D01*
X560901Y520180D01*
Y520348D01*
Y526749D01*
X562600D01*
Y520348D01*
D02*
G37*
G36*
X557599Y520348D02*
Y520180D01*
X557470Y519868D01*
X557231Y519629D01*
X556920Y519500D01*
X556751D01*
X556582Y519500D01*
X556269Y519629D01*
X556030Y519867D01*
X555900Y520179D01*
X555900Y520348D01*
X555900Y520348D01*
Y526749D01*
X557599D01*
Y520348D01*
D02*
G37*
G36*
X552600Y520348D02*
X552600Y520179D01*
X552470Y519867D01*
X552231Y519629D01*
X551918Y519500D01*
X551749Y519500D01*
X551581Y519500D01*
X551269Y519629D01*
X551030Y519868D01*
X550901Y520180D01*
Y520348D01*
Y526749D01*
X552600D01*
Y520348D01*
D02*
G37*
G36*
X547599Y520348D02*
Y520180D01*
X547470Y519868D01*
X547231Y519629D01*
X546920Y519500D01*
X546751D01*
X546582Y519500D01*
X546269Y519629D01*
X546030Y519867D01*
X545900Y520179D01*
X545900Y520348D01*
X545900Y520348D01*
Y526749D01*
X547599D01*
Y520348D01*
D02*
G37*
G36*
X542600Y520348D02*
X542600Y520179D01*
X542470Y519867D01*
X542231Y519629D01*
X541918Y519500D01*
X541749Y519500D01*
X541581Y519500D01*
X541269Y519629D01*
X541030Y519868D01*
X540901Y520180D01*
Y520348D01*
Y526749D01*
X542600D01*
Y520348D01*
D02*
G37*
G36*
X537599Y520348D02*
Y520180D01*
X537470Y519868D01*
X537231Y519629D01*
X536920Y519500D01*
X536751D01*
X536582Y519500D01*
X536269Y519629D01*
X536030Y519867D01*
X535900Y520179D01*
X535900Y520348D01*
X535900Y520348D01*
Y526749D01*
X537599D01*
Y520348D01*
D02*
G37*
G36*
X532600Y520348D02*
X532600Y520179D01*
X532470Y519867D01*
X532231Y519629D01*
X531918Y519500D01*
X531749Y519500D01*
X531581Y519500D01*
X531269Y519629D01*
X531030Y519868D01*
X530901Y520180D01*
Y520348D01*
Y526749D01*
X532600D01*
Y520348D01*
D02*
G37*
G36*
X527599Y520348D02*
Y520180D01*
X527470Y519868D01*
X527231Y519629D01*
X526920Y519500D01*
X526751D01*
X526582Y519500D01*
X526269Y519629D01*
X526030Y519867D01*
X525900Y520179D01*
X525900Y520348D01*
X525900Y520348D01*
Y526749D01*
X527599D01*
Y520348D01*
D02*
G37*
G36*
X522600Y520348D02*
X522600Y520179D01*
X522470Y519867D01*
X522231Y519629D01*
X521918Y519500D01*
X521750Y519500D01*
X521581Y519500D01*
X521269Y519629D01*
X521030Y519868D01*
X520901Y520180D01*
Y520348D01*
Y526749D01*
X522600D01*
Y520348D01*
D02*
G37*
G36*
X517599Y520348D02*
Y520180D01*
X517470Y519868D01*
X517231Y519629D01*
X516920Y519500D01*
X516751D01*
X516582Y519500D01*
X516269Y519629D01*
X516030Y519867D01*
X515900Y520179D01*
X515900Y520348D01*
X515900Y520348D01*
Y526749D01*
X517599D01*
Y520348D01*
D02*
G37*
G36*
X512600Y520348D02*
X512600Y520179D01*
X512470Y519867D01*
X512231Y519629D01*
X511919Y519500D01*
X511750Y519500D01*
X511581Y519500D01*
X511269Y519629D01*
X511030Y519868D01*
X510901Y520180D01*
Y520348D01*
Y526749D01*
X512600D01*
Y520348D01*
D02*
G37*
G36*
X577500Y515149D02*
X571099Y515149D01*
X570930Y515149D01*
X570618Y515279D01*
X570379Y515518D01*
X570251Y515831D01*
X570251Y516000D01*
X570251Y516169D01*
X570380Y516480D01*
X570619Y516719D01*
X570930Y516848D01*
X577500D01*
Y515149D01*
D02*
G37*
G36*
X507882Y516719D02*
X508120Y516480D01*
X508249Y516169D01*
Y516000D01*
X508250Y515831D01*
X508121Y515518D01*
X507882Y515279D01*
X507570Y515149D01*
X507401Y515149D01*
Y515149D01*
X501000D01*
Y516848D01*
X507570D01*
X507882Y516719D01*
D02*
G37*
G36*
X577500Y510150D02*
X570930D01*
X570619Y510279D01*
X570380Y510518D01*
X570251Y510830D01*
Y510999D01*
X570251Y511168D01*
X570379Y511480D01*
X570618Y511720D01*
X570930Y511849D01*
X571099Y511850D01*
X577500D01*
Y510150D01*
D02*
G37*
G36*
X507570Y511849D02*
X507882Y511720D01*
X508121Y511480D01*
X508250Y511168D01*
X508249Y510999D01*
Y510830D01*
X508120Y510518D01*
X507882Y510279D01*
X507570Y510150D01*
X501000D01*
Y511850D01*
X507401D01*
X507570Y511849D01*
D02*
G37*
G36*
X658752Y505500D02*
X642750D01*
Y519500D01*
X658752D01*
Y505500D01*
D02*
G37*
G36*
X577500Y505149D02*
X571099Y505149D01*
X570930Y505149D01*
X570618Y505279D01*
X570379Y505518D01*
X570251Y505831D01*
X570251Y506000D01*
X570251Y506169D01*
X570380Y506480D01*
X570619Y506719D01*
X570930Y506848D01*
X577500D01*
Y505149D01*
D02*
G37*
G36*
X507882Y506719D02*
X508120Y506480D01*
X508249Y506169D01*
Y506000D01*
X508250Y505831D01*
X508121Y505518D01*
X507882Y505279D01*
X507570Y505149D01*
X507401Y505149D01*
Y505149D01*
X501000D01*
Y506848D01*
X507570D01*
X507882Y506719D01*
D02*
G37*
G36*
X577500Y500150D02*
X570930D01*
X570619Y500280D01*
X570380Y500518D01*
X570251Y500830D01*
Y500999D01*
X570251Y501168D01*
X570379Y501480D01*
X570618Y501720D01*
X570930Y501849D01*
X571099Y501850D01*
X577500D01*
Y500150D01*
D02*
G37*
G36*
X507570Y501849D02*
X507882Y501720D01*
X508121Y501480D01*
X508250Y501168D01*
X508249Y500999D01*
Y500830D01*
X508120Y500518D01*
X507882Y500280D01*
X507570Y500150D01*
X501000D01*
Y501850D01*
X507401D01*
X507570Y501849D01*
D02*
G37*
G36*
X577500Y495149D02*
X571099Y495149D01*
X570930Y495149D01*
X570618Y495279D01*
X570379Y495518D01*
X570251Y495831D01*
X570251Y496000D01*
X570251Y496169D01*
X570380Y496480D01*
X570619Y496719D01*
X570930Y496848D01*
X577500D01*
Y495149D01*
D02*
G37*
G36*
X507882Y496719D02*
X508120Y496480D01*
X508249Y496169D01*
Y496000D01*
X508250Y495831D01*
X508121Y495518D01*
X507882Y495279D01*
X507570Y495149D01*
X507401Y495149D01*
Y495149D01*
X501000D01*
Y496848D01*
X507570D01*
X507882Y496719D01*
D02*
G37*
G36*
X644782Y493767D02*
X641734D01*
Y502276D01*
X644782D01*
Y493767D01*
D02*
G37*
G36*
X659143Y501936D02*
X659537Y501543D01*
X659750Y501028D01*
Y500750D01*
Y493750D01*
X656750D01*
Y500750D01*
Y501028D01*
X656963Y501543D01*
X657357Y501936D01*
X657871Y502149D01*
X658629D01*
X659143Y501936D01*
D02*
G37*
G36*
X654144D02*
X654538Y501543D01*
X654751Y501028D01*
Y500750D01*
Y493750D01*
X651751D01*
Y500750D01*
Y501028D01*
X651964Y501543D01*
X652358Y501936D01*
X652872Y502149D01*
X653630D01*
X654144Y501936D01*
D02*
G37*
G36*
X649143D02*
X649537Y501543D01*
X649750Y501028D01*
Y500750D01*
Y493750D01*
X646750D01*
Y500750D01*
Y501028D01*
X646963Y501543D01*
X647357Y501936D01*
X647871Y502149D01*
X648629D01*
X649143Y501936D01*
D02*
G37*
G36*
X577500Y490150D02*
X570930D01*
X570619Y490280D01*
X570380Y490518D01*
X570251Y490830D01*
Y490999D01*
X570251Y491168D01*
X570379Y491480D01*
X570618Y491720D01*
X570930Y491849D01*
X571099Y491850D01*
X577500D01*
Y490150D01*
D02*
G37*
G36*
X507570Y491849D02*
X507882Y491720D01*
X508121Y491480D01*
X508250Y491168D01*
X508249Y490999D01*
Y490830D01*
X508120Y490518D01*
X507882Y490280D01*
X507570Y490150D01*
X501000D01*
Y491850D01*
X507401D01*
X507570Y491849D01*
D02*
G37*
G36*
X577500Y485149D02*
X571099Y485149D01*
X570930Y485149D01*
X570618Y485279D01*
X570379Y485518D01*
X570251Y485831D01*
X570251Y486000D01*
X570251Y486169D01*
X570380Y486480D01*
X570619Y486719D01*
X570930Y486848D01*
X577500D01*
Y485149D01*
D02*
G37*
G36*
X507882Y486719D02*
X508120Y486480D01*
X508249Y486169D01*
Y486000D01*
X508250Y485831D01*
X508121Y485518D01*
X507882Y485279D01*
X507570Y485149D01*
X507401Y485149D01*
Y485149D01*
X501000D01*
Y486848D01*
X507570D01*
X507882Y486719D01*
D02*
G37*
G36*
X577500Y480150D02*
X570930D01*
X570619Y480280D01*
X570380Y480518D01*
X570251Y480830D01*
Y480999D01*
X570251Y481168D01*
X570379Y481480D01*
X570618Y481720D01*
X570930Y481849D01*
X571099Y481850D01*
X577500D01*
Y480150D01*
D02*
G37*
G36*
X507570Y481849D02*
X507882Y481720D01*
X508121Y481480D01*
X508250Y481168D01*
X508249Y480999D01*
Y480830D01*
X508120Y480518D01*
X507882Y480280D01*
X507570Y480150D01*
X501000D01*
Y481850D01*
X507401D01*
X507570Y481849D01*
D02*
G37*
G36*
X577500Y475149D02*
X571099Y475149D01*
X570930Y475149D01*
X570618Y475279D01*
X570379Y475518D01*
X570251Y475831D01*
X570251Y476000D01*
X570251Y476169D01*
X570380Y476481D01*
X570619Y476719D01*
X570930Y476848D01*
X577500D01*
Y475149D01*
D02*
G37*
G36*
X507882Y476719D02*
X508120Y476481D01*
X508249Y476169D01*
Y476000D01*
X508250Y475831D01*
X508121Y475518D01*
X507882Y475279D01*
X507570Y475149D01*
X507401Y475149D01*
Y475149D01*
X501000D01*
Y476848D01*
X507570D01*
X507882Y476719D01*
D02*
G37*
G36*
X577500Y470150D02*
X570930D01*
X570619Y470280D01*
X570380Y470518D01*
X570251Y470830D01*
Y470999D01*
X570251Y471168D01*
X570379Y471480D01*
X570618Y471720D01*
X570930Y471849D01*
X571099Y471850D01*
X577500D01*
Y470150D01*
D02*
G37*
G36*
X507570Y471849D02*
X507882Y471720D01*
X508121Y471480D01*
X508250Y471168D01*
X508249Y470999D01*
Y470830D01*
X508120Y470518D01*
X507882Y470280D01*
X507570Y470150D01*
X501000D01*
Y471850D01*
X507401D01*
X507570Y471849D01*
D02*
G37*
G36*
X577500Y465149D02*
X571150D01*
X571099Y465149D01*
X570930Y465149D01*
X570618Y465279D01*
X570379Y465519D01*
X570251Y465831D01*
X570251Y466000D01*
X570251Y466169D01*
X570380Y466481D01*
X570619Y466719D01*
X570930Y466848D01*
X577500D01*
Y465149D01*
D02*
G37*
G36*
X507882Y466719D02*
X508120Y466481D01*
X508249Y466169D01*
Y466000D01*
X508250Y465831D01*
X508121Y465519D01*
X507882Y465279D01*
X507570Y465149D01*
X507401Y465149D01*
Y465149D01*
X501000D01*
Y466848D01*
X507570D01*
X507882Y466719D01*
D02*
G37*
G36*
X564500Y463249D02*
X514000D01*
Y513750D01*
X564500D01*
Y463249D01*
D02*
G37*
G36*
X577500Y460150D02*
X570930D01*
X570619Y460280D01*
X570380Y460518D01*
X570251Y460830D01*
Y460999D01*
X570251Y461168D01*
X570379Y461480D01*
X570618Y461720D01*
X570930Y461849D01*
X571099Y461850D01*
X577500D01*
Y460150D01*
D02*
G37*
G36*
X507570Y461849D02*
X507882Y461720D01*
X508121Y461480D01*
X508250Y461168D01*
X508249Y460999D01*
Y460830D01*
X508120Y460518D01*
X507882Y460280D01*
X507570Y460150D01*
X501000D01*
Y461850D01*
X507401D01*
X507570Y461849D01*
D02*
G37*
G36*
X566751Y457499D02*
X566920D01*
X567231Y457369D01*
X567470Y457131D01*
X567599Y456819D01*
Y456650D01*
Y450249D01*
X565900D01*
X565900Y456650D01*
X565900Y456819D01*
X566030Y457131D01*
X566269Y457370D01*
X566582Y457499D01*
X566751Y457499D01*
D02*
G37*
G36*
X562231Y457370D02*
X562470Y457131D01*
X562600Y456819D01*
X562600Y456650D01*
Y450249D01*
X560901D01*
Y456650D01*
Y456819D01*
X561030Y457131D01*
X561269Y457369D01*
X561581Y457499D01*
X561749D01*
X561918Y457499D01*
X562231Y457370D01*
D02*
G37*
G36*
X556751Y457499D02*
X556920D01*
X557231Y457369D01*
X557470Y457131D01*
X557599Y456819D01*
Y456650D01*
Y450249D01*
X555900D01*
X555900Y456650D01*
X555900Y456819D01*
X556030Y457131D01*
X556269Y457370D01*
X556582Y457499D01*
X556751Y457499D01*
D02*
G37*
G36*
X552231Y457370D02*
X552470Y457131D01*
X552600Y456819D01*
X552600Y456650D01*
Y450249D01*
X550901D01*
Y456650D01*
Y456819D01*
X551030Y457131D01*
X551269Y457369D01*
X551581Y457499D01*
X551749D01*
X551918Y457499D01*
X552231Y457370D01*
D02*
G37*
G36*
X546751Y457499D02*
X546920D01*
X547231Y457369D01*
X547470Y457131D01*
X547599Y456819D01*
Y456650D01*
Y450249D01*
X545900D01*
X545900Y456650D01*
X545900Y456819D01*
X546030Y457131D01*
X546269Y457370D01*
X546582Y457499D01*
X546751Y457499D01*
D02*
G37*
G36*
X542231Y457370D02*
X542470Y457131D01*
X542600Y456819D01*
X542600Y456650D01*
Y450249D01*
X540901D01*
Y456650D01*
Y456819D01*
X541030Y457131D01*
X541269Y457369D01*
X541581Y457499D01*
X541749D01*
X541918Y457499D01*
X542231Y457370D01*
D02*
G37*
G36*
X536751Y457499D02*
X536920D01*
X537231Y457369D01*
X537470Y457131D01*
X537599Y456819D01*
Y456650D01*
Y450249D01*
X535900D01*
X535900Y456650D01*
X535900Y456819D01*
X536030Y457131D01*
X536269Y457370D01*
X536582Y457499D01*
X536751Y457499D01*
D02*
G37*
G36*
X532231Y457370D02*
X532470Y457131D01*
X532600Y456819D01*
X532600Y456650D01*
Y450249D01*
X530901D01*
Y456650D01*
Y456819D01*
X531030Y457131D01*
X531269Y457369D01*
X531581Y457499D01*
X531749D01*
X531918Y457499D01*
X532231Y457370D01*
D02*
G37*
G36*
X526751Y457499D02*
X526920D01*
X527231Y457369D01*
X527470Y457131D01*
X527599Y456819D01*
Y456650D01*
Y450249D01*
X525900D01*
X525900Y456650D01*
X525900Y456819D01*
X526030Y457131D01*
X526269Y457370D01*
X526582Y457499D01*
X526751Y457499D01*
D02*
G37*
G36*
X522231Y457370D02*
X522470Y457131D01*
X522600Y456819D01*
X522600Y456650D01*
Y450249D01*
X520901D01*
Y456650D01*
Y456819D01*
X521030Y457131D01*
X521269Y457369D01*
X521581Y457499D01*
X521749D01*
X521918Y457499D01*
X522231Y457370D01*
D02*
G37*
G36*
X516751Y457499D02*
X516920D01*
X517231Y457369D01*
X517470Y457131D01*
X517599Y456819D01*
Y456650D01*
Y450249D01*
X515900D01*
X515900Y456650D01*
X515900Y456819D01*
X516030Y457131D01*
X516269Y457370D01*
X516582Y457499D01*
X516751Y457499D01*
D02*
G37*
G36*
X512231Y457370D02*
X512470Y457131D01*
X512600Y456819D01*
X512600Y456650D01*
Y450249D01*
X510901D01*
Y456650D01*
Y456819D01*
X511030Y457131D01*
X511269Y457369D01*
X511581Y457499D01*
X511749D01*
X511919Y457499D01*
X512231Y457370D01*
D02*
G37*
D11*
X590250Y534000D02*
X593250D01*
X587000Y530500D02*
Y530750D01*
X590250Y534000D01*
X586750Y530500D02*
X588250Y529000D01*
X581500Y529750D02*
X585250Y526000D01*
X581500Y529750D02*
Y534250D01*
X586000Y538750D01*
X662500Y478500D02*
X667750Y483750D01*
X610250Y570500D02*
Y571500D01*
X610215Y570465D02*
X610250Y570500D01*
X576250Y511000D02*
X578250D01*
X580750Y513500D02*
Y523500D01*
X578250Y511000D02*
X580750Y513500D01*
X584000Y509250D02*
Y509500D01*
X574250Y506250D02*
X574500Y506000D01*
X580750D02*
X584000Y509250D01*
X413950Y417200D02*
X451272Y454522D01*
X742500Y520750D02*
X747750D01*
X503500Y481250D02*
X503750Y481000D01*
X482500Y481250D02*
X503500D01*
X457750Y506000D02*
X482500Y481250D01*
X457750Y506000D02*
Y538250D01*
X463500Y544000D01*
X485500Y486000D02*
X502500D01*
X463500Y508000D02*
X485500Y486000D01*
X463500Y508000D02*
Y536000D01*
X475250Y534500D02*
X476250Y535500D01*
X489500Y511500D02*
X489750Y511250D01*
X456750Y550750D02*
X463000D01*
X505250D01*
X666250Y431250D02*
X696000D01*
X463000Y555500D02*
X498250D01*
X588250Y524421D02*
Y529000D01*
X536750Y523750D02*
X537000Y523500D01*
X440750Y436000D02*
X451522Y446772D01*
X440750Y394750D02*
Y436000D01*
X447250Y434250D02*
X451522Y438522D01*
X447250Y397000D02*
Y434250D01*
Y397000D02*
X465750Y378500D01*
X451272Y454272D02*
Y454522D01*
X413950Y381700D02*
Y417200D01*
X421750Y433250D02*
X450362Y461862D01*
X398500Y433250D02*
X421750D01*
X363000Y397750D02*
X398500Y433250D01*
X521500Y524250D02*
X521750Y524500D01*
X526500Y523750D02*
X526750Y524000D01*
X422750Y595750D02*
X463000Y555500D01*
X440750Y394750D02*
X465500Y370000D01*
X423000Y584500D02*
X456750Y550750D01*
X626500Y522000D02*
Y549750D01*
X640500Y563750D01*
X668750D01*
X673250Y559250D01*
Y545500D02*
Y559250D01*
X669000Y541250D02*
X673250Y545500D01*
X663000Y541250D02*
X669000D01*
X667750Y483750D02*
Y512750D01*
X673500Y518500D01*
X673500D02*
X673500D01*
X649500Y536500D02*
Y539750D01*
Y536500D02*
X653250Y532750D01*
Y527750D02*
Y532750D01*
X661000Y535750D02*
Y540000D01*
X658251Y533001D02*
X661000Y535750D01*
X658251Y527750D02*
Y533001D01*
X736750Y527750D02*
X747500Y538500D01*
X658251Y527750D02*
X736750D01*
X658500Y525750D02*
X660750D01*
X663500Y523000D01*
Y485250D02*
Y523000D01*
X658251Y525999D02*
Y527750D01*
X655250Y477000D02*
X663500Y485250D01*
X662500Y427500D02*
Y478500D01*
X655250Y407000D02*
Y477000D01*
X662500Y411250D02*
Y427500D01*
X763500Y538500D02*
X779000Y523000D01*
X775250Y490000D02*
X779000Y493750D01*
Y523000D01*
X716000Y490000D02*
X775250D01*
X702500Y476500D02*
X716000Y490000D01*
X747500Y538500D02*
X763500D01*
X740670Y518920D02*
X742500Y520750D01*
X740670Y501139D02*
Y518920D01*
X655250Y407000D02*
X702250Y360000D01*
X662500Y411250D02*
X707000Y366750D01*
X770500D01*
X702250Y360000D02*
X766250D01*
X777126Y349124D01*
X662500Y427500D02*
X666250Y431250D01*
X770500Y366750D02*
X776250Y361000D01*
X585250Y523178D02*
X589750Y518678D01*
X585250Y523178D02*
Y526000D01*
X588250Y524421D02*
X592750Y519921D01*
X586000Y538750D02*
X586250Y538500D01*
X586000Y538750D02*
X594500D01*
X583750Y491000D02*
X592750Y500000D01*
X576250Y491000D02*
X583750D01*
X592750Y500000D02*
Y519921D01*
X576000Y496000D02*
X583750D01*
X589750Y502000D01*
Y518678D01*
X697000Y476500D02*
X702500D01*
X696250Y477250D02*
X697000Y476500D01*
X777126Y345874D02*
X778000Y345000D01*
X777126Y345874D02*
Y349124D01*
X776250Y360114D02*
X786000Y350364D01*
Y345000D02*
Y350364D01*
X776250Y360114D02*
Y361000D01*
X504000Y516399D02*
X504150Y516250D01*
X504250D01*
X574500Y506000D02*
X580750D01*
X594500Y533749D02*
X594749Y533999D01*
X594500Y538750D02*
X594749Y539000D01*
X609250Y562750D02*
X609500Y563000D01*
X589257Y562750D02*
X609250D01*
X587500Y545759D02*
Y560993D01*
X589257Y562750D01*
Y544001D02*
X594749D01*
X587500Y545759D02*
X589257Y544001D01*
X610000Y563750D02*
X610215Y563965D01*
Y570465D01*
X653250Y527750D02*
X653250Y527750D01*
X620250Y515257D02*
Y532241D01*
X615250Y513500D02*
X618493D01*
X620250Y515257D01*
X613251Y533999D02*
X618493D01*
X620250Y532241D01*
X611501Y550750D02*
Y561749D01*
D12*
X569750Y426750D02*
X571000D01*
X569625Y426625D02*
X569750Y426750D01*
X577500Y540250D02*
Y600750D01*
X566751Y529501D02*
X577500Y540250D01*
X566751Y523749D02*
Y529501D01*
X561500Y426500D02*
X561625Y426625D01*
X569625D01*
X747625Y522875D02*
Y529875D01*
D14*
X414000Y451750D02*
Y461000D01*
Y451750D02*
Y461000D01*
X405750Y470250D02*
X414000Y462000D01*
X413750Y494500D02*
X414000Y494250D01*
Y485002D02*
Y494250D01*
X479500Y460250D02*
X488750D01*
X489000Y460500D01*
X423003Y476000D02*
X504000D01*
X414000Y485002D02*
X423003Y476000D01*
X422999Y470999D02*
X504000D01*
X414000Y462000D02*
X422999Y470999D01*
X366000Y470250D02*
X405750D01*
X405748Y476750D02*
X414000Y485002D01*
X366000Y476750D02*
X405748D01*
X560750Y413250D02*
X561250Y412750D01*
X561750Y413250D02*
X562000Y413500D01*
X571000D01*
X458000Y405500D02*
X460500D01*
X632500Y513320D02*
Y523000D01*
X630000Y525500D02*
Y545000D01*
Y525500D02*
X632500Y523000D01*
X636250Y526750D02*
Y530000D01*
X630000Y545000D02*
X639500Y554500D01*
X636250Y530000D02*
X637000Y530750D01*
X639500Y554500D02*
X663750D01*
X633750Y512070D02*
Y515000D01*
X536750Y523750D02*
Y532750D01*
X531750Y523750D02*
Y607250D01*
X760750Y279000D02*
X762500D01*
X750750Y406000D02*
Y408580D01*
X740750Y406250D02*
Y408080D01*
X740500Y408330D02*
X740750Y408080D01*
X720750Y406500D02*
Y408500D01*
X475500Y507250D02*
Y518250D01*
X561250Y359750D02*
X563133D01*
X563191Y359691D01*
X571750Y361250D02*
Y370000D01*
Y361250D02*
X572000Y361000D01*
X581001Y360000D02*
X582250D01*
X580876Y360126D02*
X581001Y360000D01*
X522250Y369500D02*
Y376250D01*
Y369500D02*
X522500Y369250D01*
X489090Y451590D02*
X489500Y452000D01*
X489625Y451375D02*
X489930Y451680D01*
X489410Y451590D02*
X489500Y451500D01*
X488750D02*
X489000Y451750D01*
X480250Y451500D02*
X488750D01*
X489930Y451680D02*
X500680D01*
X504000Y455000D01*
X458750Y436000D02*
X470383D01*
X470250Y436250D02*
Y446000D01*
Y436250D02*
X470500Y436000D01*
X480750Y436250D02*
X482500D01*
X480750Y436250D02*
X480750Y436250D01*
X377500Y520250D02*
X388750D01*
X389000Y520500D01*
X389250Y521250D02*
Y530500D01*
X388750Y520750D02*
X389250Y521250D01*
X397750Y520500D02*
X399750D01*
X397625Y520625D02*
X397750Y520500D01*
X377000Y457000D02*
X379750D01*
X376875Y457125D02*
X377000Y457000D01*
X467500Y340000D02*
X469250D01*
X467375Y340125D02*
X467500Y340000D01*
X448750Y355500D02*
X458000D01*
X458750Y354750D01*
X458750Y356750D02*
Y366000D01*
X458500Y356500D02*
X458750Y356750D01*
X467750Y296500D02*
X470500D01*
X467750Y296500D02*
X467750Y296500D01*
X459000Y286500D02*
Y295250D01*
X448250Y296500D02*
X450250D01*
X450250Y296500D01*
X521750Y327500D02*
X529500D01*
X534250Y333250D02*
X542750D01*
X546000Y330000D01*
X548000Y330250D02*
X560000D01*
X547000Y330000D02*
Y341250D01*
X519250Y336250D02*
X526000D01*
X518750Y336750D02*
X519250Y336250D01*
X513500Y343750D02*
Y344500D01*
Y343750D02*
X513500Y343750D01*
X522250Y350000D02*
Y362500D01*
X522000Y362750D02*
X522250Y362500D01*
X523500Y363250D02*
X533000D01*
X523250Y363000D02*
X523500Y363250D01*
X522000Y368750D02*
X522500Y369250D01*
X543000Y413000D02*
X543250Y413250D01*
X540000Y406500D02*
Y411750D01*
X536500Y403000D02*
X540000Y406500D01*
X546000Y403000D02*
Y412250D01*
X561250Y403500D02*
Y412750D01*
X526000Y408750D02*
Y410750D01*
X544000Y436750D02*
X549750D01*
X544250Y437500D02*
Y441000D01*
X546751Y443501D01*
Y453249D01*
X535000Y436500D02*
Y441000D01*
X536751Y442751D01*
Y453249D01*
X533250Y436000D02*
X533750Y436500D01*
X526500Y436000D02*
X533250D01*
X549750Y436750D02*
X552000Y434500D01*
X551749Y441750D02*
X560500Y433000D01*
X551749Y441750D02*
Y453249D01*
X541749Y523749D02*
Y554000D01*
X541000Y553500D02*
X541250Y553750D01*
Y557000D01*
X538750Y559500D02*
X541250Y557000D01*
X538750Y559500D02*
Y562250D01*
X550250Y548500D02*
Y553180D01*
X551320Y554250D01*
X550250Y553500D02*
Y557250D01*
X548000Y559500D02*
X550250Y557250D01*
X548000Y559500D02*
Y562250D01*
X670000Y440000D02*
X671250D01*
X671305Y439945D01*
X669500Y477750D02*
Y477750D01*
X670000Y469750D02*
X681250D01*
X750750Y408580D02*
X750835Y408665D01*
X740500Y408330D02*
X740710Y408540D01*
X720710Y408540D02*
X720750Y408500D01*
X670250Y449750D02*
X671500D01*
X671570Y449820D01*
X670250Y459750D02*
X671500D01*
X671570Y459820D01*
X700750Y511750D02*
Y513250D01*
X700710Y511710D02*
X700750Y511750D01*
X710750Y511500D02*
Y513250D01*
X710710Y511460D02*
X710750Y511500D01*
X720750D02*
Y513250D01*
X720710Y511460D02*
X720750Y511500D01*
X730750Y511750D02*
Y513250D01*
X730710Y511710D02*
X730750Y511750D01*
X761250Y520750D02*
X771000D01*
X364000Y550250D02*
X377500D01*
X350250D02*
X364000D01*
X364250Y550500D02*
Y561000D01*
X364000Y550250D02*
X364250Y550500D01*
X754500Y313250D02*
X760750Y307000D01*
X769750Y288750D02*
Y307000D01*
X760750D02*
X769750D01*
X754500Y313250D02*
Y329250D01*
X778500Y270750D02*
Y271500D01*
X778410Y271590D02*
X778500Y271500D01*
X769750Y270750D02*
Y279000D01*
X762500D02*
X762750Y278750D01*
X778500Y279000D02*
X786750D01*
X779000Y298000D02*
X786500D01*
X761750D02*
X762750D01*
X762750Y298000D01*
X790000Y392250D02*
X791000D01*
X789875Y392375D02*
X790000Y392250D01*
X782250Y375750D02*
Y376750D01*
X782125Y376875D02*
X782250Y376750D01*
X761250Y375250D02*
Y376500D01*
X761125Y376625D02*
X761250Y376500D01*
X752750Y383500D02*
X753500D01*
X753625Y383375D01*
X612000Y467250D02*
X612500D01*
X611750Y467000D02*
X612000Y467250D01*
X604500Y458250D02*
Y459500D01*
X604410Y459590D02*
X604500Y459500D01*
X604250Y489000D02*
Y489750D01*
Y489000D02*
X604285Y488965D01*
X604809Y513691D02*
X605250Y513250D01*
X605500Y505000D02*
Y514250D01*
X614000Y505750D02*
Y506500D01*
X613910Y506590D02*
X614000Y506500D01*
X618750Y570500D02*
Y571750D01*
Y570500D02*
X618785Y570465D01*
X760750Y521250D02*
X761250Y520750D01*
X760500Y520500D02*
X760750Y520250D01*
X669500Y477750D02*
X671441Y479691D01*
X730500Y429250D02*
Y430250D01*
Y429250D02*
X730585Y429165D01*
X751610Y443000D02*
X752000D01*
X751360Y443250D02*
X751610Y443000D01*
X750930Y442820D02*
X751360Y443250D01*
X750867Y477750D02*
X752000D01*
X750809Y477809D02*
X750867Y477750D01*
X780750Y450000D02*
X781250D01*
X780500Y450250D02*
X780750Y450000D01*
X780195Y449945D02*
X780500Y450250D01*
X780250Y470000D02*
X781500D01*
X780195Y469945D02*
X780250Y470000D01*
X502500Y436500D02*
Y445500D01*
X502250Y436250D02*
X502500Y436500D01*
X491000Y436000D02*
X492000D01*
X492125Y436125D01*
X526000Y410750D02*
X526000Y410750D01*
X517750Y417500D02*
X518430D01*
X518680Y417750D01*
X518840Y417590D01*
X512250Y406000D02*
X513000D01*
X512125Y405875D02*
X512250Y406000D01*
X502000Y396250D02*
Y405250D01*
X502250Y405500D01*
X490500Y405750D02*
X492000D01*
X492000Y405750D01*
X460500Y405500D02*
X460625Y405625D01*
X471000Y396500D02*
Y405500D01*
X481250Y405750D02*
X481500D01*
X481000Y405500D02*
X481250Y405750D01*
X480750Y405750D02*
X481000Y405500D01*
X454500Y416500D02*
X463750D01*
X454500Y425250D02*
X463750D01*
X464250Y424750D01*
X467500Y417000D02*
X476750D01*
X467250Y416750D02*
X467500Y417000D01*
X466500Y425250D02*
X476500D01*
X574500Y501000D02*
X581000D01*
X574250Y516500D02*
Y527000D01*
X720710Y417710D02*
X721250Y418250D01*
X561750Y531500D02*
X568000Y537750D01*
X562000Y600250D02*
Y600500D01*
Y545000D02*
Y600250D01*
X489750Y511250D02*
X490000Y511000D01*
X503999D02*
X504000Y510999D01*
X490000Y511000D02*
X503999D01*
X496250Y496000D02*
X496250Y496000D01*
X489501Y500999D02*
X502250D01*
X489500Y501000D02*
X489501Y500999D01*
X496250Y496000D02*
X502250D01*
X475250Y518500D02*
X475500Y518250D01*
X476250Y535500D02*
X489250D01*
X489500Y511500D02*
Y522500D01*
Y491000D02*
X489501Y490999D01*
X561750Y523750D02*
Y531500D01*
X637000Y530750D02*
X647750Y541500D01*
X561749Y523749D02*
X561750Y523750D01*
X556750Y539750D02*
X562000Y545000D01*
X556750Y523750D02*
Y539750D01*
X551500Y567750D02*
X557000Y562250D01*
Y548000D02*
Y562250D01*
X551750Y542750D02*
X557000Y548000D01*
X511500Y592750D02*
X511750Y592500D01*
X511500Y592750D02*
X511750Y593000D01*
Y523750D02*
Y592500D01*
Y593000D02*
Y593250D01*
X577750Y447750D02*
Y447750D01*
X601500Y362750D02*
Y424000D01*
X577750Y447750D02*
X601500Y424000D01*
X566750Y453500D02*
X567250Y453000D01*
X572500D01*
X577750Y447750D01*
X594500Y343750D02*
Y413753D01*
X594000Y414253D02*
X594500Y413753D01*
X563003Y445250D02*
X594000Y414253D01*
X517000Y586250D02*
Y586750D01*
Y586250D02*
X517000Y586250D01*
X516750Y586000D02*
X517000Y586250D01*
X511749Y523749D02*
X511750Y523750D01*
X516750Y523750D02*
X516751Y523749D01*
X516750Y523750D02*
Y586000D01*
X521750Y524500D02*
Y561500D01*
X526750Y524000D02*
Y567750D01*
X680000Y418500D02*
X680500Y418000D01*
X551500Y567750D02*
Y607750D01*
X551749Y523749D02*
X551750Y523750D01*
Y542750D01*
X546751Y545001D02*
X550250Y548500D01*
X546751Y523749D02*
Y545001D01*
X742750Y478000D02*
X743000D01*
X719985Y477766D02*
X720250Y477500D01*
X742969Y454750D02*
X750750D01*
X742500D02*
X742969D01*
X742109Y454391D02*
X742750Y453750D01*
X731360Y466390D02*
X731750Y466000D01*
X719500Y454250D02*
X719969Y453781D01*
X681191Y479691D02*
X681750Y480250D01*
X604250Y467250D02*
X604410Y467090D01*
X604000Y480750D02*
X604285Y481035D01*
X604500Y467250D02*
X604750Y467000D01*
X604410Y459590D02*
Y467090D01*
X782000Y383750D02*
X782125Y383625D01*
X761125Y383375D02*
X782125D01*
X742915Y442836D02*
X743109Y442641D01*
X753625Y383375D02*
X761125D01*
X769750Y322000D02*
X770000D01*
X769750Y279000D02*
Y288750D01*
X762750Y278750D02*
X763000Y279000D01*
X719750Y442750D02*
X720000Y442500D01*
X730585Y418585D02*
Y429165D01*
X671305Y439945D02*
X681805D01*
X501375Y436125D02*
X502000Y436750D01*
X389000Y520750D02*
X389125Y520625D01*
X470691Y435941D02*
X471000Y436250D01*
X366000Y457500D02*
X366375Y457125D01*
X470441Y435941D02*
X470691D01*
X526000Y417500D02*
X526250Y417750D01*
X571500Y360500D02*
X572000Y361000D01*
X518840Y417590D02*
X526000D01*
X501750Y406000D02*
X502250Y405500D01*
X458750Y296500D02*
X459000Y296750D01*
X770000Y418750D02*
X779000D01*
X760500Y418500D02*
X760835Y418165D01*
X782000Y392375D02*
X789875D01*
X625000Y511500D02*
X633750D01*
X752625Y392375D02*
X760945D01*
X613500Y514250D02*
X613910Y513840D01*
X804350Y340100D02*
Y365500D01*
X760945Y392375D02*
X782000D01*
X778410Y279090D02*
X778500Y279000D01*
X778320Y279180D02*
X778410Y279090D01*
X778000Y297750D02*
X778320Y297430D01*
X778410Y271590D02*
Y279090D01*
X778160Y297910D02*
Y320840D01*
X458750Y354750D02*
X459000Y355000D01*
Y340250D02*
X459125Y340125D01*
X449500Y339750D02*
X449625Y339875D01*
X458625D01*
X526250Y426000D02*
X526660Y426410D01*
X526500Y427250D02*
Y428250D01*
X518750Y436000D02*
X526500Y428250D01*
X519250Y436000D02*
X526751Y443501D01*
X518750Y436000D02*
X519250D01*
X526751Y443501D02*
Y453249D01*
X527590Y426410D02*
X527750Y426250D01*
X526250Y426750D02*
Y426750D01*
X460625Y405625D02*
X467375D01*
X463750Y416500D02*
X464000Y416750D01*
X633750Y515000D02*
X643250Y524500D01*
X632500Y513320D02*
X633750Y512070D01*
Y494500D02*
Y503430D01*
X632750Y503000D02*
X633000Y503250D01*
X625250Y503000D02*
X632750D01*
X658250Y490250D02*
Y496000D01*
X656250Y488250D02*
X658250Y490250D01*
X640000Y488250D02*
X656250D01*
X633750Y494500D02*
X640000Y488250D01*
X717969Y444309D02*
X718250Y444590D01*
X720000Y433750D02*
Y442500D01*
X672000Y418500D02*
X680000D01*
X761125Y376625D02*
Y383375D01*
X761000Y383500D02*
X761125Y383375D01*
X547750Y313750D02*
Y315250D01*
X550250Y317750D01*
X561250D01*
X550250Y310500D02*
X550250Y310500D01*
X572000D01*
X521750Y445500D02*
X521750Y445500D01*
X750835Y408665D02*
Y416915D01*
X671570Y459820D02*
X679180D01*
X680000Y458750D02*
Y459000D01*
X679180Y459820D02*
X680000Y459000D01*
X671570Y449820D02*
X680680D01*
X681000Y449500D01*
X685750Y489250D02*
X694250D01*
X700710Y503210D02*
Y511710D01*
X700500Y503000D02*
X700710Y503210D01*
X720500Y502750D02*
X720710Y502960D01*
Y511460D01*
Y408540D02*
Y417710D01*
X710500Y505000D02*
X710710Y505210D01*
Y511460D01*
X560500Y425750D02*
Y433000D01*
X556750Y445500D02*
Y451499D01*
X556750Y451499D01*
X576250Y486000D02*
X588000D01*
X588000Y486000D01*
X587815Y481000D02*
X595680D01*
X582815Y476000D02*
X587815Y481000D01*
X574500Y476000D02*
X582815D01*
X504000Y516399D02*
Y523000D01*
X503501Y334499D02*
Y360000D01*
X471500Y354000D02*
X488999Y336501D01*
X462001Y327499D02*
X491499D01*
X462000Y327500D02*
X462001Y327499D01*
X750750Y417000D02*
X750835Y416915D01*
X740710Y417460D02*
X741000Y417750D01*
X740710Y408540D02*
Y417460D01*
X730710Y502960D02*
Y511710D01*
X730250Y502500D02*
X730710Y502960D01*
X533750Y313250D02*
X541249D01*
X542000Y312499D01*
X489501Y490999D02*
X502250D01*
X496000Y506000D02*
X502250D01*
X496000Y506000D02*
X496000Y506000D01*
X561750Y446503D02*
X563003Y445250D01*
X561750Y446503D02*
Y451499D01*
X521750Y445500D02*
Y451499D01*
X531750Y445500D02*
Y451499D01*
Y445500D02*
X531750Y445500D01*
X541750Y445500D02*
Y451499D01*
Y445500D02*
X541750Y445500D01*
X556750Y523750D02*
X556751Y523749D01*
X531749D02*
X531750Y523750D01*
X504000Y466000D02*
X522750D01*
X523500Y466750D01*
X536751Y453249D02*
Y466751D01*
X537000Y467000D01*
X556999Y480999D02*
X574500D01*
X556750Y480750D02*
X556999Y480999D01*
X541749Y502249D02*
Y523749D01*
X541500Y502000D02*
X541749Y502249D01*
X613910Y506590D02*
Y513840D01*
X618785Y563215D02*
X619000Y563000D01*
X618785Y563215D02*
Y570465D01*
X613250Y539250D02*
X613251Y539250D01*
Y541499D02*
Y543500D01*
Y539250D02*
Y541499D01*
X613500Y541250D01*
X619500Y543007D02*
Y562070D01*
X617743Y541250D02*
X619500Y543007D01*
X613500Y541250D02*
X617743D01*
X618820Y562750D02*
X619500Y562070D01*
X606499Y527250D02*
X606500Y527249D01*
Y515000D02*
Y527249D01*
X601501Y527250D02*
X606499D01*
X596750D02*
X601501D01*
X604285Y481035D02*
Y488965D01*
X604750Y467000D02*
X611750D01*
X595680Y481000D02*
Y481180D01*
Y467000D02*
Y481000D01*
Y481180D02*
X595750Y481250D01*
X573750Y476000D02*
X574500D01*
X782000Y392375D02*
Y415750D01*
Y392320D02*
Y392375D01*
X760835Y392485D02*
X760945Y392375D01*
X752500Y392250D02*
X752625Y392375D01*
X771757Y336500D02*
X790993D01*
X791500Y363250D02*
X792750Y362000D01*
Y338257D02*
Y362000D01*
X790993Y336500D02*
X792750Y338257D01*
X770000D02*
Y345000D01*
Y338257D02*
X771757Y336500D01*
X804000Y339750D02*
X804350Y340100D01*
X782125Y383375D02*
Y383625D01*
Y376875D02*
Y383375D01*
X761125D02*
X761125Y383375D01*
X779000Y418750D02*
X782000Y415750D01*
X760835Y392485D02*
Y418165D01*
X806000Y340350D02*
X815150D01*
X814000Y313250D02*
X817500Y316750D01*
X778500Y313250D02*
X814000D01*
X815150Y340350D02*
X816494Y339006D01*
X817500Y338000D01*
Y316750D02*
Y338000D01*
X754500Y329250D02*
X761500Y336250D01*
X762250Y315007D02*
Y320750D01*
Y315007D02*
X764007Y313250D01*
X777250D01*
X777750Y312750D01*
X762000Y321000D02*
X762250Y320750D01*
X763000Y279000D02*
X769680D01*
X762750Y298000D02*
X769000D01*
X769680Y279000D02*
X769750D01*
X769000Y298000D02*
X769250Y298250D01*
X770000Y322000D02*
Y328500D01*
X762000Y336500D02*
Y345000D01*
Y336500D02*
X770000Y328500D01*
X769875Y320875D02*
X770000Y321000D01*
X778320Y279180D02*
Y297430D01*
X778410Y279090D02*
Y279160D01*
X778750Y279500D01*
X778000Y297750D02*
X778160Y297910D01*
X778000Y321000D02*
X778160Y320840D01*
X552500Y302000D02*
Y306750D01*
X554750Y299750D02*
X561250D01*
X552500Y302000D02*
X554750Y299750D01*
X544249Y290999D02*
X548250Y295000D01*
X547000Y310000D02*
X548250Y308750D01*
Y295000D02*
Y308750D01*
X542000Y311750D02*
Y312499D01*
X545125Y307125D02*
X547500Y309500D01*
X520501Y299501D02*
X542493D01*
X544624Y307125D02*
X545125D01*
X544250Y306750D02*
X544624Y307125D01*
X542493Y299501D02*
X544250Y301258D01*
Y306750D01*
X520501Y290999D02*
X544249D01*
X544249Y307999D02*
X544250Y308000D01*
X520501Y307999D02*
X544249D01*
X458500Y356500D02*
X459000Y356000D01*
X458750Y340000D02*
X459000Y340250D01*
X458625Y339875D02*
X458750Y340000D01*
X459125Y340125D02*
X467375D01*
X490750Y345500D02*
X494000D01*
X498499Y336501D02*
Y341001D01*
X494000Y345500D02*
X498499Y341001D01*
X485750Y350500D02*
Y356750D01*
Y350500D02*
X490750Y345500D01*
X489930Y451680D02*
X490000Y451750D01*
X489625Y445125D02*
Y451375D01*
Y445125D02*
X489750Y445000D01*
X527590Y426410D02*
X542910D01*
X543000Y426500D01*
X509070Y426320D02*
X526000D01*
X508750Y426000D02*
X509070Y426320D01*
X543750Y413250D02*
X543875Y413375D01*
X543000Y413500D02*
X543250Y413250D01*
X489090Y451590D02*
X489410D01*
X770500Y450250D02*
X770805Y449945D01*
X780195D01*
X771250Y470000D02*
X771305Y469945D01*
X780195D01*
X719969Y442890D02*
Y453781D01*
X720500Y443250D02*
X720805Y442945D01*
X731445D01*
X731500Y443000D01*
X731470Y454391D02*
X742109D01*
X731250Y454000D02*
X731470Y454220D01*
X731485Y453235D02*
X731750Y453500D01*
X731485Y443015D02*
Y453235D01*
Y443015D02*
X731500Y443000D01*
X742750Y478000D02*
X742984Y478234D01*
X743000Y478000D02*
X743191Y477809D01*
X750809D01*
X731470Y465889D02*
X742639D01*
X731360Y466390D02*
Y477390D01*
X731250Y477500D02*
X731360Y477390D01*
X731470Y454391D02*
Y465889D01*
Y454220D02*
Y454391D01*
X719969D02*
Y465889D01*
X708500Y454391D02*
X719969D01*
X708470Y455030D02*
Y465889D01*
X718250Y444590D02*
Y444750D01*
X710691Y444309D02*
X717969D01*
X710500Y444500D02*
X710691Y444309D01*
X710500Y444500D02*
Y453000D01*
X742969Y442890D02*
Y454391D01*
X741000Y443340D02*
Y443750D01*
X740969Y443309D02*
X741000Y443340D01*
X743109Y434391D02*
Y442641D01*
X744000Y442500D02*
X744320Y442820D01*
X750930D01*
X743109Y434391D02*
X743250Y434250D01*
X730500Y418500D02*
X730585Y418585D01*
X681805Y439945D02*
X682000Y439750D01*
X671441Y479691D02*
X681191D01*
X742969Y454750D02*
Y465889D01*
Y454391D02*
Y454750D01*
X750750D02*
X755610Y449890D01*
X769921D01*
X742969Y465889D02*
Y477391D01*
X743500Y466250D02*
X743750Y466000D01*
X750500D01*
X754390Y469890D02*
X769921D01*
X750500Y466000D02*
X754390Y469890D01*
X719969Y465889D02*
X731470D01*
X742639D02*
X742750Y466000D01*
X719969Y465889D02*
Y477391D01*
X760375Y522125D02*
Y529875D01*
X778750Y297750D02*
X779000Y298000D01*
X795000Y325250D02*
X802750D01*
X790500Y320750D02*
X795000Y325250D01*
X786200Y321000D02*
X786450Y320750D01*
X790500D01*
X504000Y460250D02*
X504250Y460500D01*
X504000Y455000D02*
Y460250D01*
X491007Y466000D02*
X504000D01*
X489250Y464243D02*
X491007Y466000D01*
X489250Y462750D02*
Y464243D01*
X570691Y359691D02*
X571000Y360000D01*
X563191Y359691D02*
X570691D01*
X572876Y360126D02*
X580876D01*
X522000Y368750D02*
X522250Y368500D01*
X513500Y338501D02*
Y343750D01*
X547000Y329750D02*
Y330000D01*
X546250Y329000D02*
X547000Y329750D01*
X450250Y296500D02*
X458750D01*
X458500Y295750D02*
X459000Y295250D01*
X459500Y296250D02*
X459750Y296500D01*
X467750D01*
X526500Y417500D02*
X526715Y417715D01*
X526000Y410750D02*
Y417500D01*
X499500Y405750D02*
X499500Y405750D01*
X492000Y405750D02*
X499500D01*
X505000Y406000D02*
X505125Y405875D01*
X512125D01*
X467375Y405625D02*
X467500Y405750D01*
X474000Y406250D02*
X474500Y405750D01*
X480750D01*
X467000Y417000D02*
X467250Y416750D01*
X464250Y424750D02*
X465250Y425750D01*
X466250Y425000D02*
X466500Y425250D01*
X470383Y436000D02*
X470441Y435941D01*
X470500Y436000D01*
X471000Y436250D02*
X480750D01*
X492125Y436125D02*
X501375D01*
X502375Y436375D02*
X502500Y436250D01*
X470500Y435750D02*
X470691Y435941D01*
X488750Y461000D02*
X488980D01*
X489500Y461520D01*
X393501Y483250D02*
X395250Y484999D01*
X366000Y483250D02*
X393501D01*
X395250Y484999D02*
Y485000D01*
X366375Y457125D02*
X376875D01*
X388750Y520750D02*
X389000Y520500D01*
X389125Y520625D02*
X397625D01*
X459000Y324500D02*
X462000Y327500D01*
X459000Y309000D02*
Y309500D01*
X572000Y324000D02*
Y343999D01*
X488999Y336501D02*
X493501D01*
X471500Y354000D02*
Y354500D01*
D15*
X543070Y436750D02*
D03*
X534430D02*
D03*
X541430Y552750D02*
D03*
X550070D02*
D03*
X605180Y514000D02*
D03*
X613820D02*
D03*
X618820Y562750D02*
D03*
X610180D02*
D03*
X604320Y481000D02*
D03*
X595680D02*
D03*
X604320Y467000D02*
D03*
X595680D02*
D03*
X769680Y279000D02*
D03*
X778320D02*
D03*
X769680Y298000D02*
D03*
X778320D02*
D03*
D16*
X596499Y527250D02*
D03*
X601501D02*
D03*
X606499D02*
D03*
X611501D02*
D03*
Y550750D02*
D03*
X606499D02*
D03*
X601501D02*
D03*
X596499D02*
D03*
D17*
X613251Y533999D02*
D03*
Y539000D02*
D03*
Y544001D02*
D03*
X594749D02*
D03*
Y539000D02*
D03*
Y533999D02*
D03*
D18*
X507000Y421000D02*
D03*
X465502D02*
D03*
D19*
X502001Y405750D02*
D03*
Y436250D02*
D03*
X470500Y405750D02*
D03*
Y436250D02*
D03*
D20*
X681419Y439890D02*
D03*
X769921Y459890D02*
D03*
Y449890D02*
D03*
Y439890D02*
D03*
Y469890D02*
D03*
Y479890D02*
D03*
X681419Y449890D02*
D03*
Y459890D02*
D03*
Y479890D02*
D03*
Y469890D02*
D03*
D21*
X680670Y418640D02*
D03*
X690670D02*
D03*
X700670D02*
D03*
X710670D02*
D03*
X720670D02*
D03*
X730670D02*
D03*
X740670D02*
D03*
X750670D02*
D03*
X760670D02*
D03*
X770670D02*
D03*
X680670Y501139D02*
D03*
X690670D02*
D03*
X700670D02*
D03*
X710670D02*
D03*
X720670D02*
D03*
X730670D02*
D03*
X740670D02*
D03*
X750670D02*
D03*
X760670D02*
D03*
X770670D02*
D03*
D22*
X695168Y465389D02*
D03*
Y476390D02*
D03*
Y487391D02*
D03*
Y454391D02*
D03*
Y443390D02*
D03*
Y432389D02*
D03*
X708470Y454391D02*
D03*
Y465889D02*
D03*
X719969Y454391D02*
D03*
Y442890D02*
D03*
Y465889D02*
D03*
Y477391D02*
D03*
X731470Y465889D02*
D03*
Y454391D02*
D03*
X742969D02*
D03*
Y465889D02*
D03*
Y477391D02*
D03*
Y442890D02*
D03*
D23*
X572000Y310500D02*
D03*
Y323500D02*
D03*
X561000Y426500D02*
D03*
Y413500D02*
D03*
X458750Y327000D02*
D03*
Y340000D02*
D03*
X459000Y309500D02*
D03*
Y296500D02*
D03*
X485750Y370250D02*
D03*
Y357250D02*
D03*
X389000Y520500D02*
D03*
Y507500D02*
D03*
X647750Y541250D02*
D03*
Y554250D02*
D03*
X663000D02*
D03*
Y541250D02*
D03*
X543000Y426500D02*
D03*
Y413500D02*
D03*
X489250Y522500D02*
D03*
Y535500D02*
D03*
D24*
X516000Y299501D02*
D03*
X496000D02*
D03*
D25*
X493501Y336501D02*
D03*
X498499D02*
D03*
X513501D02*
D03*
X518499D02*
D03*
D26*
X503501Y334499D02*
D03*
X508499D02*
D03*
D27*
X520501Y327499D02*
D03*
Y307999D02*
D03*
Y299501D02*
D03*
Y290999D02*
D03*
X491499D02*
D03*
Y299501D02*
D03*
Y307999D02*
D03*
Y327499D02*
D03*
D28*
X518499Y320999D02*
D03*
Y314499D02*
D03*
X493501D02*
D03*
Y320999D02*
D03*
D29*
X566751Y453249D02*
D03*
X561749D02*
D03*
X556751D02*
D03*
X551749D02*
D03*
X546751D02*
D03*
X541749D02*
D03*
X536751D02*
D03*
X531749D02*
D03*
X526751D02*
D03*
X521749D02*
D03*
X516751D02*
D03*
X511749D02*
D03*
Y523749D02*
D03*
X516751D02*
D03*
X521749D02*
D03*
X526751D02*
D03*
X531749D02*
D03*
X536751D02*
D03*
X541749D02*
D03*
X546751D02*
D03*
X551749D02*
D03*
X556751D02*
D03*
X561749D02*
D03*
X566751D02*
D03*
D30*
X504000Y460999D02*
D03*
Y466000D02*
D03*
Y470999D02*
D03*
Y476000D02*
D03*
Y480999D02*
D03*
Y486000D02*
D03*
Y490999D02*
D03*
Y496000D02*
D03*
Y500999D02*
D03*
Y506000D02*
D03*
Y510999D02*
D03*
Y516000D02*
D03*
X574500D02*
D03*
Y510999D02*
D03*
Y506000D02*
D03*
Y500999D02*
D03*
Y496000D02*
D03*
Y490999D02*
D03*
Y486000D02*
D03*
Y480999D02*
D03*
Y476000D02*
D03*
Y470999D02*
D03*
Y466000D02*
D03*
Y460999D02*
D03*
D31*
X539250Y488499D02*
D03*
D32*
X653250Y497250D02*
D03*
X648251D02*
D03*
X658251D02*
D03*
Y527750D02*
D03*
X653250D02*
D03*
X648251D02*
D03*
X643250D02*
D03*
D33*
Y497999D02*
D03*
D34*
X650751Y512500D02*
D03*
D35*
X762000Y321000D02*
D03*
X770000D02*
D03*
X778000D02*
D03*
X786200D02*
D03*
X786000Y345000D02*
D03*
X778000D02*
D03*
X770000D02*
D03*
X762000D02*
D03*
D36*
X364750Y501251D02*
D03*
Y439249D02*
D03*
D37*
X339251Y510250D02*
D03*
Y430250D02*
D03*
D38*
Y482249D02*
D03*
Y458251D02*
D03*
D39*
X366000Y457250D02*
D03*
Y463750D02*
D03*
Y470250D02*
D03*
Y476750D02*
D03*
Y483250D02*
D03*
D40*
X397000Y462000D02*
D03*
D41*
X414000D02*
D03*
Y485002D02*
D03*
X395001D02*
D03*
D42*
X572000Y343999D02*
D03*
Y360001D02*
D03*
X475500Y518749D02*
D03*
Y534751D02*
D03*
D43*
X547000Y330000D02*
D03*
Y310000D02*
D03*
X364000Y550000D02*
D03*
Y530000D02*
D03*
D44*
X522000Y363000D02*
D03*
X502000D02*
D03*
D45*
X489500Y460320D02*
D03*
Y451680D02*
D03*
X633750Y512070D02*
D03*
Y503430D02*
D03*
X761000Y383680D02*
D03*
Y392320D02*
D03*
X782000D02*
D03*
Y383680D02*
D03*
X526000Y426320D02*
D03*
Y417680D02*
D03*
D46*
X471500Y355000D02*
D03*
X458500D02*
D03*
X760500Y521000D02*
D03*
X747500D02*
D03*
D47*
X806000Y340350D02*
D03*
Y325650D02*
D03*
D48*
X804350Y365500D02*
D03*
X789650D02*
D03*
D83*
X680500Y271500D02*
D03*
D84*
X604500D02*
D03*
D87*
X485726Y619500D02*
D03*
X505726D02*
D03*
X415726D02*
D03*
X435726D02*
D03*
D91*
X501750Y368000D02*
X502250Y367500D01*
X501750Y368000D02*
Y376000D01*
X505000Y367000D02*
X505250Y366750D01*
X508250D01*
X509250Y367750D01*
Y375000D01*
X500750Y368750D02*
X501250Y368250D01*
X487250Y368750D02*
X500750D01*
X485750Y370250D02*
X487250Y368750D01*
X505000Y360000D02*
X508500D01*
X509750Y358750D01*
Y352000D02*
Y358750D01*
Y352000D02*
X510000Y351750D01*
X502000Y363000D02*
Y364032D01*
D92*
X397000Y451250D02*
Y462000D01*
X366750Y438750D02*
X384500D01*
X397000Y451250D01*
X366000Y439500D02*
X366750Y438750D01*
X339251Y430250D02*
Y458251D01*
X359486Y433985D02*
X364750Y439249D01*
X340265Y433985D02*
X359486D01*
X341735Y506515D02*
X359486D01*
X339251Y482249D02*
Y507250D01*
X359486Y506515D02*
X364750Y501251D01*
X339251Y458251D02*
Y482249D01*
X364049Y509201D02*
X365750Y507500D01*
X364000Y530000D02*
X364049Y529951D01*
Y509201D02*
Y529951D01*
D93*
X459000Y309500D02*
Y324500D01*
D94*
X365750Y507500D02*
X388250D01*
D95*
X335000Y610300D02*
D03*
Y635700D02*
D03*
Y584900D02*
D03*
D96*
Y661100D02*
D03*
D97*
X768700Y234000D02*
D03*
X743300D02*
D03*
D98*
X783700Y626000D02*
D03*
X758300D02*
D03*
D99*
X360670Y269500D02*
D03*
Y339500D02*
D03*
D100*
X335670Y282000D02*
D03*
D101*
Y327000D02*
D03*
D102*
X540500Y242500D02*
D03*
X409500D02*
D03*
D103*
X500000Y232500D02*
D03*
X475000Y207500D02*
D03*
X500000D02*
D03*
X450000D02*
D03*
D104*
Y232500D02*
D03*
D105*
X695650Y582700D02*
D03*
D106*
X670250D02*
D03*
X644850D02*
D03*
X695650Y633500D02*
D03*
X644850D02*
D03*
D107*
X413950Y381700D02*
D03*
X401250D02*
D03*
X388550D02*
D03*
D108*
X410000Y311000D02*
D03*
Y554000D02*
D03*
X728000D02*
D03*
Y311000D02*
D03*
D109*
X414000Y451750D02*
D03*
X479500Y460250D02*
D03*
X458000Y405500D02*
D03*
X587000Y530500D02*
D03*
X625000Y511500D02*
D03*
X580750Y523500D02*
D03*
X504000Y523000D02*
D03*
X489750Y511250D02*
D03*
X496250Y496000D02*
D03*
X489500Y491000D02*
D03*
X496000Y506000D02*
D03*
X626250Y521500D02*
D03*
X636250Y526750D02*
D03*
X536750Y532750D02*
D03*
X760750Y279000D02*
D03*
X750750Y406000D02*
D03*
X740750Y406250D02*
D03*
X720750Y406500D02*
D03*
X475500Y507250D02*
D03*
X561250Y359750D02*
D03*
X571750Y370000D02*
D03*
X582250Y360000D02*
D03*
X522250Y376250D02*
D03*
X480250Y451500D02*
D03*
X458750Y436000D02*
D03*
X470250Y446000D02*
D03*
X482500Y436250D02*
D03*
X414000Y495250D02*
D03*
X377500Y520250D02*
D03*
X389250Y530500D02*
D03*
X399750Y520500D02*
D03*
X379750Y457000D02*
D03*
X448250Y340000D02*
D03*
X469250D02*
D03*
X448750Y355500D02*
D03*
X458750Y366000D02*
D03*
X470500Y296500D02*
D03*
X459000Y286500D02*
D03*
X448250Y296500D02*
D03*
X529500Y327500D02*
D03*
X534250Y333250D02*
D03*
X560000Y330250D02*
D03*
X547000Y341250D02*
D03*
X526000Y336250D02*
D03*
X513500Y344500D02*
D03*
X522250Y350000D02*
D03*
X533000Y363250D02*
D03*
X501750Y376000D02*
D03*
X536500Y403000D02*
D03*
X561250Y403500D02*
D03*
X571000Y413500D02*
D03*
Y426750D02*
D03*
X546000Y403000D02*
D03*
X526000Y408750D02*
D03*
X552000Y434500D02*
D03*
X526500Y436000D02*
D03*
X548000Y562250D02*
D03*
X538750D02*
D03*
X670000Y440000D02*
D03*
X669500Y477750D02*
D03*
X670250Y449750D02*
D03*
Y459750D02*
D03*
X670000Y469750D02*
D03*
X700750Y513250D02*
D03*
X710750D02*
D03*
X720750D02*
D03*
X730750D02*
D03*
X747750Y531000D02*
D03*
X771000Y520750D02*
D03*
X377500Y550250D02*
D03*
X350250D02*
D03*
X364250Y561000D02*
D03*
X769750Y307000D02*
D03*
X778500Y270750D02*
D03*
X769750D02*
D03*
X786750Y279000D02*
D03*
X786500Y298000D02*
D03*
X761750D02*
D03*
X791000Y392250D02*
D03*
X782250Y375750D02*
D03*
X761250Y375250D02*
D03*
X752750Y383500D02*
D03*
X612500Y467250D02*
D03*
X604500Y458250D02*
D03*
X604250Y489750D02*
D03*
X614000Y505750D02*
D03*
X605500Y505000D02*
D03*
X610250Y571500D02*
D03*
X618750Y571750D02*
D03*
X760500Y530750D02*
D03*
X730500Y430250D02*
D03*
X752000Y443000D02*
D03*
Y477750D02*
D03*
X781250Y450000D02*
D03*
X781500Y470000D02*
D03*
X502500Y445500D02*
D03*
X491000Y436000D02*
D03*
X517750Y417500D02*
D03*
X513000Y406000D02*
D03*
X502000Y396250D02*
D03*
X490500Y405750D02*
D03*
X471000Y396500D02*
D03*
X481500Y405750D02*
D03*
X454500Y416500D02*
D03*
Y425250D02*
D03*
X476750Y417000D02*
D03*
X476500Y425250D02*
D03*
X584000Y509500D02*
D03*
X581000Y501000D02*
D03*
X574250Y527000D02*
D03*
X568250Y537750D02*
D03*
X562000Y600250D02*
D03*
X577750Y600750D02*
D03*
X489500Y501000D02*
D03*
X463500Y544000D02*
D03*
Y536000D02*
D03*
X505250Y550750D02*
D03*
X498250Y555500D02*
D03*
X531750Y607000D02*
D03*
X511750Y593250D02*
D03*
X451522Y446772D02*
D03*
Y438522D02*
D03*
X451272Y454272D02*
D03*
X672000Y418500D02*
D03*
X451250Y462750D02*
D03*
X594500Y343750D02*
D03*
X601500Y362750D02*
D03*
X517000Y586750D02*
D03*
X521750Y561500D02*
D03*
X526750Y567750D02*
D03*
X551500Y607750D02*
D03*
X518750Y436000D02*
D03*
X541750Y445500D02*
D03*
X465750Y378500D02*
D03*
X509250Y375000D02*
D03*
X423000Y584500D02*
D03*
X422750Y595750D02*
D03*
X673500Y518500D02*
D03*
X720000Y433750D02*
D03*
X586000Y538750D02*
D03*
X556750Y445500D02*
D03*
X561250Y317750D02*
D03*
X521750Y445500D02*
D03*
X685750Y489250D02*
D03*
X588000Y486000D02*
D03*
X510000Y351750D02*
D03*
X465500Y370000D02*
D03*
X533750Y313250D02*
D03*
X363000Y397750D02*
D03*
X531750Y445500D02*
D03*
X625250Y503000D02*
D03*
X752750Y392500D02*
D03*
X771250Y383500D02*
D03*
X769750Y288750D02*
D03*
X561250Y299750D02*
D03*
X489750Y445000D02*
D03*
X731500Y443000D02*
D03*
X743250Y434250D02*
D03*
X731250Y477500D02*
D03*
M02*
