G04*
G04 #@! TF.GenerationSoftware,Altium Limited,Altium Designer,20.2.8 (258)*
G04*
G04 Layer_Color=255*
%FSLAX44Y44*%
%MOMM*%
G71*
G04*
G04 #@! TF.SameCoordinates,AB2164AD-3A94-489E-A7C9-C1E693429951*
G04*
G04*
G04 #@! TF.FilePolarity,Positive*
G04*
G01*
G75*
%ADD15R,0.5400X0.6000*%
%ADD16R,0.2499X0.4501*%
%ADD17R,0.4501X0.2499*%
%ADD18R,0.9500X1.4001*%
%ADD19R,1.1501X0.7501*%
%ADD20R,1.1501X0.7000*%
%ADD21R,0.7000X1.1501*%
%ADD22R,0.7000X0.7000*%
%ADD23R,0.9000X0.7000*%
G04:AMPARAMS|DCode=24|XSize=1.95mm|YSize=0.6mm|CornerRadius=0.03mm|HoleSize=0mm|Usage=FLASHONLY|Rotation=90.000|XOffset=0mm|YOffset=0mm|HoleType=Round|Shape=RoundedRectangle|*
%AMROUNDEDRECTD24*
21,1,1.9500,0.5400,0,0,90.0*
21,1,1.8900,0.6000,0,0,90.0*
1,1,0.0600,0.2700,0.9450*
1,1,0.0600,0.2700,-0.9450*
1,1,0.0600,-0.2700,-0.9450*
1,1,0.0600,-0.2700,0.9450*
%
%ADD24ROUNDEDRECTD24*%
G04:AMPARAMS|DCode=25|XSize=0.2499mm|YSize=0.7mm|CornerRadius=0.075mm|HoleSize=0mm|Usage=FLASHONLY|Rotation=0.000|XOffset=0mm|YOffset=0mm|HoleType=Round|Shape=RoundedRectangle|*
%AMROUNDEDRECTD25*
21,1,0.2499,0.5501,0,0,0.0*
21,1,0.1000,0.7000,0,0,0.0*
1,1,0.1500,0.0500,-0.2750*
1,1,0.1500,-0.0500,-0.2750*
1,1,0.1500,-0.0500,0.2750*
1,1,0.1500,0.0500,0.2750*
%
%ADD25ROUNDEDRECTD25*%
G04:AMPARAMS|DCode=26|XSize=0.2499mm|YSize=1.1001mm|CornerRadius=0.075mm|HoleSize=0mm|Usage=FLASHONLY|Rotation=0.000|XOffset=0mm|YOffset=0mm|HoleType=Round|Shape=RoundedRectangle|*
%AMROUNDEDRECTD26*
21,1,0.2499,0.9501,0,0,0.0*
21,1,0.1000,1.1001,0,0,0.0*
1,1,0.1500,0.0500,-0.4751*
1,1,0.1500,-0.0500,-0.4751*
1,1,0.1500,-0.0500,0.4751*
1,1,0.1500,0.0500,0.4751*
%
%ADD26ROUNDEDRECTD26*%
G04:AMPARAMS|DCode=27|XSize=0.2499mm|YSize=0.7mm|CornerRadius=0.075mm|HoleSize=0mm|Usage=FLASHONLY|Rotation=90.000|XOffset=0mm|YOffset=0mm|HoleType=Round|Shape=RoundedRectangle|*
%AMROUNDEDRECTD27*
21,1,0.2499,0.5501,0,0,90.0*
21,1,0.1000,0.7000,0,0,90.0*
1,1,0.1500,0.2750,0.0500*
1,1,0.1500,0.2750,-0.0500*
1,1,0.1500,-0.2750,-0.0500*
1,1,0.1500,-0.2750,0.0500*
%
%ADD27ROUNDEDRECTD27*%
G04:AMPARAMS|DCode=28|XSize=0.2499mm|YSize=1.1001mm|CornerRadius=0.075mm|HoleSize=0mm|Usage=FLASHONLY|Rotation=90.000|XOffset=0mm|YOffset=0mm|HoleType=Round|Shape=RoundedRectangle|*
%AMROUNDEDRECTD28*
21,1,0.2499,0.9501,0,0,90.0*
21,1,0.1000,1.1001,0,0,90.0*
1,1,0.1500,0.4751,0.0500*
1,1,0.1500,0.4751,-0.0500*
1,1,0.1500,-0.4751,-0.0500*
1,1,0.1500,-0.4751,0.0500*
%
%ADD28ROUNDEDRECTD28*%
G04:AMPARAMS|DCode=29|XSize=0.2799mm|YSize=0.65mm|CornerRadius=0.0042mm|HoleSize=0mm|Usage=FLASHONLY|Rotation=180.000|XOffset=0mm|YOffset=0mm|HoleType=Round|Shape=RoundedRectangle|*
%AMROUNDEDRECTD29*
21,1,0.2799,0.6416,0,0,180.0*
21,1,0.2715,0.6500,0,0,180.0*
1,1,0.0084,-0.1358,0.3208*
1,1,0.0084,0.1358,0.3208*
1,1,0.0084,0.1358,-0.3208*
1,1,0.0084,-0.1358,-0.3208*
%
%ADD29ROUNDEDRECTD29*%
G04:AMPARAMS|DCode=30|XSize=0.65mm|YSize=0.2799mm|CornerRadius=0.0042mm|HoleSize=0mm|Usage=FLASHONLY|Rotation=180.000|XOffset=0mm|YOffset=0mm|HoleType=Round|Shape=RoundedRectangle|*
%AMROUNDEDRECTD30*
21,1,0.6500,0.2715,0,0,180.0*
21,1,0.6416,0.2799,0,0,180.0*
1,1,0.0084,-0.3208,0.1358*
1,1,0.0084,0.3208,0.1358*
1,1,0.0084,0.3208,-0.1358*
1,1,0.0084,-0.3208,-0.1358*
%
%ADD30ROUNDEDRECTD30*%
G04:AMPARAMS|DCode=31|XSize=5mm|YSize=5mm|CornerRadius=0.075mm|HoleSize=0mm|Usage=FLASHONLY|Rotation=180.000|XOffset=0mm|YOffset=0mm|HoleType=Round|Shape=RoundedRectangle|*
%AMROUNDEDRECTD31*
21,1,5.0000,4.8500,0,0,180.0*
21,1,4.8500,5.0000,0,0,180.0*
1,1,0.1500,-2.4250,2.4250*
1,1,0.1500,2.4250,2.4250*
1,1,0.1500,2.4250,-2.4250*
1,1,0.1500,-2.4250,-2.4250*
%
%ADD31ROUNDEDRECTD31*%
G04:AMPARAMS|DCode=32|XSize=0.3mm|YSize=0.7mm|CornerRadius=0.0045mm|HoleSize=0mm|Usage=FLASHONLY|Rotation=0.000|XOffset=0mm|YOffset=0mm|HoleType=Round|Shape=RoundedRectangle|*
%AMROUNDEDRECTD32*
21,1,0.3000,0.6910,0,0,0.0*
21,1,0.2910,0.7000,0,0,0.0*
1,1,0.0090,0.1455,-0.3455*
1,1,0.0090,-0.1455,-0.3455*
1,1,0.0090,-0.1455,0.3455*
1,1,0.0090,0.1455,0.3455*
%
%ADD32ROUNDEDRECTD32*%
G04:AMPARAMS|DCode=33|XSize=0.3mm|YSize=0.8499mm|CornerRadius=0.0045mm|HoleSize=0mm|Usage=FLASHONLY|Rotation=0.000|XOffset=0mm|YOffset=0mm|HoleType=Round|Shape=RoundedRectangle|*
%AMROUNDEDRECTD33*
21,1,0.3000,0.8409,0,0,0.0*
21,1,0.2910,0.8499,0,0,0.0*
1,1,0.0090,0.1455,-0.4204*
1,1,0.0090,-0.1455,-0.4204*
1,1,0.0090,-0.1455,0.4204*
1,1,0.0090,0.1455,0.4204*
%
%ADD33ROUNDEDRECTD33*%
G04:AMPARAMS|DCode=34|XSize=1.6mm|YSize=1.4001mm|CornerRadius=0.021mm|HoleSize=0mm|Usage=FLASHONLY|Rotation=0.000|XOffset=0mm|YOffset=0mm|HoleType=Round|Shape=RoundedRectangle|*
%AMROUNDEDRECTD34*
21,1,1.6000,1.3581,0,0,0.0*
21,1,1.5579,1.4001,0,0,0.0*
1,1,0.0420,0.7790,-0.6790*
1,1,0.0420,-0.7790,-0.6790*
1,1,0.0420,-0.7790,0.6790*
1,1,0.0420,0.7790,0.6790*
%
%ADD34ROUNDEDRECTD34*%
G04:AMPARAMS|DCode=35|XSize=0.5mm|YSize=0.5mm|CornerRadius=0.0625mm|HoleSize=0mm|Usage=FLASHONLY|Rotation=90.000|XOffset=0mm|YOffset=0mm|HoleType=Round|Shape=RoundedRectangle|*
%AMROUNDEDRECTD35*
21,1,0.5000,0.3750,0,0,90.0*
21,1,0.3750,0.5000,0,0,90.0*
1,1,0.1250,0.1875,0.1875*
1,1,0.1250,0.1875,-0.1875*
1,1,0.1250,-0.1875,-0.1875*
1,1,0.1250,-0.1875,0.1875*
%
%ADD35ROUNDEDRECTD35*%
G04:AMPARAMS|DCode=36|XSize=2.1001mm|YSize=1.6mm|CornerRadius=0.024mm|HoleSize=0mm|Usage=FLASHONLY|Rotation=90.000|XOffset=0mm|YOffset=0mm|HoleType=Round|Shape=RoundedRectangle|*
%AMROUNDEDRECTD36*
21,1,2.1001,1.5520,0,0,90.0*
21,1,2.0521,1.6000,0,0,90.0*
1,1,0.0480,0.7760,1.0260*
1,1,0.0480,0.7760,-1.0260*
1,1,0.0480,-0.7760,-1.0260*
1,1,0.0480,-0.7760,1.0260*
%
%ADD36ROUNDEDRECTD36*%
G04:AMPARAMS|DCode=37|XSize=1.8001mm|YSize=1.8999mm|CornerRadius=0.027mm|HoleSize=0mm|Usage=FLASHONLY|Rotation=90.000|XOffset=0mm|YOffset=0mm|HoleType=Round|Shape=RoundedRectangle|*
%AMROUNDEDRECTD37*
21,1,1.8001,1.8459,0,0,90.0*
21,1,1.7461,1.8999,0,0,90.0*
1,1,0.0540,0.9230,0.8730*
1,1,0.0540,0.9230,-0.8730*
1,1,0.0540,-0.9230,-0.8730*
1,1,0.0540,-0.9230,0.8730*
%
%ADD37ROUNDEDRECTD37*%
G04:AMPARAMS|DCode=38|XSize=1.8999mm|YSize=1.8999mm|CornerRadius=0.0285mm|HoleSize=0mm|Usage=FLASHONLY|Rotation=90.000|XOffset=0mm|YOffset=0mm|HoleType=Round|Shape=RoundedRectangle|*
%AMROUNDEDRECTD38*
21,1,1.8999,1.8429,0,0,90.0*
21,1,1.8429,1.8999,0,0,90.0*
1,1,0.0570,0.9215,0.9215*
1,1,0.0570,0.9215,-0.9215*
1,1,0.0570,-0.9215,-0.9215*
1,1,0.0570,-0.9215,0.9215*
%
%ADD38ROUNDEDRECTD38*%
G04:AMPARAMS|DCode=39|XSize=0.4001mm|YSize=1.35mm|CornerRadius=0.006mm|HoleSize=0mm|Usage=FLASHONLY|Rotation=90.000|XOffset=0mm|YOffset=0mm|HoleType=Round|Shape=RoundedRectangle|*
%AMROUNDEDRECTD39*
21,1,0.4001,1.3380,0,0,90.0*
21,1,0.3881,1.3500,0,0,90.0*
1,1,0.0120,0.6690,0.1940*
1,1,0.0120,0.6690,-0.1940*
1,1,0.0120,-0.6690,-0.1940*
1,1,0.0120,-0.6690,0.1940*
%
%ADD39ROUNDEDRECTD39*%
G04:AMPARAMS|DCode=40|XSize=1mm|YSize=1mm|CornerRadius=0.015mm|HoleSize=0mm|Usage=FLASHONLY|Rotation=90.000|XOffset=0mm|YOffset=0mm|HoleType=Round|Shape=RoundedRectangle|*
%AMROUNDEDRECTD40*
21,1,1.0000,0.9700,0,0,90.0*
21,1,0.9700,1.0000,0,0,90.0*
1,1,0.0300,0.4850,0.4850*
1,1,0.0300,0.4850,-0.4850*
1,1,0.0300,-0.4850,-0.4850*
1,1,0.0300,-0.4850,0.4850*
%
%ADD40ROUNDEDRECTD40*%
G04:AMPARAMS|DCode=41|XSize=1mm|YSize=0.6mm|CornerRadius=0.009mm|HoleSize=0mm|Usage=FLASHONLY|Rotation=90.000|XOffset=0mm|YOffset=0mm|HoleType=Round|Shape=RoundedRectangle|*
%AMROUNDEDRECTD41*
21,1,1.0000,0.5820,0,0,90.0*
21,1,0.9820,0.6000,0,0,90.0*
1,1,0.0180,0.2910,0.4910*
1,1,0.0180,0.2910,-0.4910*
1,1,0.0180,-0.2910,-0.4910*
1,1,0.0180,-0.2910,0.4910*
%
%ADD41ROUNDEDRECTD41*%
G04:AMPARAMS|DCode=42|XSize=0.8999mm|YSize=0.95mm|CornerRadius=0.0135mm|HoleSize=0mm|Usage=FLASHONLY|Rotation=270.000|XOffset=0mm|YOffset=0mm|HoleType=Round|Shape=RoundedRectangle|*
%AMROUNDEDRECTD42*
21,1,0.8999,0.9230,0,0,270.0*
21,1,0.8729,0.9500,0,0,270.0*
1,1,0.0270,-0.4615,-0.4365*
1,1,0.0270,-0.4615,0.4365*
1,1,0.0270,0.4615,0.4365*
1,1,0.0270,0.4615,-0.4365*
%
%ADD42ROUNDEDRECTD42*%
G04:AMPARAMS|DCode=43|XSize=0.95mm|YSize=1.4501mm|CornerRadius=0.0143mm|HoleSize=0mm|Usage=FLASHONLY|Rotation=90.000|XOffset=0mm|YOffset=0mm|HoleType=Round|Shape=RoundedRectangle|*
%AMROUNDEDRECTD43*
21,1,0.9500,1.4216,0,0,90.0*
21,1,0.9215,1.4501,0,0,90.0*
1,1,0.0285,0.7108,0.4607*
1,1,0.0285,0.7108,-0.4607*
1,1,0.0285,-0.7108,-0.4607*
1,1,0.0285,-0.7108,0.4607*
%
%ADD43ROUNDEDRECTD43*%
G04:AMPARAMS|DCode=44|XSize=0.95mm|YSize=1.4501mm|CornerRadius=0.0143mm|HoleSize=0mm|Usage=FLASHONLY|Rotation=180.000|XOffset=0mm|YOffset=0mm|HoleType=Round|Shape=RoundedRectangle|*
%AMROUNDEDRECTD44*
21,1,0.9500,1.4216,0,0,180.0*
21,1,0.9215,1.4501,0,0,180.0*
1,1,0.0285,-0.4607,0.7108*
1,1,0.0285,0.4607,0.7108*
1,1,0.0285,0.4607,-0.7108*
1,1,0.0285,-0.4607,-0.7108*
%
%ADD44ROUNDEDRECTD44*%
%ADD45R,0.6000X0.5400*%
%ADD46R,0.7000X0.9000*%
%ADD47R,1.0200X1.0400*%
%ADD48R,1.0400X1.0200*%
%ADD83C,1.5748*%
%ADD84R,1.5748X1.5748*%
%ADD87C,1.3208*%
%ADD95C,1.7000*%
%ADD96R,1.7000X1.7000*%
%ADD97C,2.0000*%
%ADD98C,1.5000*%
%ADD99C,1.9500*%
%ADD100R,1.5080X1.5080*%
%ADD101C,1.5080*%
%ADD102O,3.3160X6.6320*%
%ADD103C,1.6500*%
%ADD104R,1.6500X1.6500*%
%ADD105R,1.6350X1.6350*%
%ADD106C,1.6350*%
%ADD107O,1.0000X2.2000*%
%ADD108C,4.0000*%
D15*
X543070Y436750D02*
D03*
X534430D02*
D03*
X541430Y552750D02*
D03*
X550070D02*
D03*
X605180Y514000D02*
D03*
X613820D02*
D03*
X618820Y562750D02*
D03*
X610180D02*
D03*
X604320Y481000D02*
D03*
X595680D02*
D03*
X604320Y467000D02*
D03*
X595680D02*
D03*
X769680Y279000D02*
D03*
X778320D02*
D03*
X769680Y298000D02*
D03*
X778320D02*
D03*
D16*
X596499Y527250D02*
D03*
X601501D02*
D03*
X606499D02*
D03*
X611501D02*
D03*
Y550750D02*
D03*
X606499D02*
D03*
X601501D02*
D03*
X596499D02*
D03*
D17*
X613251Y533999D02*
D03*
Y539000D02*
D03*
Y544001D02*
D03*
X594749D02*
D03*
Y539000D02*
D03*
Y533999D02*
D03*
D18*
X507000Y421000D02*
D03*
X465502D02*
D03*
D19*
X502001Y405750D02*
D03*
Y436250D02*
D03*
X470500Y405750D02*
D03*
Y436250D02*
D03*
D20*
X681419Y439890D02*
D03*
X769921Y459890D02*
D03*
Y449890D02*
D03*
Y439890D02*
D03*
Y469890D02*
D03*
Y479890D02*
D03*
X681419Y449890D02*
D03*
Y459890D02*
D03*
Y479890D02*
D03*
Y469890D02*
D03*
D21*
X680670Y418640D02*
D03*
X690670D02*
D03*
X700670D02*
D03*
X710670D02*
D03*
X720670D02*
D03*
X730670D02*
D03*
X740670D02*
D03*
X750670D02*
D03*
X760670D02*
D03*
X770670D02*
D03*
X680670Y501139D02*
D03*
X690670D02*
D03*
X700670D02*
D03*
X710670D02*
D03*
X720670D02*
D03*
X730670D02*
D03*
X740670D02*
D03*
X750670D02*
D03*
X760670D02*
D03*
X770670D02*
D03*
D22*
X695168Y465389D02*
D03*
Y476390D02*
D03*
Y487391D02*
D03*
Y454391D02*
D03*
Y443390D02*
D03*
Y432389D02*
D03*
X708470Y454391D02*
D03*
Y465889D02*
D03*
X719969Y454391D02*
D03*
Y442890D02*
D03*
Y465889D02*
D03*
Y477391D02*
D03*
X731470Y465889D02*
D03*
Y454391D02*
D03*
X742969D02*
D03*
Y465889D02*
D03*
Y477391D02*
D03*
Y442890D02*
D03*
D23*
X572000Y310500D02*
D03*
Y323500D02*
D03*
X561000Y426500D02*
D03*
Y413500D02*
D03*
X458750Y327000D02*
D03*
Y340000D02*
D03*
X459000Y309500D02*
D03*
Y296500D02*
D03*
X485750Y370250D02*
D03*
Y357250D02*
D03*
X389000Y520500D02*
D03*
Y507500D02*
D03*
X647750Y541250D02*
D03*
Y554250D02*
D03*
X663000D02*
D03*
Y541250D02*
D03*
X543000Y426500D02*
D03*
Y413500D02*
D03*
X489250Y522500D02*
D03*
Y535500D02*
D03*
D24*
X516000Y299501D02*
D03*
X496000D02*
D03*
D25*
X493501Y336501D02*
D03*
X498499D02*
D03*
X513501D02*
D03*
X518499D02*
D03*
D26*
X503501Y334499D02*
D03*
X508499D02*
D03*
D27*
X520501Y327499D02*
D03*
Y307999D02*
D03*
Y299501D02*
D03*
Y290999D02*
D03*
X491499D02*
D03*
Y299501D02*
D03*
Y307999D02*
D03*
Y327499D02*
D03*
D28*
X518499Y320999D02*
D03*
Y314499D02*
D03*
X493501D02*
D03*
Y320999D02*
D03*
D29*
X566751Y453249D02*
D03*
X561749D02*
D03*
X556751D02*
D03*
X551749D02*
D03*
X546751D02*
D03*
X541749D02*
D03*
X536751D02*
D03*
X531749D02*
D03*
X526751D02*
D03*
X521749D02*
D03*
X516751D02*
D03*
X511749D02*
D03*
Y523749D02*
D03*
X516751D02*
D03*
X521749D02*
D03*
X526751D02*
D03*
X531749D02*
D03*
X536751D02*
D03*
X541749D02*
D03*
X546751D02*
D03*
X551749D02*
D03*
X556751D02*
D03*
X561749D02*
D03*
X566751D02*
D03*
D30*
X504000Y460999D02*
D03*
Y466000D02*
D03*
Y470999D02*
D03*
Y476000D02*
D03*
Y480999D02*
D03*
Y486000D02*
D03*
Y490999D02*
D03*
Y496000D02*
D03*
Y500999D02*
D03*
Y506000D02*
D03*
Y510999D02*
D03*
Y516000D02*
D03*
X574500D02*
D03*
Y510999D02*
D03*
Y506000D02*
D03*
Y500999D02*
D03*
Y496000D02*
D03*
Y490999D02*
D03*
Y486000D02*
D03*
Y480999D02*
D03*
Y476000D02*
D03*
Y470999D02*
D03*
Y466000D02*
D03*
Y460999D02*
D03*
D31*
X539250Y488499D02*
D03*
D32*
X653250Y497250D02*
D03*
X648251D02*
D03*
X658251D02*
D03*
Y527750D02*
D03*
X653250D02*
D03*
X648251D02*
D03*
X643250D02*
D03*
D33*
Y497999D02*
D03*
D34*
X650751Y512500D02*
D03*
D35*
X762000Y321000D02*
D03*
X770000D02*
D03*
X778000D02*
D03*
X786200D02*
D03*
X786000Y345000D02*
D03*
X778000D02*
D03*
X770000D02*
D03*
X762000D02*
D03*
D36*
X364750Y501251D02*
D03*
Y439249D02*
D03*
D37*
X339251Y510250D02*
D03*
Y430250D02*
D03*
D38*
Y482249D02*
D03*
Y458251D02*
D03*
D39*
X366000Y457250D02*
D03*
Y463750D02*
D03*
Y470250D02*
D03*
Y476750D02*
D03*
Y483250D02*
D03*
D40*
X397000Y462000D02*
D03*
D41*
X414000D02*
D03*
Y485002D02*
D03*
X395001D02*
D03*
D42*
X572000Y343999D02*
D03*
Y360001D02*
D03*
X475500Y518749D02*
D03*
Y534751D02*
D03*
D43*
X547000Y330000D02*
D03*
Y310000D02*
D03*
X364000Y550000D02*
D03*
Y530000D02*
D03*
D44*
X522000Y363000D02*
D03*
X502000D02*
D03*
D45*
X489500Y460320D02*
D03*
Y451680D02*
D03*
X633750Y512070D02*
D03*
Y503430D02*
D03*
X761000Y383680D02*
D03*
Y392320D02*
D03*
X782000D02*
D03*
Y383680D02*
D03*
X526000Y426320D02*
D03*
Y417680D02*
D03*
D46*
X471500Y355000D02*
D03*
X458500D02*
D03*
X760500Y521000D02*
D03*
X747500D02*
D03*
D47*
X806000Y340350D02*
D03*
Y325650D02*
D03*
D48*
X804350Y365500D02*
D03*
X789650D02*
D03*
D83*
X680500Y271500D02*
D03*
D84*
X604500D02*
D03*
D87*
X485726Y619500D02*
D03*
X505726D02*
D03*
X415726D02*
D03*
X435726D02*
D03*
D95*
X335000Y610300D02*
D03*
Y635700D02*
D03*
Y584900D02*
D03*
D96*
Y661100D02*
D03*
D97*
X768700Y234000D02*
D03*
X743300D02*
D03*
D98*
X783700Y626000D02*
D03*
X758300D02*
D03*
D99*
X360670Y269500D02*
D03*
Y339500D02*
D03*
D100*
X335670Y282000D02*
D03*
D101*
Y327000D02*
D03*
D102*
X540500Y242500D02*
D03*
X409500D02*
D03*
D103*
X500000Y232500D02*
D03*
X475000Y207500D02*
D03*
X500000D02*
D03*
X450000D02*
D03*
D104*
Y232500D02*
D03*
D105*
X695650Y582700D02*
D03*
D106*
X670250D02*
D03*
X644850D02*
D03*
X695650Y633500D02*
D03*
X644850D02*
D03*
D107*
X413950Y381700D02*
D03*
X401250D02*
D03*
X388550D02*
D03*
D108*
X410000Y311000D02*
D03*
Y554000D02*
D03*
X728000D02*
D03*
Y311000D02*
D03*
M02*
